<?xml version="1.0" encoding="UTF-8" standalone="no"?>
<svg
   xmlns:dc="http://purl.org/dc/elements/1.1/"
   xmlns:cc="http://creativecommons.org/ns#"
   xmlns:rdf="http://www.w3.org/1999/02/22-rdf-syntax-ns#"
   xmlns:svg="http://www.w3.org/2000/svg"
   xmlns="http://www.w3.org/2000/svg"
   height="227.78"
   width="227.78"
   version="1.1"
   viewBox="0 0 227.77999 227.77999"
   data-name="Warstwa 1"
   id="Warstwa_1">
  <metadata
     id="metadata70">
    <rdf:RDF>
      <cc:Work
         rdf:about="">
        <dc:format>image/svg+xml</dc:format>
        <dc:type
           rdf:resource="http://purl.org/dc/dcmitype/StillImage" />
        <dc:title>bus</dc:title>
      </cc:Work>
    </rdf:RDF>
  </metadata>
  <defs
     id="defs43">
    <style
       id="style41">.cls-1{fill:#931a1d;stroke:#010101;}.cls-1,.cls-2{stroke-miterlimit:10;}.cls-2{fill:#fff;stroke:#fff;stroke-width:2px;}</style>
  </defs>
  <title
     id="title45">bus</title>
  <circle
     style="fill:#931a1d;stroke:#010101;stroke-miterlimit:10"
     id="circle47"
     r="113.39"
     cy="113.89"
     cx="113.89"
     class="cls-1" />
  <path
     style="fill:#ffffff;stroke:#ffffff;stroke-width:2px;stroke-miterlimit:10"
     id="path49"
     d="m 39.42,68.64 c 3.69,2.3 4.79,5.73 4.63,9.81 -0.11,2.72 0,5.45 0,8.17 -0.11,5.51 -3.91,9.37 -9.12,9.33 -5.21,-0.04 -8.91,-4 -8.92,-9.52 0,-3.29 0.1,-6.59 0.08,-9.89 a 8.7,8.7 0 0 1 4.25,-7.62 3.31,3.31 0 0 0 1.4,-1.58 c 1.4,-5.86 5.68,-8.15 11.07,-9.12 0.65,-0.12 1.3,-0.22 2,-0.35 a 7.94,7.94 0 0 0 0.82,-0.33 c 0,-4.35 -0.07,-8.86 0,-13.36 a 9.9,9.9 0 0 1 7.79,-9.87 12.59,12.59 0 0 1 2.94,-0.28 q 56.34,0 112.68,0 c 6.42,0 10.52,4.13 10.6,10.52 0,4.21 0,8.42 0.08,12.63 0,0.15 0.13,0.29 0.23,0.51 1.72,0.37 3.52,0.63 5.24,1.16 4.12,1.27 7,3.8 8.29,8.09 a 4.35,4.35 0 0 0 1.62,2 9.35,9.35 0 0 1 4.12,7.77 c 0,3.3 0.07,6.6 0,9.9 -0.09,5.5 -3.9,9.39 -9.09,9.38 -5.19,-0.01 -8.93,-4 -9,-9.5 0,-2.31 0.11,-4.63 0,-6.93 -0.25,-4.45 0.49,-8.43 4.8,-11 v -0.77 l -6.31,-2.71 V 173.9 c 0,6.78 -1.38,8.27 -8,8.73 a 2.8,2.8 0 0 0 -0.66,0.19 c -0.09,0.19 -0.23,0.34 -0.22,0.48 0.4,6.47 -3.72,9.69 -9.65,9.23 -3.2,-0.25 -6.44,0 -9.66,0 -5,-0.05 -7.87,-2.84 -8,-7.77 0,-1.49 -0.31,-2.22 -2.06,-2.22 -19,0.08 -38,0.08 -57,0.11 -0.73,0 -1.46,0.08 -2.09,0.12 -0.16,0.27 -0.32,0.42 -0.31,0.55 0.38,6.27 -3.53,9.76 -9.92,9.25 -3,-0.23 -5.94,0 -8.91,0 -5.61,0 -8.34,-2.61 -8.6,-8.2 0,-0.47 -0.1,-0.95 -0.14,-1.34 a 2.23,2.23 0 0 0 -0.58,-0.27 c -7.24,-0.7 -8.28,-1.87 -8.28,-9.27 V 65.2 l -6.37,2.49 z m 126.71,109.51 h 5.21 c 3.7,0 3.77,-0.08 3.77,-3.73 q 0,-64.41 0,-128.8 c 0,-5.23 -1.94,-7.18 -7.14,-7.18 H 57.74 c -6.08,0 -7.81,1.71 -7.81,7.77 q 0,56.48 0,113 c 0,5.37 0,10.73 0,16.1 0,2.11 0.77,3 2.92,2.92 1.95,-0.1 3.91,0 6.12,0 0,2.26 0,4.22 0,6.18 0,2.59 1,3.66 3.56,3.69 3.79,0 7.59,0 11.39,0 2.38,0 3.43,-1.14 3.49,-3.52 0.06,-2 0,-4.08 0,-6.18 h 70.27 c 0,2.19 0,4.23 0,6.28 0,2.37 1.31,3.43 3.58,3.44 3.8,0 7.6,0 11.39,0 2.38,0 3.41,-1.13 3.48,-3.54 0.04,-2.05 0,-4.03 0,-6.43 z M 30.34,81.53 h 0.08 c 0,1.9 -0.12,3.8 0,5.68 a 4.54,4.54 0 0 0 9.06,0 c 0.14,-3.61 0.14,-7.24 0,-10.86 a 4.7,4.7 0 0 0 -4.94,-4.48 5,5 0 0 0 -4.18,5 z m 155.17,0.22 c 0,1.73 -0.08,3.46 0,5.19 a 4.57,4.57 0 0 0 9.13,0 c 0.12,-3.46 0.11,-6.93 0,-10.38 a 4.52,4.52 0 0 0 -4.54,-4.6 4.61,4.61 0 0 0 -4.58,4.57 c -0.1,1.75 -0.01,3.49 -0.01,5.22 z"
     class="cls-2" />
  <path
     style="fill:#ffffff;stroke:#ffffff;stroke-width:2px;stroke-miterlimit:10"
     id="path51"
     d="m 114.63,65.34 h 47.87 c 5.08,0 7.46,2.33 7.46,7.37 q 0,26 0,52 c 0,4.57 -2.31,7.15 -6.66,7.16 -15.84,0.06 -31.68,0 -47.52,0 a 9.84,9.84 0 0 1 -1.15,-0.15 z m 4.35,62.09 h 43 c 3.24,0 3.55,-0.3 3.55,-3.52 q 0,-25.26 0,-50.51 c 0,-3.34 -0.3,-3.63 -3.71,-3.63 h -42.84 z"
     class="cls-2" />
  <path
     style="fill:#ffffff;stroke:#ffffff;stroke-width:2px;stroke-miterlimit:10"
     id="path53"
     d="m 110.55,65.51 v 66.2 c -0.78,0.06 -1.49,0.16 -2.19,0.16 q -22.65,0 -45.3,0 c -4.94,0 -7.33,-2.34 -7.34,-7.24 q 0,-26.11 0,-52.22 c 0,-4.38 2.41,-7 6.57,-7 15.68,-0.06 31.35,0 47,0 a 11.52,11.52 0 0 1 1.26,0.1 z m -4.49,61.81 V 69.91 c -0.86,-0.06 -1.58,-0.14 -2.3,-0.14 q -20.06,0 -40.1,0 c -3.16,0 -3.5,0.36 -3.5,3.63 q 0,25.36 0,50.74 c 0,2.9 0.37,3.26 3.3,3.27 h 40.1 c 0.86,0.02 1.62,-0.05 2.5,-0.09 z"
     class="cls-2" />
  <path
     style="fill:#ffffff;stroke:#ffffff;stroke-width:2px;stroke-miterlimit:10"
     id="path55"
     d="m 112.3,59.21 q -14.37,0 -28.73,0 c -5.12,0 -8.19,-2.87 -8.19,-7.51 0,-4.64 3.04,-7.55 8.15,-7.55 q 28.85,0 57.7,0 c 5.49,0 8.53,2.9 8.45,7.79 a 7.14,7.14 0 0 1 -7.42,7.21 c -9.99,0.09 -19.97,0.06 -29.96,0.06 z m 0.07,-4.41 h 28.44 a 10,10 0 0 0 2,-0.08 2.88,2.88 0 0 0 2.47,-3.19 2.68,2.68 0 0 0 -2.52,-2.86 24.34,24.34 0 0 0 -3,-0.11 H 86.1 c -1.31,0 -2.78,-0.26 -3.9,0.23 -1.12,0.49 -2.23,1.75 -2.22,2.66 0,1.08 1.12,2.3 2,3.14 0.47,0.43 1.58,0.2 2.4,0.2 z"
     class="cls-2" />
  <path
     style="fill:#ffffff;stroke:#ffffff;stroke-width:2px;stroke-miterlimit:10"
     id="path57"
     d="m 67.84,147.98 c 1.23,0 2.47,-0.06 3.7,0 a 9.83,9.83 0 0 1 9.18,9.07 c 0.37,4.71 -2.84,9.49 -7.55,10.13 a 40.79,40.79 0 0 1 -11.52,-0.03 c -4.55,-0.69 -7.52,-5.59 -7.06,-10.48 a 9.79,9.79 0 0 1 9,-8.65 c 1.39,-0.09 2.8,0 4.2,0 z m -0.16,4.43 c -1.24,0 -2.48,-0.09 -3.7,0 a 5.34,5.34 0 0 0 -5,5.17 5.16,5.16 0 0 0 4.64,5.46 45.76,45.76 0 0 0 8.11,-0.08 5.14,5.14 0 0 0 4.57,-5.27 5.43,5.43 0 0 0 -4.93,-5.27 c -1.22,-0.11 -2.46,-0.01 -3.69,-0.01 z"
     class="cls-2" />
  <path
     style="fill:#ffffff;stroke:#ffffff;stroke-width:2px;stroke-miterlimit:10"
     id="path59"
     d="m 156.82,167.73 a 39.66,39.66 0 0 1 -4.92,-0.39 9.78,9.78 0 0 1 1.52,-19.35 c 2.39,-0.11 4.78,-0.08 7.16,0 a 9.77,9.77 0 0 1 1.44,19.42 49.11,49.11 0 0 1 -5.2,0.32 z m 0.49,-15.31 v 0 a 34.77,34.77 0 0 0 -4.21,0 5.29,5.29 0 0 0 -4.59,5 c -0.11,2.49 1.48,5 3.89,5.31 a 41.42,41.42 0 0 0 9.11,0.07 c 2.79,-0.3 4.4,-2.77 4.23,-5.53 a 5.25,5.25 0 0 0 -4.72,-4.93 32.76,32.76 0 0 0 -3.71,0.08 z"
     class="cls-2" />
  <path
     style="fill:#ffffff;stroke:#ffffff;stroke-width:2px;stroke-miterlimit:10"
     id="path61"
     d="m 112.3,166.4 q -12,0 -24,0 c -1.52,0 -3.52,0.41 -3.47,-2 0,-2.15 1.9,-1.88 3.36,-1.88 4,0 7.92,0 11.88,0 h 36.13 c 0.57,0 1.28,-0.18 1.7,0.08 a 12.44,12.44 0 0 1 1.94,1.84 14.88,14.88 0 0 1 -2.08,1.9 c -0.42,0.26 -1.13,0.05 -1.71,0.05 z"
     class="cls-2" />
  <path
     style="fill:#ffffff;stroke:#ffffff;stroke-width:2px;stroke-miterlimit:10"
     id="path63"
     d="m 112.33,154.65 q 12.14,0 24.25,0 c 1.48,0 3.29,-0.21 3.23,2 -0.06,2 -1.75,1.83 -3.16,1.83 H 87.9 c -1.39,0 -3.07,0.16 -3.08,-1.9 -0.01,-2.06 1.56,-2 3,-2 h 24.5 z"
     class="cls-2" />
  <path
     style="fill:#ffffff;stroke:#ffffff;stroke-width:2px;stroke-miterlimit:10"
     id="path65"
     d="m 112.29,146.77 h 24 a 4.86,4.86 0 0 1 2.18,0.18 1.81,1.81 0 0 1 -0.08,3.48 5.07,5.07 0 0 1 -2.19,0.17 H 87.96 c -0.41,0 -0.94,0.16 -1.21,0 a 19.42,19.42 0 0 1 -2,-1.78 c 0.68,-0.66 1.3,-1.81 2.05,-1.9 a 57,57 0 0 1 6.67,-0.1 z"
     class="cls-2" />
</svg>
