<?xml version="1.0" encoding="UTF-8" standalone="no"?>
<svg
   xmlns:dc="http://purl.org/dc/elements/1.1/"
   xmlns:cc="http://creativecommons.org/ns#"
   xmlns:rdf="http://www.w3.org/1999/02/22-rdf-syntax-ns#"
   xmlns:svg="http://www.w3.org/2000/svg"
   xmlns="http://www.w3.org/2000/svg"
   height="229.78"
   width="229.78"
   version="1.1"
   viewBox="0 0 229.77999 229.77999"
   data-name="Warstwa 1"
   id="Warstwa_1">
  <metadata
     id="metadata38">
    <rdf:RDF>
      <cc:Work
         rdf:about="">
        <dc:format>image/svg+xml</dc:format>
        <dc:type
           rdf:resource="http://purl.org/dc/dcmitype/StillImage" />
        <dc:title>cmentarz</dc:title>
      </cc:Work>
    </rdf:RDF>
  </metadata>
  <defs
     id="defs27">
    <style
       id="style25">.cls-1{fill:#a9a8a8;stroke:#010101;stroke-width:3px;}.cls-1,.cls-2{stroke-miterlimit:10;}.cls-2{fill:#fff;stroke:#fff;stroke-width:2px;}</style>
  </defs>
  <title
     id="title29">cmentarz</title>
  <circle
     style="fill:#a9a8a8;stroke:#010101;stroke-width:3px;stroke-miterlimit:10"
     id="circle31"
     r="113.39"
     cy="114.89"
     cx="114.89"
     class="cls-1" />
  <path
     style="fill:#ffffff;stroke:#ffffff;stroke-width:2px;stroke-miterlimit:10"
     id="path33"
     d="M 102.11,81.91 H 78.64 c -2.86,0 -3.94,-1.11 -3.94,-4 q 0,-9.15 0,-18.3 c 0,-2.77 1.11,-3.89 3.92,-3.9 h 23.56 v -28 c 0,-2.61 1.14,-3.77 3.72,-3.77 q 9.28,0 18.58,0 c 2.82,0 3.86,1.08 3.87,3.92 v 28 c 2.34,0 4.52,0 6.69,0 5,0 10,-0.14 15,-0.17 a 23.38,23.38 0 0 1 3.55,0.27 c 1.42,0.21 2.23,1.4 2.24,3.21 0,3.09 0,6.19 0,9.29 0,3.1 0,6.38 0,9.58 0,2.72 -1.13,3.82 -3.81,3.83 h -23.71 v 3 q 0,27.24 0,54.46 c 0,0.79 -0.11,1.46 1,1.91 14.27,6.08 22.64,16.74 24.75,32.19 l 0.15,1.06 h 7.94 a 11.38,11.38 0 0 1 11.35,11.07 c 0.07,2.05 0,4.1 0,6.15 0,2.43 -1.2,3.61 -3.6,3.61 H 69.44 c -3,0 -6,0 -9,0 a 3.13,3.13 0 0 1 -3.43,-3.34 c 0,-2.14 0,-4.29 0,-6.43 a 11.26,11.26 0 0 1 11.36,-11 c 2.61,0 5.23,0 7.5,0 1.1,-4 1.81,-7.84 3.23,-11.42 4.15,-10.39 11.63,-17.6 22,-21.8 a 1.5,1.5 0 0 0 1.12,-1.65 q 0,-28.09 0,-56.19 c -0.04,-0.46 -0.08,-0.93 -0.11,-1.58 z m 6.3,-51.7 v 1.84 q 0,13 0,26 c 0,2.84 -1,3.87 -3.88,3.87 H 81.02 v 13.66 c 0.42,0 0.75,0.06 1.07,0.06 7.53,0 15.06,0 22.59,0 a 5.27,5.27 0 0 1 2.54,0.7 c 1.19,0.73 1.2,2 1.2,3.32 q 0,28 0,56 v 3.11 h 13.7 v -1.55 q 0,-29 0.05,-58 c 0,-2.57 1.07,-3.58 3.69,-3.59 h 22 1.78 c 0,-4.45 0,-8.77 0,-13.09 0,-0.25 -0.59,-0.69 -0.92,-0.71 -1.52,-0.08 -3,0 -4.56,0 l -18.43,0.11 c -2.44,0 -3.59,-1.13 -3.59,-3.58 q 0,-10.8 0,-21.59 V 30.21 Z M 82.73,174.46 h 65.05 c -0.87,-14.34 -13.75,-29.53 -32.46,-29.57 -18.99,-0.03 -31.73,15.38 -32.59,29.57 z m 84.56,14.69 c 0,-1 0,-1.79 0,-2.59 0,-3.69 -2.06,-5.76 -5.73,-5.76 h -24.58 -68 c -3,0 -5.18,1.5 -5.6,4 a 26.84,26.84 0 0 0 0,4.31 z"
     class="cls-2" />
</svg>
