<?xml version="1.0" encoding="UTF-8" standalone="no"?>
<svg
   xmlns:dc="http://purl.org/dc/elements/1.1/"
   xmlns:cc="http://creativecommons.org/ns#"
   xmlns:rdf="http://www.w3.org/1999/02/22-rdf-syntax-ns#"
   xmlns:svg="http://www.w3.org/2000/svg"
   xmlns="http://www.w3.org/2000/svg"
   height="524.94"
   width="524.94"
   id="svg15"
   version="1.1"
   viewBox="0 0 524.94 524.94">
  <metadata
     id="metadata19">
    <rdf:RDF>
      <cc:Work
         rdf:about="">
        <dc:format>image/svg+xml</dc:format>
        <dc:type
           rdf:resource="http://purl.org/dc/dcmitype/StillImage" />
        <dc:title>event1</dc:title>
      </cc:Work>
    </rdf:RDF>
  </metadata>
  <defs
     id="defs4">
    <style
       id="style2">.cls-1{fill:#dd8790;stroke:#000;stroke-miterlimit:10;stroke-width:4px;}.cls-2{fill:#fff;}</style>
  </defs>
  <title
     id="title6">event1</title>
  <g
     data-name="Warstwa 2"
     id="Warstwa_2">
    <circle
       style="fill:#dd8790;stroke:#000000;stroke-width:4px;stroke-miterlimit:10"
       id="circle8"
       r="260.47"
       cy="262.47"
       cx="262.47"
       class="cls-1" />
    <path
       style="fill:#ffffff"
       id="path10"
       transform="translate(-84.93,-70.6)"
       d="m 347.45,499.55 c -42.14,0 -84.29,-0.4 -126.43,0.17 -20.37,0.27 -32.44,-16 -33.84,-31.19 -0.2,-2.12 -0.23,-4.26 -0.23,-6.39 q 0,-114.27 0,-228.53 c 0,-17.77 13.35,-31.15 31.17,-31.23 7.15,0 14.3,-0.08 21.45,0 2.38,0 3.17,-0.82 3.11,-3.17 -0.13,-5.23 0,-10.46 0,-15.68 0,-9.15 4.94,-15.7 14.06,-16.4 a 233.32,233.32 0 0 1 31.62,-0.1 c 7.57,0.44 12.31,6.5 12.47,14.19 q 0.18,9 0,17.93 c 0,2.27 0.57,3.23 3,3.23 q 43.53,-0.1 87.06,0 c 2.35,0 3.2,-0.72 3.15,-3.12 -0.14,-5.76 -0.11,-11.53 0,-17.29 0.13,-8.88 5.09,-14.71 14,-15.19 a 239,239 0 0 1 28.45,0.06 c 10.54,0.69 15.75,7 15.74,17.54 0,5 0.08,10 0,15 -0.05,2.25 0.82,3 3,3 7.26,-0.09 14.51,-0.07 21.77,0 17.48,0.12 30.93,13.32 30.94,30.79 q 0.1,115.23 0,230.45 a 37.75,37.75 0 0 1 -5.95,21.25 c -6.31,9.59 -15,14.73 -26.75,14.71 Q 411.3,499.46 347.45,499.55 Z M 205.32,296.43 v 166.21 c 0,1.28 0,2.56 0.1,3.83 0.89,9.55 6.43,14.66 15.85,14.66 h 253.12 c 7.23,0 11.7,-3 13.82,-9.93 a 31.79,31.79 0 0 0 1.21,-9.12 q 0.1,-80.64 0.05,-161.28 c 0,-4.37 0,-4.37 -4.27,-4.37 H 205.32 Z M 347.38,278 q 69.15,0 138.28,0.07 c 3.13,0 3.91,-0.91 3.88,-3.94 -0.15,-13.44 -0.05,-26.89 -0.06,-40.33 0,-7.9 -5.07,-13 -13,-13 q -9.45,-0.06 -18.89,0 c -6.09,0 -5.4,-0.5 -5.42,5.57 0,10.56 -7.13,18 -17.71,18.21 -8.42,0.18 -16.85,0.08 -25.28,0 a 15,15 0 0 1 -10.8,-4.85 c -4.06,-4.07 -4.59,-9.16 -4.42,-14.53 0.13,-4.41 0,-4.42 -4.29,-4.42 h -81.33 c -7.45,0 -7.45,0 -7.54,7.28 v 0.64 c -0.23,9.25 -6.82,15.82 -16.11,15.9 -7.9,0.08 -15.79,0 -23.69,0 a 19.67,19.67 0 0 1 -4.13,-0.4 c -9.12,-2.06 -14.2,-8.45 -14.25,-17.81 0,-6.2 0.69,-5.57 -5.72,-5.6 -6.41,-0.03 -12.59,-0.07 -18.88,0 -7.7,0.09 -12.73,5.28 -12.72,13 q 0,20 0,40 c 0,4.21 0,4.21 4.1,4.21 q 69,0 137.98,0 z m 64.38,-51.8 c 6.92,0 13.62,0.06 20.31,-0.11 0.56,0 1.55,-1.58 1.56,-2.43 0.11,-12.05 0.05,-24.1 0.1,-36.16 0,-1.95 -0.77,-2.6 -2.67,-2.58 -5.43,0.08 -10.88,0.15 -16.31,0 -2.53,-0.08 -3.31,0.74 -3.28,3.28 0.12,11.62 0,23.25 0.06,34.88 0,0.92 0.13,1.92 0.23,3.15 z m -130,-0.19 c 0.26,-0.28 0.39,-0.36 0.39,-0.44 0.07,-12.89 0.16,-25.79 0.09,-38.69 0,-0.64 -1.39,-1.8 -2.16,-1.83 -5.11,-0.17 -10.23,0 -15.35,-0.12 -1.94,0 -2.58,0.7 -2.57,2.63 0.06,12.26 0,24.52 0.05,36.79 a 10.53,10.53 0 0 0 0.3,1.66 z"
       class="cls-2" />
    <path
       style="fill:#ffffff"
       id="path12"
       transform="translate(-84.93,-70.6)"
       d="m 294.46,445.63 c 1.7,-9.51 3.23,-18.11 4.77,-26.72 0.68,-3.77 1.26,-7.58 2.11,-11.31 0.55,-2.39 -0.16,-4 -1.9,-5.6 -8.32,-7.81 -16.47,-15.8 -24.77,-23.63 -3.21,-3 -5,-6.51 -3.69,-10.84 1.31,-4.33 4.86,-5.89 9.06,-6.5 11.5,-1.67 23,-3.49 34.49,-5.1 a 5,5 0 0 0 4.31,-3.13 c 5.07,-10.45 10.31,-20.83 15.37,-31.29 1.9,-3.92 4.42,-6.82 9.11,-6.85 4.69,-0.03 7.28,2.74 9.2,6.71 5.11,10.55 10.42,21 15.55,31.56 a 4.71,4.71 0 0 0 4.05,3 q 17.89,2.53 35.74,5.37 c 6.3,1 9.57,5.7 7.92,11.44 a 12.76,12.76 0 0 1 -3.36,5.27 q -12.56,12.33 -25.37,24.39 a 4.56,4.56 0 0 0 -1.63,4.72 c 2.2,11.63 4.16,23.3 6.31,34.94 0.76,4.12 0.08,7.66 -3.38,10.29 -3.63,2.76 -7.45,2.06 -11.15,0.15 -10.32,-5.32 -20.64,-10.67 -30.88,-16.17 a 5.5,5.5 0 0 0 -5.89,0 Q 324.65,444.79 308.7,453 c -4.4,2.27 -8.9,1.67 -11.6,-1.8 -1.36,-1.8 -1.98,-4.13 -2.64,-5.57 z m 49,-100.78 c -0.9,1.62 -1.43,2.5 -1.89,3.42 -3.25,6.47 -6.53,12.93 -9.71,19.44 a 9.29,9.29 0 0 1 -7.73,5.41 c -6.66,0.86 -13.3,1.8 -20,2.74 -1.28,0.18 -2.54,0.5 -3.81,0.75 l 1.11,-0.48 c 5,5.55 9.72,11.33 15,16.57 3.57,3.54 4.87,7.29 3.92,12.09 -0.77,3.86 -1.39,7.76 -2,11.65 -0.62,3.7 -1.2,7.42 -1.9,11.82 7.43,-4 14.2,-7.57 20.89,-11.28 a 11.6,11.6 0 0 1 12.11,0 c 5.68,3.17 11.43,6.2 17.15,9.28 1,0.51 2,0.93 3.42,1.62 -0.15,-1.69 -0.17,-2.74 -0.34,-3.77 -1.11,-6.73 -2.12,-13.48 -3.42,-20.17 a 10.73,10.73 0 0 1 3.47,-10.65 c 5,-4.67 9.86,-9.43 14.77,-14.17 0.71,-0.68 1.32,-1.46 2.35,-2.62 -8.26,-1.18 -15.83,-2.4 -23.44,-3.29 -4.23,-0.5 -7,-2.34 -8.9,-6.22 -3.37,-7.16 -7.05,-14.23 -11.02,-22.14 z"
       class="cls-2" />
  </g>
</svg>
