<?xml version="1.0" encoding="UTF-8" standalone="no"?>
<svg
   xmlns:dc="http://purl.org/dc/elements/1.1/"
   xmlns:cc="http://creativecommons.org/ns#"
   xmlns:rdf="http://www.w3.org/1999/02/22-rdf-syntax-ns#"
   xmlns:svg="http://www.w3.org/2000/svg"
   xmlns="http://www.w3.org/2000/svg"
   height="229.78"
   width="229.78"
   version="1.1"
   viewBox="0 0 229.77999 229.77999"
   data-name="Warstwa 1"
   id="Warstwa_1">
  <metadata
     id="metadata25">
    <rdf:RDF>
      <cc:Work
         rdf:about="">
        <dc:format>image/svg+xml</dc:format>
        <dc:type
           rdf:resource="http://purl.org/dc/dcmitype/StillImage" />
        <dc:title>gastronomia</dc:title>
      </cc:Work>
    </rdf:RDF>
  </metadata>
  <defs
     id="defs4">
    <style
       id="style2">.cls-1{fill:#e9623d;stroke:#010101;stroke-width:3px;}.cls-1,.cls-2{stroke-miterlimit:10;}.cls-2{fill:#fff;stroke:#fff;stroke-width:2px;}</style>
  </defs>
  <title
     id="title6">gastronomia</title>
  <circle
     style="fill:#e9623d;stroke:#010101;stroke-width:3px;stroke-miterlimit:10"
     id="circle8"
     r="113.39"
     cy="114.89"
     cx="114.89"
     class="cls-1" />
  <path
     style="fill:#ffffff;stroke:#ffffff;stroke-width:2px;stroke-miterlimit:10"
     id="path10"
     d="M 171.49,114.4 A 54,54 0 1 1 117.24,60.21 54.12,54.12 0 0 1 171.49,114.4 Z M 117.44,64.62 a 49.61,49.61 0 1 0 49.62,49.91 49.55,49.55 0 0 0 -49.62,-49.91 z"
     class="cls-2" />
  <path
     style="fill:#ffffff;stroke:#ffffff;stroke-width:2px;stroke-miterlimit:10"
     id="path12"
     d="m 189.08,118.74 c -0.42,0 -0.76,-0.06 -1.1,-0.07 -1.8,0 -3.6,0 -5.4,0 a 2.2,2.2 0 0 1 -2.5,-2.48 c 0,-0.2 0,-0.41 0,-0.62 0,-8.62 -0.1,-17.24 0.1,-25.86 a 49,49 0 0 1 4.39,-19.3 c 1.33,-2.95 3,-5.77 4.54,-8.61 a 3.53,3.53 0 0 1 1.33,-1.37 2.06,2.06 0 0 1 3,1.52 7.31,7.31 0 0 1 0,1.2 q 0,23.17 0,46.35 0,25.35 0,50.69 a 14.17,14.17 0 0 1 0,1.46 2.09,2.09 0 0 1 -2.2,2 2.16,2.16 0 0 1 -2.16,-2.08 c 0,-0.31 0,-0.62 0,-0.94 z m -0.06,-4.53 V 71.52 c -0.14,0.11 -0.21,0.14 -0.23,0.19 -0.02,0.05 -0.15,0.31 -0.22,0.47 a 49.39,49.39 0 0 0 -4,19.16 c -0.08,7.23 0,14.47 0,21.71 0,0.37 0,0.74 0.05,1.16 z"
     class="cls-2" />
  <path
     style="fill:#ffffff;stroke:#ffffff;stroke-width:2px;stroke-miterlimit:10"
     id="path14"
     d="m 47.7,128.78 a 7.5,7.5 0 0 1 -0.23,-1.31 c 0,-7.51 0,-15 0,-22.55 0,-2.7 0,-5.39 0,-8.09 0,-0.58 -0.12,-0.93 -0.77,-1.11 A 10.88,10.88 0 0 1 38.51,85.15 c -0.07,-7.45 0,-14.89 0,-22.34 0,-1.63 0.87,-2.59 2.23,-2.55 1.36,0.04 2.16,1 2.16,2.63 q 0,9.26 0,18.5 v 1.4 c 1.4,0 2.74,0 4.07,0 0.18,0 0.46,-0.52 0.47,-0.81 0.06,-1.35 0,-2.7 0,-4 0,-5.06 0,-10.11 0,-15.17 a 2.21,2.21 0 1 1 4.39,-0.06 v 18.71 c 0,1.44 0,1.44 1.48,1.44 h 3.13 v -1.31 q 0,-9.36 0,-18.71 c 0,-2 1.63,-3.1 3.26,-2.26 a 2.18,2.18 0 0 1 1.14,2.16 v 5.37 q 0,8.56 0,17.14 a 11.08,11.08 0 0 1 -8,10.37 c -0.84,0.23 -1,0.58 -1,1.41 q 0,17.3 0,34.6 a 4.83,4.83 0 0 1 -0.22,1 z M 43.35,87.2 a 6.73,6.73 0 0 0 6.81,4.54 c 3,-0.24 5.63,-2.69 5.73,-4.54 z"
     class="cls-2" />
  <path
     style="fill:#ffffff;stroke:#ffffff;stroke-width:2px;stroke-miterlimit:10"
     id="path16"
     d="m 47.7,128.78 3.93,3.94 a 5.4,5.4 0 0 1 0.22,1.09 q 0,13.76 0,27.51 a 2.29,2.29 0 0 1 -1.64,2.35 2.21,2.21 0 0 1 -2.51,-1.19 3.05,3.05 0 0 1 -0.23,-1.2 q 0,-15.82 0,-31.66 a 3.29,3.29 0 0 1 0.23,-0.84 z"
     class="cls-2" />
  <path
     style="fill:#ffffff;stroke:#ffffff;stroke-width:2px;stroke-miterlimit:10"
     id="path18"
     d="m 153.44,114.33 a 36,36 0 1 1 -36.31,-36.09 36,36 0 0 1 36.31,36.09 z m -36.92,31.46 a 31.57,31.57 0 1 0 -30.6,-32.52 31.55,31.55 0 0 0 30.61,32.52 z"
     class="cls-2" />
  <path
     style="fill:#ffffff;stroke:#ffffff;stroke-width:2px;stroke-miterlimit:10"
     id="path20"
     d="m 144.58,113.56 a 6.75,6.75 0 0 1 -0.58,1.94 1.89,1.89 0 0 1 -2.35,0.85 2.35,2.35 0 0 1 -1.6,-2.19 41,41 0 0 0 -1.14,-6.82 21.81,21.81 0 0 0 -12.26,-13.72 23,23 0 0 0 -9.06,-2 2.2,2.2 0 0 1 -2.18,-1.44 1.92,1.92 0 0 1 0.6,-2.34 2.66,2.66 0 0 1 1.59,-0.59 27,27 0 0 1 26.32,21.55 c 0.31,1.5 0.42,3.03 0.66,4.76 z"
     class="cls-2" />
</svg>
