<?xml version="1.0" encoding="UTF-8" standalone="no"?>
<svg
   xmlns:dc="http://purl.org/dc/elements/1.1/"
   xmlns:cc="http://creativecommons.org/ns#"
   xmlns:rdf="http://www.w3.org/1999/02/22-rdf-syntax-ns#"
   xmlns:svg="http://www.w3.org/2000/svg"
   xmlns="http://www.w3.org/2000/svg"
   viewBox="0 0 449.75424 127.98013"
   height="127.98013"
   width="449.75424"
   xml:space="preserve"
   id="svg2"
   version="1.1"><metadata
     id="metadata8"><rdf:RDF><cc:Work
         rdf:about=""><dc:format>image/svg+xml</dc:format><dc:type
           rdf:resource="http://purl.org/dc/dcmitype/StillImage" /><dc:title></dc:title></cc:Work></rdf:RDF></metadata><defs
     id="defs6" /><g
     transform="matrix(1.3333333,0,0,-1.3333333,-66.572398,193.48533)"
     id="g10"><g
       id="g994"><path
         id="path16"
         style="fill:#406e1a;fill-opacity:1;fill-rule:nonzero;stroke:none;stroke-width:0.1"
         d="M 121.929,145.114 H 90.2039 c -4.2613,0 -7.9816,-3.215 -8.2574,-7.466 -0.302,-4.66 3.3879,-8.534 7.9828,-8.534 h 7.6973 c 1.841,0 2.7634,-2.225 1.4617,-3.527 l -6.6067,-6.607 c -3.0023,-3.002 -3.3894,-7.889 -0.607,-11.096 1.6024,-1.846 3.8285,-2.77 6.0547,-2.77 2.0477,0 4.0947,0.782 5.6567,2.343 l 6.816,6.816 c 1.302,1.302 3.527,0.38 3.527,-1.461 v -9.423 c 0,-4.2617 3.216,-7.9827 7.468,-8.2574 4.66,-0.3015 8.532,3.3887 8.532,7.9824 v 34 c 0,4.419 -3.582,8 -8,8 z m -0.275,-64.0749 c -3.825,2.2121 -8.718,0.9039 -10.931,-2.9192 -0.803,-1.389 -1.735,-2.6777 -2.777,-3.857 v 0 c -0.338,-0.382 -0.687,-0.752 -1.047,-1.1109 -0.028,-0.027 -0.057,-0.054 -0.086,-0.0829 -0.349,-0.3441 -0.707,-0.6793 -1.076,-1.0019 l -0.026,-0.0231 c -3.12,-2.716 -6.9071,-4.6011 -10.9817,-5.439 -0.0773,-0.0153 -0.1543,-0.0289 -0.2316,-0.043 -0.3957,-0.0781 -0.7946,-0.1441 -1.195,-0.2019 -0.1304,-0.018 -0.2617,-0.0364 -0.3933,-0.0524 -0.3645,-0.0457 -0.7309,-0.0816 -1.0985,-0.1109 -0.1355,-0.0098 -0.2699,-0.025 -0.4054,-0.0328 -0.4899,-0.0301 -0.9817,-0.05 -1.4762,-0.05 -10.7523,0 -19.8758,7.1078 -22.9191,16.8711 -0.7024,2.2527 -1.0809,4.648 -1.0809,7.1289 v 44.9999 c 0,4.418 -3.5813,8 -8,8 -4.4184,0 -8,-3.582 -8,-8 V 90.1141 c 0,-22.0551 17.9441,-40 40,-40 0.8234,0 1.6426,0.032 2.4598,0.0828 0.2261,0.014 0.4511,0.0363 0.6769,0.0551 0.6117,0.048 1.2211,0.107 1.8278,0.1839 0.2203,0.0282 0.4398,0.0571 0.6589,0.0879 0.6672,0.0953 1.3297,0.2071 1.9891,0.3352 0.1281,0.025 0.257,0.0469 0.3852,0.0738 6.76,1.3793 13.061,4.491 18.284,9.0461 0.024,0.0211 0.047,0.0422 0.07,0.0621 0.6,0.5262 1.186,1.0699 1.756,1.634 0.059,0.0582 0.12,0.116 0.18,0.1762 0.577,0.5769 1.14,1.1687 1.684,1.784 0.018,0.0207 0.038,0.041 0.056,0.0609 0.05,0.057 0.103,0.1098 0.153,0.166 0.105,0.1211 0.197,0.2488 0.294,0.375 1.547,1.816 2.953,3.7699 4.169,5.8711 2.212,3.8246 0.905,8.7188 -2.919,10.9309" /><path
         id="path18"
         style="fill:#406e1a;fill-opacity:1;fill-rule:nonzero;stroke:none;stroke-width:0.1"
         d="m 158.064,89.932 c -0.957,0.3391 -1.769,0.884 -2.436,1.6379 -0.667,0.7551 -1.175,1.75 -1.523,2.9891 -0.348,1.2371 -0.522,2.7555 -0.522,4.5531 0,1.8569 0.237,3.4089 0.711,4.6559 0.473,1.248 1.097,2.244 1.87,2.988 0.774,0.744 1.658,1.271 2.655,1.581 0.996,0.309 2.025,0.464 3.089,0.464 0.831,0 1.571,-0.049 2.219,-0.146 0.648,-0.096 1.252,-0.251 1.813,-0.464 0.735,-0.231 1.102,-0.677 1.102,-1.334 0,-0.212 -0.039,-0.445 -0.116,-0.696 l -0.116,-0.435 c -0.213,-0.677 -0.648,-1.015 -1.305,-1.015 -0.232,0 -0.445,0.029 -0.639,0.087 -0.425,0.136 -0.87,0.246 -1.334,0.334 -0.464,0.087 -0.947,0.13 -1.45,0.13 -0.657,0 -1.242,-0.077 -1.755,-0.232 -0.512,-0.155 -0.943,-0.46 -1.291,-0.914 -0.348,-0.454 -0.614,-1.083 -0.798,-1.886 -0.183,-0.802 -0.275,-1.841 -0.275,-3.1179 0,-1.2566 0.087,-2.2859 0.261,-3.0887 0.174,-0.8027 0.425,-1.4312 0.754,-1.8855 0.329,-0.4539 0.73,-0.7688 1.204,-0.943 0.473,-0.1738 1.01,-0.2609 1.61,-0.2609 0.464,0 0.88,0.039 1.247,0.116 0.367,0.077 0.706,0.1828 1.015,0.3191 0.078,0.0387 0.145,0.0821 0.204,0.1309 0.057,0.048 0.086,0.1301 0.086,0.2461 v 2.6102 c 0,0.2128 -0.106,0.3195 -0.319,0.3195 H 163.3 c -0.387,0 -0.72,0.1308 -1,0.3918 -0.281,0.2605 -0.421,0.5847 -0.421,0.9715 v 0.3769 c 0,0.4258 0.14,0.7586 0.421,1.0012 0.28,0.2422 0.613,0.3621 1,0.3621 h 3.539 c 0.445,0 0.822,-0.1543 1.131,-0.4641 0.31,-0.3093 0.464,-0.6863 0.464,-1.1304 v -7.0789 c 0,-0.4438 -0.14,-0.8118 -0.42,-1.102 -0.281,-0.2898 -0.633,-0.4348 -1.059,-0.4348 h -0.609 c -0.271,0 -0.513,0.043 -0.725,0.1297 -0.213,0.0883 -0.368,0.2953 -0.465,0.6242 l -0.058,0.2329 c -0.019,0.0961 -0.067,0.1441 -0.145,0.1441 -0.057,0 -0.115,-0.0281 -0.173,-0.0871 -0.407,-0.3668 -0.919,-0.657 -1.538,-0.8699 -0.619,-0.2129 -1.267,-0.3192 -1.943,-0.3192 -1.199,0 -2.277,0.1703 -3.235,0.5082" /><path
         id="path20"
         style="fill:#406e1a;fill-opacity:1;fill-rule:nonzero;stroke:none;stroke-width:0.1"
         d="m 173.343,108.047 c 0.291,0.29 0.677,0.434 1.161,0.434 h 9.311 c 0.967,0 1.45,-0.521 1.45,-1.566 v -0.435 c 0,-1.005 -0.483,-1.508 -1.45,-1.508 h -6.352 c -0.213,0 -0.32,-0.107 -0.32,-0.32 v -3.364 c 0,-0.213 0.107,-0.319 0.32,-0.319 h 3.713 c 0.966,0 1.45,-0.513 1.45,-1.5374 v -0.4062 c 0,-1.0059 -0.484,-1.5086 -1.45,-1.5086 h -3.713 c -0.213,0 -0.32,-0.1059 -0.32,-0.3188 v -3.655 c 0,-0.193 0.107,-0.2899 0.32,-0.2899 h 6.758 c 0.967,0 1.451,-0.5312 1.451,-1.5961 v -0.405 c 0,-1.0059 -0.484,-1.509 -1.451,-1.509 h -9.717 c -0.484,0 -0.87,0.1461 -1.161,0.4359 -0.29,0.2902 -0.435,0.6762 -0.435,1.1602 v 15.5479 c 0,0.483 0.145,0.87 0.435,1.16" /><path
         id="path22"
         style="fill:#406e1a;fill-opacity:1;fill-rule:nonzero;stroke:none;stroke-width:0.1"
         d="m 197.644,93.1512 c 0.445,0.1636 0.812,0.4687 1.102,0.9136 0.29,0.4454 0.503,1.0739 0.638,1.8856 0.136,0.8125 0.203,1.866 0.203,3.1617 0,1.2959 -0.072,2.3499 -0.217,3.1619 -0.145,0.812 -0.363,1.441 -0.653,1.885 -0.29,0.446 -0.657,0.75 -1.102,0.914 -0.445,0.165 -0.958,0.247 -1.538,0.247 -0.618,0 -1.145,-0.082 -1.58,-0.247 -0.436,-0.164 -0.793,-0.468 -1.074,-0.914 -0.28,-0.444 -0.488,-1.073 -0.623,-1.885 -0.136,-0.812 -0.204,-1.866 -0.204,-3.1619 0,-1.2957 0.073,-2.3492 0.218,-3.1617 0.145,-0.8117 0.363,-1.4402 0.653,-1.8856 0.29,-0.4449 0.652,-0.75 1.087,-0.9136 0.435,-0.1641 0.943,-0.2461 1.523,-0.2461 0.6,0 1.122,0.082 1.567,0.2461 z m -4.685,-3.2621 c -0.957,0.3078 -1.788,0.8308 -2.494,1.5648 -0.706,0.7352 -1.257,1.727 -1.654,2.9742 -0.396,1.2465 -0.594,2.8082 -0.594,4.684 0,1.8179 0.212,3.3459 0.638,4.5829 0.425,1.239 1.001,2.234 1.726,2.989 0.725,0.754 1.561,1.295 2.509,1.623 0.947,0.33 1.943,0.494 2.987,0.494 1.122,0 2.166,-0.155 3.133,-0.464 0.967,-0.31 1.803,-0.832 2.509,-1.566 0.706,-0.736 1.257,-1.727 1.654,-2.974 0.396,-1.247 0.594,-2.809 0.594,-4.6849 0,-1.8172 -0.217,-3.3453 -0.652,-4.5832 -0.435,-1.2367 -1.015,-2.2328 -1.741,-2.9867 -0.725,-0.7551 -1.561,-1.2961 -2.509,-1.625 -0.948,-0.3281 -1.943,-0.4934 -2.988,-0.4934 -1.121,0 -2.161,0.1551 -3.118,0.4653" /><path
         id="path24"
         style="fill:#406e1a;fill-opacity:1;fill-rule:nonzero;stroke:none;stroke-width:0.1"
         d="m 211.864,89.932 c -0.957,0.3391 -1.769,0.884 -2.437,1.6379 -0.667,0.7551 -1.174,1.75 -1.522,2.9891 -0.348,1.2371 -0.522,2.7555 -0.522,4.5531 0,1.8569 0.236,3.4089 0.71,4.6559 0.474,1.248 1.098,2.244 1.871,2.988 0.774,0.744 1.658,1.271 2.654,1.581 0.996,0.309 2.026,0.464 3.09,0.464 0.831,0 1.571,-0.049 2.218,-0.146 0.648,-0.096 1.253,-0.251 1.813,-0.464 0.735,-0.231 1.103,-0.677 1.103,-1.334 0,-0.212 -0.04,-0.445 -0.117,-0.696 l -0.115,-0.435 c -0.213,-0.677 -0.648,-1.015 -1.306,-1.015 -0.232,0 -0.444,0.029 -0.638,0.087 -0.425,0.136 -0.87,0.246 -1.334,0.334 -0.464,0.087 -0.948,0.13 -1.45,0.13 -0.658,0 -1.243,-0.077 -1.755,-0.232 -0.513,-0.155 -0.943,-0.46 -1.291,-0.914 -0.348,-0.454 -0.614,-1.083 -0.798,-1.886 -0.183,-0.802 -0.276,-1.841 -0.276,-3.1179 0,-1.2566 0.088,-2.2859 0.262,-3.0887 0.173,-0.8027 0.425,-1.4312 0.754,-1.8855 0.329,-0.4539 0.73,-0.7688 1.204,-0.943 0.473,-0.1738 1.01,-0.2609 1.61,-0.2609 0.464,0 0.879,0.039 1.247,0.116 0.367,0.077 0.706,0.1828 1.015,0.3191 0.077,0.0387 0.145,0.0821 0.203,0.1309 0.058,0.048 0.087,0.1301 0.087,0.2461 v 2.6102 c 0,0.2128 -0.106,0.3195 -0.319,0.3195 H 217.1 c -0.387,0 -0.72,0.1308 -1.001,0.3918 -0.28,0.2605 -0.421,0.5847 -0.421,0.9715 v 0.3769 c 0,0.4258 0.141,0.7586 0.421,1.0012 0.281,0.2422 0.614,0.3621 1.001,0.3621 h 3.539 c 0.445,0 0.822,-0.1543 1.131,-0.4641 0.309,-0.3093 0.464,-0.6863 0.464,-1.1304 v -7.0789 c 0,-0.4438 -0.14,-0.8118 -0.42,-1.102 -0.281,-0.2898 -0.634,-0.4348 -1.059,-0.4348 h -0.61 c -0.27,0 -0.512,0.043 -0.724,0.1297 -0.213,0.0883 -0.368,0.2953 -0.465,0.6242 l -0.058,0.2329 c -0.019,0.0961 -0.067,0.1441 -0.145,0.1441 -0.057,0 -0.116,-0.0281 -0.174,-0.0871 -0.406,-0.3668 -0.918,-0.657 -1.537,-0.8699 -0.619,-0.2129 -1.267,-0.3192 -1.944,-0.3192 -1.198,0 -2.276,0.1703 -3.234,0.5082" /><path
         id="path26"
         style="fill:#406e1a;fill-opacity:1;fill-rule:nonzero;stroke:none;stroke-width:0.1"
         d="m 233.757,99.9395 c 0.367,0.0675 0.681,0.1935 0.942,0.3765 0.262,0.184 0.459,0.445 0.595,0.784 0.135,0.338 0.203,0.778 0.203,1.319 0,0.522 -0.068,0.953 -0.203,1.291 -0.136,0.339 -0.333,0.604 -0.595,0.798 -0.261,0.193 -0.575,0.324 -0.942,0.391 -0.368,0.068 -0.793,0.102 -1.277,0.102 h -1.248 c -0.212,0 -0.318,-0.106 -0.318,-0.319 v -4.526 c 0,-0.2119 0.106,-0.3181 0.318,-0.3181 h 1.248 c 0.484,0 0.909,0.0332 1.277,0.1016 z m -6.614,8.1075 c 0.289,0.29 0.676,0.434 1.159,0.434 h 5.106 c 2.185,0 3.805,-0.512 4.858,-1.537 1.055,-1.025 1.582,-2.533 1.582,-4.525 0,-2.4561 -0.88,-4.167 -2.64,-5.1338 -0.038,-0.0391 -0.076,-0.0684 -0.116,-0.0872 -0.039,-0.0195 -0.057,-0.0585 -0.057,-0.116 0,-0.039 0.028,-0.1164 0.086,-0.2324 l 3.278,-5.3957 c 0.154,-0.2508 0.233,-0.4918 0.233,-0.725 0,-0.2898 -0.103,-0.5367 -0.305,-0.7398 -0.204,-0.202 -0.508,-0.3032 -0.914,-0.3032 h -1.538 c -0.502,0 -0.899,0.125 -1.189,0.3762 -0.29,0.2508 -0.551,0.5899 -0.783,1.0149 l -2.813,5.048 c -0.097,0.1738 -0.243,0.2605 -0.436,0.2605 -0.058,0 -0.155,-0.0046 -0.29,-0.0144 -0.136,-0.0098 -0.232,-0.0148 -0.29,-0.0148 h -0.842 c -0.212,0 -0.318,-0.1063 -0.318,-0.318 v -4.5551 c 0,-1.1992 -0.628,-1.7973 -1.886,-1.7973 h -0.435 c -1.257,0 -1.885,0.5981 -1.885,1.7973 v 15.4038 c 0,0.483 0.144,0.87 0.435,1.16" /><path
         id="path28"
         style="fill:#406e1a;fill-opacity:1;fill-rule:nonzero;stroke:none;stroke-width:0.1"
         d="m 253.416,97.2852 c 0,0.0378 -0.01,0.1066 -0.03,0.2031 -0.018,0.0969 -0.057,0.2312 -0.116,0.4062 l -1.681,5.6565 c -0.058,0.154 -0.107,0.231 -0.145,0.231 -0.04,0 -0.088,-0.077 -0.145,-0.231 l -1.683,-5.6565 c -0.059,-0.175 -0.097,-0.3093 -0.116,-0.4062 -0.019,-0.0965 -0.03,-0.1653 -0.03,-0.2031 0,-0.1551 0.087,-0.2325 0.262,-0.2325 h 3.423 c 0.174,0 0.261,0.0774 0.261,0.2325 z m -9.834,-6.0481 c 0.039,0.1449 0.078,0.2949 0.116,0.45 l 4.902,15.3439 c 0.156,0.483 0.398,0.865 0.726,1.146 0.328,0.28 0.802,0.421 1.422,0.421 h 1.711 c 0.618,0 1.097,-0.141 1.435,-0.421 0.338,-0.281 0.585,-0.663 0.74,-1.146 l 4.844,-15.2861 c 0.116,-0.3289 0.174,-0.609 0.174,-0.8418 0,-0.3293 -0.106,-0.614 -0.319,-0.8551 -0.213,-0.2421 -0.522,-0.3621 -0.928,-0.3621 h -1.45 c -0.503,0 -0.88,0.1289 -1.132,0.3911 -0.251,0.2609 -0.454,0.6429 -0.608,1.146 l -0.639,2.0879 c -0.058,0.2121 -0.203,0.3192 -0.436,0.3192 h -5.394 c -0.232,0 -0.377,-0.1071 -0.436,-0.3192 l -0.667,-2.175 c -0.154,-0.4839 -0.348,-0.8468 -0.58,-1.0879 -0.231,-0.2421 -0.58,-0.3621 -1.044,-0.3621 h -1.305 c -0.387,0 -0.682,0.1051 -0.885,0.318 -0.202,0.2133 -0.305,0.493 -0.305,0.8422 0,0.116 0.02,0.2461 0.058,0.391" /><path
         id="path30"
         style="fill:#406e1a;fill-opacity:1;fill-rule:nonzero;stroke:none;stroke-width:0.1"
         d="m 263.628,108.047 c 0.29,0.29 0.676,0.434 1.16,0.434 h 8.905 c 0.967,0 1.45,-0.521 1.45,-1.566 v -0.435 c 0,-1.005 -0.483,-1.508 -1.45,-1.508 h -5.946 c -0.213,0 -0.32,-0.107 -0.32,-0.32 v -4.031 c 0,-0.213 0.107,-0.319 0.32,-0.319 h 3.48 c 0.967,0 1.45,-0.5129 1.45,-1.5375 v -0.4059 c 0,-1.0063 -0.483,-1.509 -1.45,-1.509 h -3.48 c -0.213,0 -0.32,-0.1062 -0.32,-0.3183 v -5.0481 c 0,-1.1992 -0.628,-1.7973 -1.885,-1.7973 h -0.464 c -1.257,0 -1.886,0.5981 -1.886,1.7973 v 15.4038 c 0,0.483 0.146,0.87 0.436,1.16" /><path
         id="path32"
         style="fill:#406e1a;fill-opacity:1;fill-rule:nonzero;stroke:none;stroke-width:0.1"
         d="m 280.401,108.54 h 0.465 c 1.257,0 1.885,-0.6 1.885,-1.799 V 91.4832 c 0,-1.1992 -0.628,-1.7973 -1.885,-1.7973 h -0.465 c -1.257,0 -1.885,0.5981 -1.885,1.7973 v 15.2578 c 0,1.199 0.628,1.799 1.885,1.799" /><path
         id="path34"
         style="fill:#406e1a;fill-opacity:1;fill-rule:nonzero;stroke:none;stroke-width:0.1"
         d="m 287.65,103.768 c 0.464,1.248 1.078,2.244 1.842,2.988 0.764,0.744 1.643,1.271 2.64,1.581 0.996,0.309 2.026,0.464 3.089,0.464 1.334,0 2.504,-0.194 3.51,-0.58 0.754,-0.233 1.131,-0.657 1.131,-1.277 0,-0.116 -0.02,-0.255 -0.058,-0.421 -0.039,-0.164 -0.106,-0.391 -0.203,-0.681 -0.116,-0.387 -0.27,-0.667 -0.464,-0.841 -0.193,-0.174 -0.483,-0.261 -0.871,-0.261 -0.096,0 -0.197,0.009 -0.303,0.029 -0.107,0.019 -0.208,0.049 -0.305,0.086 -0.755,0.272 -1.509,0.407 -2.263,0.407 -0.677,0 -1.271,-0.092 -1.784,-0.276 -0.513,-0.183 -0.937,-0.507 -1.276,-0.972 -0.338,-0.463 -0.59,-1.092 -0.754,-1.885 -0.164,-0.793 -0.247,-1.798 -0.247,-3.0169 0,-1.1988 0.083,-2.1941 0.247,-2.9871 0.164,-0.793 0.411,-1.4219 0.739,-1.8859 0.329,-0.4641 0.75,-0.793 1.262,-0.986 0.512,-0.1929 1.107,-0.2902 1.784,-0.2902 0.56,0 1.063,0.0492 1.509,0.1449 0.444,0.0973 0.88,0.232 1.304,0.4063 0.156,0.0578 0.29,0.0961 0.407,0.116 0.116,0.0187 0.232,0.0289 0.348,0.0289 0.309,0 0.551,-0.0871 0.725,-0.261 0.174,-0.1742 0.319,-0.416 0.435,-0.725 l 0.117,-0.3191 c 0.057,-0.1738 0.096,-0.3148 0.115,-0.4199 0.019,-0.107 0.029,-0.218 0.029,-0.334 0,-0.2898 -0.101,-0.541 -0.304,-0.7539 -0.204,-0.2129 -0.489,-0.3973 -0.856,-0.552 -0.561,-0.2711 -1.18,-0.4832 -1.856,-0.6382 -0.677,-0.1547 -1.383,-0.2321 -2.118,-0.2321 -1.199,0 -2.301,0.1453 -3.306,0.4352 -1.006,0.2898 -1.876,0.8031 -2.612,1.5371 -0.734,0.7359 -1.309,1.7258 -1.725,2.9738 -0.416,1.2473 -0.624,2.8281 -0.624,4.7422 0,1.8569 0.232,3.4089 0.696,4.6559" /><path
         id="path36"
         style="fill:#406e1a;fill-opacity:1;fill-rule:nonzero;stroke:none;stroke-width:0.1"
         d="m 303.508,92.5711 c 0.126,0.3391 0.294,0.682 0.507,1.0309 l 6.701,10.963 c 0.058,0.097 0.091,0.161 0.101,0.189 0.01,0.029 0.015,0.064 0.015,0.101 0,0.079 -0.068,0.117 -0.203,0.117 h -5.773 c -0.967,0 -1.45,0.522 -1.45,1.566 v 0.464 c 0,0.986 0.483,1.479 1.45,1.479 h 10.066 c 0.445,0 0.793,-0.126 1.044,-0.376 0.251,-0.251 0.377,-0.6 0.377,-1.044 v -0.407 c 0,-0.425 -0.068,-0.827 -0.203,-1.204 -0.135,-0.377 -0.319,-0.749 -0.551,-1.116 l -6.73,-10.675 c -0.058,-0.0969 -0.092,-0.159 -0.101,-0.1879 -0.01,-0.0301 -0.015,-0.0633 -0.015,-0.102 0,-0.0769 0.068,-0.116 0.203,-0.116 h 6.324 c 0.967,0 1.45,-0.523 1.45,-1.566 V 91.223 c 0,-0.9871 -0.483,-1.48 -1.45,-1.48 h -10.617 c -0.406,0 -0.729,0.1261 -0.972,0.3769 -0.241,0.252 -0.362,0.5903 -0.362,1.016 v 0.4063 c 0,0.3476 0.063,0.691 0.189,1.0289" /><path
         id="path38"
         style="fill:#406e1a;fill-opacity:1;fill-rule:nonzero;stroke:none;stroke-width:0.1"
         d="m 320.751,108.047 c 0.29,0.29 0.696,0.434 1.217,0.434 h 0.465 c 1.083,0 1.924,-0.454 2.524,-1.363 l 6.004,-9.3692 c 0.058,-0.0965 0.106,-0.1687 0.145,-0.2175 0.038,-0.0477 0.087,-0.0723 0.145,-0.0723 0.058,0 0.087,0.0769 0.087,0.2324 v 9.1956 c 0,0.58 0.15,1 0.45,1.261 0.3,0.261 0.729,0.392 1.291,0.392 h 0.434 c 0.561,0 0.992,-0.131 1.291,-0.392 0.3,-0.261 0.45,-0.681 0.45,-1.261 V 91.3672 c 0,-1.0832 -0.541,-1.6242 -1.624,-1.6242 h -0.436 c -0.638,0 -1.141,0.116 -1.508,0.348 -0.367,0.232 -0.686,0.561 -0.957,0.986 l -6.149,9.572 c -0.116,0.213 -0.213,0.32 -0.29,0.32 -0.039,0 -0.059,-0.087 -0.059,-0.261 v -9.3689 c 0,-0.5801 -0.149,-1.0012 -0.449,-1.2621 -0.3,-0.2622 -0.731,-0.3911 -1.291,-0.3911 h -0.436 c -0.56,0 -0.99,0.1289 -1.29,0.3911 -0.299,0.2609 -0.45,0.682 -0.45,1.2621 v 15.4889 c 0,0.523 0.146,0.929 0.436,1.219" /><path
         id="path40"
         style="fill:#406e1a;fill-opacity:1;fill-rule:nonzero;stroke:none;stroke-width:0.1"
         d="m 343.92,97.2559 -5.048,9.3691 c -0.135,0.271 -0.202,0.513 -0.202,0.726 0,0.328 0.115,0.614 0.347,0.855 0.233,0.242 0.551,0.362 0.957,0.362 h 1.422 c 0.541,0 0.928,-0.139 1.16,-0.42 0.232,-0.281 0.464,-0.653 0.697,-1.117 l 2.842,-5.511 c 0.097,-0.213 0.174,-0.319 0.232,-0.319 0.039,0 0.116,0.106 0.232,0.319 l 2.814,5.598 c 0.213,0.426 0.43,0.774 0.652,1.044 0.223,0.272 0.595,0.406 1.117,0.406 h 1.393 c 0.387,0 0.691,-0.111 0.913,-0.332 0.223,-0.223 0.334,-0.498 0.334,-0.828 0,-0.193 -0.067,-0.424 -0.203,-0.696 l -5.076,-9.4561 c -0.117,-0.2129 -0.174,-0.4258 -0.174,-0.6375 v -5.1352 c 0,-1.1992 -0.619,-1.7973 -1.857,-1.7973 h -0.493 c -1.257,0 -1.886,0.5981 -1.886,1.7973 v 5.1633 c 0,0.2324 -0.057,0.4355 -0.173,0.6094" /><path
         id="path42"
         style="fill:#406e1a;fill-opacity:1;fill-rule:nonzero;stroke:none;stroke-width:0.1"
         d="m 356.397,103.768 c 0.464,1.248 1.078,2.244 1.842,2.988 0.764,0.744 1.644,1.271 2.64,1.581 0.996,0.309 2.025,0.464 3.088,0.464 1.335,0 2.505,-0.194 3.51,-0.58 0.755,-0.233 1.132,-0.657 1.132,-1.277 0,-0.116 -0.019,-0.255 -0.058,-0.421 -0.039,-0.164 -0.107,-0.391 -0.204,-0.681 -0.115,-0.387 -0.27,-0.667 -0.463,-0.841 -0.194,-0.174 -0.484,-0.261 -0.871,-0.261 -0.096,0 -0.198,0.009 -0.304,0.029 -0.107,0.019 -0.208,0.049 -0.305,0.086 -0.754,0.272 -1.508,0.407 -2.263,0.407 -0.676,0 -1.271,-0.092 -1.783,-0.276 -0.513,-0.183 -0.938,-0.507 -1.276,-0.972 -0.339,-0.463 -0.59,-1.092 -0.755,-1.885 -0.164,-0.793 -0.246,-1.798 -0.246,-3.0169 0,-1.1988 0.082,-2.1941 0.246,-2.9871 0.165,-0.793 0.411,-1.4219 0.74,-1.8859 0.328,-0.4641 0.749,-0.793 1.262,-0.986 0.513,-0.1929 1.107,-0.2902 1.784,-0.2902 0.561,0 1.063,0.0492 1.508,0.1449 0.445,0.0973 0.88,0.232 1.305,0.4063 0.155,0.0578 0.291,0.0961 0.407,0.116 0.116,0.0187 0.231,0.0289 0.347,0.0289 0.31,0 0.552,-0.0871 0.726,-0.261 0.174,-0.1742 0.318,-0.416 0.435,-0.725 l 0.116,-0.3191 c 0.058,-0.1738 0.096,-0.3148 0.116,-0.4199 0.019,-0.107 0.029,-0.218 0.029,-0.334 0,-0.2898 -0.101,-0.541 -0.304,-0.7539 -0.204,-0.2129 -0.489,-0.3973 -0.857,-0.552 -0.56,-0.2711 -1.179,-0.4832 -1.856,-0.6382 -0.677,-0.1547 -1.382,-0.2321 -2.118,-0.2321 -1.199,0 -2.3,0.1453 -3.306,0.4352 -1.006,0.2898 -1.876,0.8031 -2.61,1.5371 -0.736,0.7359 -1.311,1.7258 -1.727,2.9738 -0.415,1.2473 -0.623,2.8281 -0.623,4.7422 0,1.8569 0.231,3.4089 0.696,4.6559" /><path
         id="path44"
         style="fill:#406e1a;fill-opacity:1;fill-rule:nonzero;stroke:none;stroke-width:0.1"
         d="m 374.597,108.54 h 0.465 c 1.257,0 1.885,-0.6 1.885,-1.799 v -5.279 c 0,-0.213 0.106,-0.319 0.319,-0.319 h 5.425 c 0.212,0 0.318,0.106 0.318,0.319 v 5.279 c 0,1.199 0.62,1.799 1.857,1.799 h 0.493 c 1.257,0 1.886,-0.6 1.886,-1.799 V 91.4832 c 0,-1.1992 -0.629,-1.7973 -1.886,-1.7973 h -0.493 c -1.237,0 -1.857,0.5981 -1.857,1.7973 v 5.802 c 0,0.2128 -0.106,0.3195 -0.318,0.3195 h -5.425 c -0.213,0 -0.319,-0.1067 -0.319,-0.3195 v -5.802 c 0,-1.1992 -0.628,-1.7973 -1.885,-1.7973 h -0.465 c -1.256,0 -1.884,0.5981 -1.884,1.7973 v 15.2578 c 0,1.199 0.628,1.799 1.884,1.799" /><path
         id="path46"
         style="fill:#406e1a;fill-opacity:1;fill-rule:nonzero;stroke:none;stroke-width:0.1"
         d="m 155.863,70.8922 h 0.155 c 0.624,0 0.936,-0.3043 0.936,-0.9113 v -9.2297 c 0,-1.0742 0.074,-1.9453 0.222,-2.6133 0.147,-0.6668 0.372,-1.1828 0.675,-1.5469 0.304,-0.364 0.694,-0.6109 1.171,-0.741 0.476,-0.1301 1.052,-0.1949 1.729,-0.1949 0.675,0 1.252,0.0699 1.729,0.2078 0.476,0.1391 0.871,0.4031 1.183,0.793 0.312,0.3902 0.537,0.923 0.676,1.5992 0.138,0.6769 0.208,1.5519 0.208,2.6258 v 9.1 c 0,0.607 0.312,0.9113 0.936,0.9113 h 0.156 c 0.624,0 0.936,-0.3043 0.936,-0.9113 V 60.518 c 0,-1.266 -0.126,-2.3282 -0.377,-3.186 -0.251,-0.8582 -0.624,-1.5468 -1.118,-2.0672 -0.494,-0.5199 -1.105,-0.8929 -1.833,-1.1187 -0.728,-0.2242 -1.56,-0.3371 -2.496,-0.3371 -0.954,0 -1.795,0.0992 -2.522,0.2992 -0.729,0.1996 -1.335,0.5457 -1.821,1.0398 -0.485,0.4942 -0.853,1.1571 -1.105,1.9891 -0.251,0.832 -0.377,1.8891 -0.377,3.1731 v 9.6707 c 0,0.607 0.312,0.9113 0.937,0.9113" /><path
         id="path48"
         style="fill:#406e1a;fill-opacity:1;fill-rule:nonzero;stroke:none;stroke-width:0.1"
         d="m 171.832,66.7309 h 0.156 c 0.26,0 0.45,-0.0649 0.572,-0.195 0.121,-0.13 0.19,-0.2988 0.208,-0.507 l 0.078,-1.118 c 0,-0.1211 0.026,-0.182 0.078,-0.182 0.052,0 0.112,0.0609 0.182,0.182 0.762,1.2832 1.872,1.925 3.328,1.925 1.387,0 2.396,-0.3558 3.029,-1.066 0.632,-0.7109 0.949,-1.8301 0.949,-3.3551 V 54.875 c 0,-0.5898 -0.295,-0.884 -0.884,-0.884 h -0.156 c -0.607,0 -0.91,0.2942 -0.91,0.884 v 7.0211 c 0,0.5711 -0.035,1.0699 -0.104,1.4949 -0.07,0.4238 -0.195,0.7711 -0.377,1.0399 -0.182,0.2679 -0.438,0.4671 -0.767,0.5972 -0.33,0.1301 -0.754,0.1957 -1.274,0.1957 -0.676,0 -1.265,-0.2468 -1.768,-0.7418 -0.503,-0.4941 -0.884,-1.0699 -1.144,-1.7289 -0.07,-0.173 -0.104,-0.3121 -0.104,-0.416 V 54.875 c 0,-0.5898 -0.304,-0.884 -0.91,-0.884 h -0.13 c -0.607,0 -0.91,0.2942 -0.91,0.884 v 11.0238 c 0,0.5551 0.285,0.8321 0.858,0.8321" /><path
         id="path50"
         style="fill:#406e1a;fill-opacity:1;fill-rule:nonzero;stroke:none;stroke-width:0.1"
         d="m 185.471,66.6531 h 0.13 c 0.607,0 0.91,-0.2949 0.91,-0.8832 V 54.875 c 0,-0.5898 -0.303,-0.884 -0.91,-0.884 h -0.13 c -0.607,0 -0.91,0.2942 -0.91,0.884 v 10.8949 c 0,0.5883 0.303,0.8832 0.91,0.8832 z m -0.806,2.8481 c -0.225,0.1816 -0.338,0.507 -0.338,0.975 0,0.4668 0.113,0.7886 0.338,0.9609 0.225,0.1738 0.52,0.2598 0.884,0.2598 0.347,0 0.637,-0.086 0.871,-0.2598 0.234,-0.1723 0.351,-0.4941 0.351,-0.9609 0,-0.468 -0.117,-0.7934 -0.351,-0.975 -0.234,-0.1832 -0.524,-0.2731 -0.871,-0.2731 -0.364,0 -0.659,0.0899 -0.884,0.2731" /><path
         id="path52"
         style="fill:#406e1a;fill-opacity:1;fill-rule:nonzero;stroke:none;stroke-width:0.1"
         d="m 189.647,66.0039 v 0.1551 c 0,0.139 0.043,0.2558 0.13,0.3519 0.086,0.0942 0.225,0.1422 0.416,0.1422 h 0.675 c 0.382,0 0.624,-0.225 0.728,-0.675 l 2.445,-9.5953 c 0.017,-0.1039 0.034,-0.1687 0.051,-0.1949 0.018,-0.0258 0.035,-0.0391 0.053,-0.0391 l 0.026,0.0262 0.078,0.2078 2.6,8.9442 c 0.069,0.191 0.156,0.3429 0.26,0.455 0.104,0.1141 0.277,0.1692 0.52,0.1692 h 0.546 c 0.242,0 0.42,-0.0551 0.533,-0.1692 0.113,-0.1121 0.195,-0.264 0.247,-0.455 l 2.704,-8.918 c 0.035,-0.1039 0.06,-0.1692 0.078,-0.1949 0.017,-0.0262 0.035,-0.0391 0.052,-0.0391 l 0.026,0.0262 0.078,0.2078 2.392,9.5691 c 0.052,0.2418 0.13,0.416 0.234,0.5188 0.104,0.1051 0.269,0.1562 0.494,0.1562 h 0.624 c 0.191,0 0.325,-0.048 0.403,-0.1422 0.078,-0.0961 0.117,-0.2039 0.117,-0.325 0,-0.0871 -0.017,-0.2 -0.052,-0.3379 l -2.886,-11.1808 c -0.069,-0.2262 -0.173,-0.4031 -0.312,-0.5332 -0.139,-0.1301 -0.356,-0.1949 -0.65,-0.1949 h -0.78 c -0.295,0 -0.516,0.0648 -0.663,0.1949 -0.147,0.1301 -0.256,0.316 -0.325,0.559 l -2.548,8.4761 c -0.052,0.1219 -0.087,0.1829 -0.104,0.1829 -0.035,0 -0.078,-0.061 -0.13,-0.1829 l -2.47,-8.5019 c -0.07,-0.2262 -0.169,-0.4031 -0.299,-0.5332 -0.13,-0.1301 -0.343,-0.1949 -0.637,-0.1949 h -0.78 c -0.278,0 -0.486,0.0648 -0.624,0.1949 -0.139,0.1301 -0.243,0.316 -0.312,0.559 l -2.887,11.1281 c -0.034,0.0871 -0.051,0.148 -0.051,0.1828" /><path
         id="path54"
         style="fill:#406e1a;fill-opacity:1;fill-rule:nonzero;stroke:none;stroke-width:0.1"
         d="m 215.979,61.8172 v 0.3898 c 0,0.9711 -0.186,1.7301 -0.559,2.275 -0.372,0.5461 -1.027,0.82 -1.963,0.82 -1.716,0 -2.73,-0.9461 -3.042,-2.8348 -0.035,-0.1391 -0.061,-0.2731 -0.078,-0.4031 -0.017,-0.1289 -0.026,-0.22 -0.026,-0.2731 0,-0.1039 0.061,-0.1558 0.182,-0.1558 h 5.278 c 0.139,0 0.208,0.0609 0.208,0.182 z m -7.358,1.1699 c 0.225,0.7981 0.563,1.4828 1.014,2.0539 0.451,0.5719 1.005,1.0149 1.664,1.3262 0.659,0.3129 1.43,0.4687 2.314,0.4687 0.746,0 1.382,-0.1218 1.911,-0.364 0.529,-0.243 0.962,-0.5809 1.3,-1.0149 0.338,-0.4332 0.585,-0.948 0.741,-1.5468 0.156,-0.5981 0.234,-1.252 0.234,-1.9633 v -0.5457 c 0,-0.2082 -0.008,-0.4071 -0.026,-0.5981 -0.017,-0.191 -0.091,-0.3511 -0.221,-0.4812 -0.13,-0.1297 -0.29,-0.1949 -0.48,-0.1949 h -6.631 c -0.121,0 -0.182,-0.061 -0.182,-0.1821 0,-1.5769 0.277,-2.716 0.832,-3.4187 0.555,-0.7024 1.5,-1.0532 2.834,-1.0532 0.607,0 1.123,0.095 1.547,0.286 0.425,0.1898 0.81,0.416 1.157,0.6769 0.139,0.0852 0.269,0.1289 0.39,0.1289 0.208,0 0.39,-0.1128 0.546,-0.3378 l 0.052,-0.0782 c 0.104,-0.1379 0.156,-0.2769 0.156,-0.4156 0,-0.1383 -0.03,-0.2523 -0.091,-0.3383 -0.06,-0.0859 -0.152,-0.173 -0.273,-0.2597 -0.503,-0.3813 -1.048,-0.6981 -1.638,-0.9493 -0.589,-0.2507 -1.3,-0.3769 -2.132,-0.3769 -0.988,0 -1.824,0.1609 -2.509,0.4808 -0.684,0.3204 -1.235,0.7672 -1.651,1.3391 -0.416,0.5723 -0.72,1.257 -0.91,2.0551 -0.191,0.7961 -0.286,1.6711 -0.286,2.6262 0,0.9867 0.113,1.8789 0.338,2.6769" /><path
         id="path56"
         style="fill:#406e1a;fill-opacity:1;fill-rule:nonzero;stroke:none;stroke-width:0.1"
         d="m 221.59,66.4969 c 0.147,0.1562 0.341,0.234 0.585,0.234 h 0.26 c 0.45,0 0.701,-0.286 0.754,-0.8579 l 0.077,-1.1171 c 0,-0.1387 0.035,-0.209 0.105,-0.209 0.035,0 0.069,0.0351 0.103,0.1043 0.382,0.7277 0.841,1.275 1.378,1.6379 0.537,0.364 1.127,0.5468 1.769,0.5468 0.416,0 0.719,-0.0527 0.91,-0.1558 0.19,-0.1051 0.285,-0.286 0.285,-0.5461 0,-0.0699 -0.004,-0.1559 -0.013,-0.261 -0.008,-0.1031 -0.021,-0.1992 -0.039,-0.2851 -0.034,-0.2949 -0.12,-0.4899 -0.259,-0.5859 -0.139,-0.095 -0.303,-0.143 -0.495,-0.143 -0.086,0 -0.186,0.0039 -0.298,0.0129 -0.113,0.009 -0.239,0.014 -0.377,0.014 -1.283,0 -2.253,-0.7718 -2.912,-2.3148 -0.07,-0.1383 -0.104,-0.268 -0.104,-0.3891 v -7.307 c 0,-0.5898 -0.304,-0.884 -0.911,-0.884 h -0.13 c -0.605,0 -0.909,0.2942 -0.909,0.884 v 11.0512 c 0,0.2238 0.073,0.416 0.221,0.5707" /><path
         id="path58"
         style="fill:#406e1a;fill-opacity:1;fill-rule:nonzero;stroke:none;stroke-width:0.1"
         d="m 229.875,55.577 c 0.104,0.3289 0.312,0.4941 0.624,0.4941 0.07,0 0.175,-0.0172 0.312,-0.0512 0.4,-0.139 0.841,-0.2777 1.326,-0.416 0.486,-0.1391 1.024,-0.209 1.613,-0.209 0.779,0 1.382,0.161 1.806,0.4813 0.425,0.3199 0.638,0.8109 0.638,1.4687 0,0.5199 -0.148,0.9153 -0.442,1.1832 -0.295,0.2688 -0.772,0.5071 -1.431,0.7149 l -1.352,0.4429 c -0.867,0.277 -1.594,0.684 -2.183,1.2211 -0.59,0.5371 -0.884,1.3 -0.884,2.2879 0,1.075 0.363,1.9512 1.092,2.6262 0.727,0.6758 1.776,1.0148 3.145,1.0148 0.417,0 0.88,-0.0437 1.392,-0.1308 0.511,-0.086 0.967,-0.2082 1.364,-0.3629 0.348,-0.1223 0.521,-0.3383 0.521,-0.6512 0,-0.0512 -0.014,-0.134 -0.039,-0.2469 -0.027,-0.1121 -0.057,-0.2121 -0.091,-0.298 -0.069,-0.1742 -0.143,-0.291 -0.221,-0.352 -0.079,-0.0609 -0.195,-0.091 -0.351,-0.091 -0.104,0 -0.208,0.0219 -0.312,0.066 -0.104,0.043 -0.226,0.0821 -0.364,0.1168 -0.295,0.086 -0.594,0.1692 -0.898,0.2469 -0.303,0.0774 -0.645,0.116 -1.026,0.116 -0.313,0 -0.611,-0.025 -0.897,-0.0769 -0.287,-0.0528 -0.538,-0.1481 -0.754,-0.286 -0.217,-0.139 -0.39,-0.325 -0.521,-0.5597 -0.13,-0.2332 -0.194,-0.5332 -0.194,-0.8961 0,-0.3129 0.047,-0.5813 0.142,-0.8071 0.096,-0.225 0.239,-0.416 0.429,-0.5718 0.191,-0.1551 0.43,-0.2942 0.716,-0.416 0.285,-0.1211 0.619,-0.2422 1.001,-0.3641 l 1.247,-0.416 c 0.832,-0.277 1.518,-0.659 2.055,-1.1442 0.537,-0.4847 0.806,-1.1879 0.806,-2.1058 0,-1.2313 -0.399,-2.1711 -1.196,-2.8211 -0.798,-0.65 -1.881,-0.975 -3.25,-0.975 -0.642,0 -1.244,0.0601 -1.808,0.182 -0.563,0.1211 -1.045,0.2602 -1.442,0.416 -0.278,0.1039 -0.46,0.2032 -0.546,0.2989 -0.087,0.0961 -0.131,0.23 -0.131,0.4031 0,0.1039 0.035,0.2601 0.104,0.468" /><path
         id="path60"
         style="fill:#406e1a;fill-opacity:1;fill-rule:nonzero;stroke:none;stroke-width:0.1"
         d="m 242.303,50.7801 c 0.165,-0.0442 0.36,-0.0653 0.585,-0.0653 0.26,0 0.498,0.0961 0.715,0.2864 0.217,0.1898 0.411,0.5629 0.586,1.1179 l 0.442,1.3778 c 0.034,0.0871 0.055,0.1652 0.064,0.2332 0.009,0.0711 0.013,0.157 0.013,0.2609 0,0.0871 -0.034,0.2078 -0.104,0.3641 l -4.316,11.2578 c -0.052,0.1391 -0.086,0.2519 -0.104,0.3383 -0.017,0.0867 -0.026,0.1558 -0.026,0.2078 0,0.1219 0.048,0.2351 0.143,0.3379 0.095,0.1051 0.239,0.1562 0.429,0.1562 h 0.677 c 0.225,0 0.394,-0.0562 0.506,-0.1691 0.113,-0.1121 0.213,-0.2809 0.299,-0.5059 l 3.328,-8.8929 c 0.052,-0.1563 0.095,-0.2332 0.131,-0.2332 0.051,0 0.094,0.0769 0.13,0.2332 l 2.574,8.9187 c 0.051,0.207 0.134,0.368 0.247,0.4801 0.112,0.1129 0.29,0.1691 0.532,0.1691 h 0.599 c 0.191,0 0.333,-0.048 0.428,-0.1422 0.096,-0.0961 0.143,-0.2129 0.143,-0.3519 v -0.1301 c 0,-0.034 -0.017,-0.0949 -0.051,-0.1809 l -4.186,-13.6511 c -0.157,-0.5199 -0.322,-0.9699 -0.495,-1.352 -0.173,-0.3808 -0.373,-0.7019 -0.598,-0.9621 -0.225,-0.2598 -0.494,-0.4508 -0.805,-0.5719 -0.312,-0.1218 -0.703,-0.182 -1.171,-0.182 -0.432,0 -0.857,0.052 -1.274,0.1563 -0.329,0.0687 -0.494,0.2597 -0.494,0.5707 v 0.1832 c 0,0.0859 0.018,0.182 0.052,0.2859 0.087,0.3469 0.278,0.5199 0.572,0.5199 0.122,0 0.265,-0.0219 0.429,-0.0648" /><path
         id="path62"
         style="fill:#406e1a;fill-opacity:1;fill-rule:nonzero;stroke:none;stroke-width:0.1"
         d="m 254.079,65.041 h -0.832 c -0.156,0 -0.29,0.057 -0.404,0.1692 -0.112,0.1128 -0.168,0.273 -0.168,0.4808 v 0.1301 c 0,0.2078 0.056,0.3769 0.168,0.507 0.114,0.1297 0.256,0.2129 0.43,0.2469 l 0.858,0.1828 c 0.156,0.016 0.251,0.1121 0.286,0.2852 l 0.311,1.7691 c 0.14,0.45 0.416,0.675 0.832,0.675 h 0.105 c 0.433,0 0.65,-0.2082 0.65,-0.6242 v -2.027 c 0,-0.1558 0.069,-0.2339 0.208,-0.2339 h 2.652 c 0.468,0 0.703,-0.2438 0.703,-0.729 v -0.13 c 0,-0.468 -0.235,-0.702 -0.703,-0.702 h -2.678 c -0.156,0 -0.235,-0.0781 -0.235,-0.2332 v -7.7226 c 0,-0.693 0.149,-1.1403 0.443,-1.3391 0.294,-0.1992 0.684,-0.2992 1.17,-0.2992 0.398,0 0.754,0.1133 1.065,0.3383 0.087,0.0687 0.175,0.1257 0.261,0.1687 0.086,0.043 0.173,0.066 0.26,0.066 0.225,0 0.399,-0.1308 0.52,-0.391 0.069,-0.191 0.105,-0.3469 0.105,-0.468 0,-0.2429 -0.131,-0.4418 -0.391,-0.5988 -0.693,-0.5012 -1.543,-0.7531 -2.549,-0.7531 -0.866,0 -1.555,0.2301 -2.066,0.689 -0.511,0.459 -0.768,1.1399 -0.768,2.0411 v 8.2687 c 0,0.1551 -0.077,0.2332 -0.233,0.2332" /><path
         id="path64"
         style="fill:#406e1a;fill-opacity:1;fill-rule:nonzero;stroke:none;stroke-width:0.1"
         d="m 269.777,61.8172 v 0.3898 c 0,0.9711 -0.186,1.7301 -0.559,2.275 -0.373,0.5461 -1.027,0.82 -1.962,0.82 -1.716,0 -2.731,-0.9461 -3.043,-2.8348 -0.035,-0.1391 -0.061,-0.2731 -0.078,-0.4031 -0.017,-0.1289 -0.025,-0.22 -0.025,-0.2731 0,-0.1039 0.06,-0.1558 0.181,-0.1558 h 5.278 c 0.139,0 0.208,0.0609 0.208,0.182 z m -7.358,1.1699 c 0.225,0.7981 0.563,1.4828 1.014,2.0539 0.451,0.5719 1.006,1.0149 1.664,1.3262 0.66,0.3129 1.43,0.4687 2.314,0.4687 0.746,0 1.383,-0.1218 1.912,-0.364 0.528,-0.243 0.962,-0.5809 1.3,-1.0149 0.338,-0.4332 0.585,-0.948 0.74,-1.5468 0.156,-0.5981 0.234,-1.252 0.234,-1.9633 v -0.5457 c 0,-0.2082 -0.008,-0.4071 -0.026,-0.5981 -0.017,-0.191 -0.091,-0.3511 -0.221,-0.4812 -0.13,-0.1297 -0.29,-0.1949 -0.481,-0.1949 h -6.629 c -0.122,0 -0.183,-0.061 -0.183,-0.1821 0,-1.5769 0.278,-2.716 0.832,-3.4187 0.555,-0.7024 1.5,-1.0532 2.834,-1.0532 0.608,0 1.122,0.095 1.547,0.286 0.425,0.1898 0.811,0.416 1.157,0.6769 0.139,0.0852 0.269,0.1289 0.39,0.1289 0.208,0 0.391,-0.1128 0.546,-0.3378 l 0.053,-0.0782 c 0.103,-0.1379 0.155,-0.2769 0.155,-0.4156 0,-0.1383 -0.03,-0.2523 -0.091,-0.3383 -0.06,-0.0859 -0.151,-0.173 -0.272,-0.2597 -0.503,-0.3813 -1.049,-0.6981 -1.639,-0.9493 -0.589,-0.2507 -1.3,-0.3769 -2.132,-0.3769 -0.988,0 -1.824,0.1609 -2.509,0.4808 -0.684,0.3204 -1.234,0.7672 -1.651,1.3391 -0.416,0.5723 -0.72,1.257 -0.909,2.0551 -0.192,0.7961 -0.286,1.6711 -0.286,2.6262 0,0.9867 0.112,1.8789 0.337,2.6769" /><path
         id="path66"
         style="fill:#406e1a;fill-opacity:1;fill-rule:nonzero;stroke:none;stroke-width:0.1"
         d="m 275.309,65.041 h -0.832 c -0.156,0 -0.29,0.057 -0.403,0.1692 -0.112,0.1128 -0.169,0.273 -0.169,0.4808 v 0.1301 c 0,0.2078 0.057,0.3769 0.169,0.507 0.113,0.1297 0.256,0.2129 0.43,0.2469 l 0.857,0.1828 c 0.156,0.016 0.252,0.1121 0.286,0.2852 l 0.313,1.7691 c 0.138,0.45 0.416,0.675 0.832,0.675 h 0.103 c 0.434,0 0.651,-0.2082 0.651,-0.6242 v -2.027 c 0,-0.1558 0.069,-0.2339 0.208,-0.2339 h 2.652 c 0.468,0 0.701,-0.2438 0.701,-0.729 v -0.13 c 0,-0.468 -0.233,-0.702 -0.701,-0.702 h -2.679 c -0.156,0 -0.233,-0.0781 -0.233,-0.2332 v -7.7226 c 0,-0.693 0.146,-1.1403 0.441,-1.3391 0.295,-0.1992 0.685,-0.2992 1.17,-0.2992 0.4,0 0.754,0.1133 1.067,0.3383 0.087,0.0687 0.172,0.1257 0.259,0.1687 0.087,0.043 0.174,0.066 0.26,0.066 0.226,0 0.4,-0.1308 0.521,-0.391 0.069,-0.191 0.103,-0.3469 0.103,-0.468 0,-0.2429 -0.13,-0.4418 -0.389,-0.5988 -0.694,-0.5012 -1.543,-0.7531 -2.548,-0.7531 -0.868,0 -1.556,0.2301 -2.068,0.689 -0.51,0.459 -0.766,1.1399 -0.766,2.0411 v 8.2687 c 0,0.1551 -0.078,0.2332 -0.235,0.2332" /><path
         id="path68"
         style="fill:#406e1a;fill-opacity:1;fill-rule:nonzero;stroke:none;stroke-width:0.1"
         d="m 291.377,61.0891 c -0.07,0 -0.139,-0.034 -0.208,-0.1039 l -0.781,-0.5204 c -0.121,-0.0687 -0.215,-0.116 -0.285,-0.1429 -0.069,-0.0258 -0.156,-0.0387 -0.261,-0.0387 -0.172,0 -0.32,0.1039 -0.441,0.3129 -0.122,0.207 -0.183,0.398 -0.183,0.5711 0,0.2258 0.114,0.3988 0.338,0.5199 l 1.821,1.1957 c 0.069,0.0352 0.104,0.1133 0.104,0.2344 v 6.8637 c 0,0.607 0.312,0.9113 0.936,0.9113 h 0.182 c 0.624,0 0.936,-0.3043 0.936,-0.9113 V 64.6 c 0,-0.1211 0.026,-0.1918 0.078,-0.2078 0.034,0 0.104,0.034 0.208,0.1027 l 1.43,0.9883 c 0.156,0.1047 0.286,0.1566 0.39,0.1566 0.208,0 0.386,-0.1 0.534,-0.2988 0.146,-0.2 0.22,-0.4121 0.22,-0.6379 0,-0.1902 -0.104,-0.3472 -0.312,-0.4679 l -2.444,-1.6122 c -0.069,-0.0519 -0.104,-0.1468 -0.104,-0.2859 v -6.266 c 0,-0.1383 0.078,-0.2082 0.234,-0.2082 h 6.266 c 0.52,0 0.78,-0.277 0.78,-0.832 V 54.875 c 0,-0.5551 -0.26,-0.832 -0.78,-0.832 h -7.748 c -0.242,0 -0.438,0.073 -0.585,0.2211 -0.148,0.1468 -0.221,0.3418 -0.221,0.5847 v 6.0582 c 0,0.1211 -0.035,0.1821 -0.104,0.1821" /><path
         id="path70"
         style="fill:#406e1a;fill-opacity:1;fill-rule:nonzero;stroke:none;stroke-width:0.1"
         d="m 305.508,69.1488 v 0.1301 c 0,0.1922 0.035,0.3383 0.104,0.443 0.069,0.1031 0.208,0.216 0.416,0.3383 l 3.822,2.0019 c 0.173,0.0859 0.303,0.1289 0.39,0.1289 0.329,0 0.494,-0.216 0.494,-0.6488 v -0.2613 c 0,-0.2418 -0.048,-0.45 -0.142,-0.6239 -0.096,-0.173 -0.283,-0.3109 -0.56,-0.416 l -3.692,-1.4289 c -0.208,-0.0871 -0.364,-0.1301 -0.468,-0.1301 -0.242,0 -0.364,0.1559 -0.364,0.4668 z M 310.539,56.5 c 0.547,0.7359 0.819,2.007 0.819,3.8102 0,1.8187 -0.272,3.0929 -0.819,3.8207 -0.546,0.7281 -1.364,1.0929 -2.457,1.0929 -1.11,0 -1.937,-0.3648 -2.483,-1.0929 -0.546,-0.7278 -0.819,-2.002 -0.819,-3.8207 0,-1.8032 0.273,-3.0743 0.819,-3.8102 0.546,-0.7359 1.373,-1.1051 2.483,-1.1051 1.093,0 1.911,0.3692 2.457,1.1051 z m -7.32,6.9301 c 0.313,0.832 0.72,1.4988 1.223,2.0019 0.503,0.502 1.07,0.8621 1.703,1.0789 0.633,0.2172 1.279,0.325 1.937,0.325 0.728,0 1.417,-0.105 2.067,-0.3129 0.651,-0.2082 1.214,-0.5628 1.691,-1.066 0.476,-0.5019 0.853,-1.1738 1.13,-2.0148 0.278,-0.8402 0.416,-1.8844 0.416,-3.132 0,-1.2321 -0.156,-2.2633 -0.467,-3.0954 -0.313,-0.832 -0.716,-1.4988 -1.209,-2.0019 -0.494,-0.5027 -1.063,-0.8617 -1.703,-1.0789 -0.642,-0.2168 -1.284,-0.325 -1.925,-0.325 -0.745,0 -1.443,0.1039 -2.093,0.3121 -0.65,0.2078 -1.213,0.559 -1.69,1.0527 -0.477,0.4942 -0.854,1.1614 -1.131,2.0024 -0.278,0.841 -0.416,1.8859 -0.416,3.134 0,1.2476 0.156,2.2878 0.467,3.1199" /><path
         id="path72"
         style="fill:#406e1a;fill-opacity:1;fill-rule:nonzero;stroke:none;stroke-width:0.1"
         d="m 322.827,55.8238 c 0.468,0.2692 0.866,0.6032 1.195,1.0012 0.105,0.1039 0.156,0.2422 0.156,0.416 v 7.202 c 0,0.191 -0.069,0.3129 -0.208,0.3648 -0.38,0.1551 -0.796,0.2723 -1.248,0.3504 -0.45,0.0777 -0.875,0.1168 -1.273,0.1168 -0.503,0 -0.958,-0.0602 -1.365,-0.1809 -0.408,-0.1222 -0.759,-0.3562 -1.054,-0.7019 -0.294,-0.3473 -0.523,-0.841 -0.688,-1.4832 -0.166,-0.641 -0.248,-1.4899 -0.248,-2.5481 0,-0.832 0.048,-1.555 0.143,-2.1711 0.096,-0.6148 0.27,-1.1269 0.521,-1.5339 0.251,-0.4071 0.584,-0.7149 1.001,-0.9227 0.416,-0.2082 0.935,-0.3121 1.559,-0.3121 0.538,0 1.04,0.1348 1.509,0.4027 z m -3.822,-1.7027 c -0.59,0.2078 -1.101,0.559 -1.535,1.0527 -0.433,0.4942 -0.771,1.1481 -1.013,1.9633 -0.243,0.8149 -0.365,1.8379 -0.365,3.068 0,2.2539 0.456,3.9179 1.366,4.9918 0.91,1.075 2.249,1.6133 4.016,1.6133 0.452,0 0.85,-0.0223 1.197,-0.0661 0.346,-0.0429 0.684,-0.0992 1.013,-0.1691 0.174,-0.052 0.295,-0.0781 0.365,-0.0781 0.086,0 0.129,0.0781 0.129,0.234 v 4.7332 c 0,0.589 0.304,0.8839 0.911,0.8839 h 0.129 c 0.607,0 0.911,-0.2949 0.911,-0.8839 V 54.641 c 0,-0.5019 -0.251,-0.7539 -0.754,-0.7539 h -0.208 c -0.451,0 -0.694,0.1988 -0.729,0.5981 l -0.052,0.65 c 0,0.1207 -0.034,0.182 -0.103,0.182 -0.035,0 -0.087,-0.0352 -0.156,-0.1043 -0.329,-0.3641 -0.767,-0.6891 -1.314,-0.975 -0.546,-0.2859 -1.174,-0.4289 -1.885,-0.4289 -0.693,0 -1.335,0.1039 -1.923,0.3121" /><path
         id="path74"
         style="fill:#406e1a;fill-opacity:1;fill-rule:nonzero;stroke:none;stroke-width:0.1"
         d="m 329.332,55.3559 c 0.069,0.1472 0.147,0.2992 0.234,0.455 l 5.824,8.8403 c 0.086,0.1207 0.13,0.2168 0.13,0.2859 0,0.0699 -0.053,0.1039 -0.156,0.1039 h -5.227 c -0.208,0 -0.38,0.061 -0.519,0.1828 -0.139,0.1211 -0.208,0.2864 -0.208,0.4942 v 0.1808 c 0,0.2262 0.069,0.3992 0.208,0.5211 0.139,0.1211 0.311,0.1821 0.519,0.1821 h 7.255 c 0.191,0 0.338,-0.061 0.442,-0.1821 0.104,-0.1219 0.156,-0.2769 0.156,-0.4687 v -0.1301 c 0,-0.3461 -0.112,-0.684 -0.338,-1.0133 l -5.851,-8.8406 c -0.085,-0.1391 -0.129,-0.225 -0.129,-0.2602 0,-0.0691 0.044,-0.1031 0.129,-0.1031 h 5.929 c 0.45,0 0.676,-0.2258 0.676,-0.6769 v -0.2079 c 0,-0.45 -0.226,-0.6761 -0.676,-0.6761 h -7.879 c -0.19,0 -0.342,0.057 -0.454,0.1691 -0.113,0.1117 -0.17,0.2649 -0.17,0.4551 v 0.1816 c 0,0.191 0.035,0.3602 0.105,0.5071" /><path
         id="path76"
         style="fill:#406e1a;fill-opacity:1;fill-rule:nonzero;stroke:none;stroke-width:0.1"
         d="m 342.388,72.348 h 0.13 c 0.608,0 0.91,-0.2949 0.91,-0.8839 V 61.609 c 0,-0.1039 0.036,-0.1559 0.105,-0.1559 0.018,0 0.095,0.0258 0.233,0.0778 l 1.171,0.4679 c 0.086,0.0352 0.152,0.0692 0.195,0.1051 0.044,0.034 0.09,0.0852 0.143,0.1563 l 3.094,3.7957 c 0.139,0.1902 0.277,0.3293 0.416,0.416 0.139,0.0871 0.329,0.1301 0.572,0.1301 h 0.624 c 0.329,0 0.494,-0.1481 0.494,-0.443 0,-0.0871 -0.03,-0.186 -0.091,-0.2988 -0.061,-0.1122 -0.177,-0.2723 -0.351,-0.4813 l -3.147,-3.9258 c -0.069,-0.0871 -0.103,-0.173 -0.103,-0.2601 0,-0.0348 0.034,-0.1129 0.103,-0.234 l 4.057,-6.136 c 0.069,-0.0871 0.104,-0.1902 0.104,-0.3121 0,-0.139 -0.047,-0.2597 -0.143,-0.3648 -0.096,-0.1031 -0.238,-0.1551 -0.429,-0.1551 h -0.598 c -0.502,0 -0.867,0.191 -1.092,0.5711 l -3.588,5.4867 c -0.069,0.1043 -0.13,0.1563 -0.183,0.1563 -0.069,0 -0.146,-0.018 -0.233,-0.052 l -1.145,-0.416 c -0.138,-0.0512 -0.208,-0.1562 -0.208,-0.3121 v -4.55 c 0,-0.5898 -0.302,-0.884 -0.91,-0.884 h -0.13 c -0.606,0 -0.91,0.2942 -0.91,0.884 v 16.5891 c 0,0.589 0.304,0.8839 0.91,0.8839" /><path
         id="path78"
         style="fill:#406e1a;fill-opacity:1;fill-rule:nonzero;stroke:none;stroke-width:0.1"
         d="m 354.967,66.6531 h 0.13 c 0.607,0 0.911,-0.2949 0.911,-0.8832 V 54.875 c 0,-0.5898 -0.304,-0.884 -0.911,-0.884 h -0.13 c -0.606,0 -0.91,0.2942 -0.91,0.884 v 10.8949 c 0,0.5883 0.304,0.8832 0.91,0.8832 z m -0.805,2.8481 c -0.226,0.1816 -0.339,0.507 -0.339,0.975 0,0.4668 0.113,0.7886 0.339,0.9609 0.224,0.1738 0.519,0.2598 0.884,0.2598 0.346,0 0.636,-0.086 0.871,-0.2598 0.233,-0.1723 0.35,-0.4941 0.35,-0.9609 0,-0.468 -0.117,-0.7934 -0.35,-0.975 -0.235,-0.1832 -0.525,-0.2731 -0.871,-0.2731 -0.365,0 -0.66,0.0899 -0.884,0.2731" /><path
         id="path80"
         style="fill:#406e1a;fill-opacity:1;fill-rule:nonzero;stroke:none;stroke-width:0.1"
         d="m 151.264,139.821 c 0,0.349 0.097,0.644 0.29,0.885 0.193,0.242 0.512,0.362 0.957,0.362 h 1.45 c 0.503,0 0.885,-0.134 1.146,-0.406 0.261,-0.27 0.45,-0.648 0.566,-1.131 l 2.697,-10.791 c 0.039,-0.193 0.097,-0.29 0.175,-0.29 0.038,0 0.087,0.097 0.145,0.29 l 3.074,11.024 c 0.097,0.367 0.281,0.667 0.551,0.898 0.271,0.233 0.6,0.349 0.986,0.349 h 1.393 c 0.387,0 0.725,-0.116 1.015,-0.349 0.29,-0.231 0.484,-0.531 0.58,-0.898 l 3.104,-11.024 c 0.058,-0.193 0.126,-0.29 0.203,-0.29 0.058,0 0.106,0.097 0.145,0.29 l 2.698,10.821 c 0.116,0.483 0.304,0.855 0.566,1.116 0.26,0.262 0.642,0.391 1.145,0.391 h 1.335 c 0.425,0 0.73,-0.115 0.913,-0.347 0.184,-0.233 0.276,-0.523 0.276,-0.87 0,-0.213 -0.029,-0.446 -0.087,-0.697 l -4.235,-15.634 c -0.116,-0.426 -0.324,-0.769 -0.624,-1.031 -0.3,-0.26 -0.711,-0.391 -1.233,-0.391 h -1.653 c -0.503,0 -0.914,0.131 -1.233,0.391 -0.319,0.262 -0.537,0.605 -0.653,1.031 l -2.9,10.21 c -0.058,0.232 -0.116,0.348 -0.174,0.348 -0.059,0 -0.116,-0.116 -0.174,-0.348 l -2.814,-10.268 c -0.097,-0.388 -0.3,-0.711 -0.609,-0.973 -0.31,-0.26 -0.715,-0.391 -1.218,-0.391 h -1.538 c -0.502,0 -0.914,0.131 -1.232,0.391 -0.32,0.262 -0.528,0.585 -0.624,0.973 l -4.293,15.663 c -0.078,0.232 -0.116,0.464 -0.116,0.696" /><path
         id="path82"
         style="fill:#406e1a;fill-opacity:1;fill-rule:nonzero;stroke:none;stroke-width:0.1"
         d="m 184.788,129.756 -5.047,9.369 c -0.135,0.271 -0.203,0.513 -0.203,0.726 0,0.328 0.116,0.614 0.348,0.855 0.232,0.242 0.551,0.362 0.957,0.362 h 1.422 c 0.541,0 0.928,-0.139 1.16,-0.42 0.232,-0.281 0.464,-0.653 0.696,-1.117 l 2.843,-5.511 c 0.097,-0.213 0.174,-0.319 0.232,-0.319 0.039,0 0.116,0.106 0.232,0.319 l 2.814,5.598 c 0.212,0.426 0.43,0.774 0.652,1.044 0.223,0.272 0.595,0.406 1.117,0.406 h 1.393 c 0.386,0 0.691,-0.111 0.913,-0.332 0.223,-0.223 0.334,-0.498 0.334,-0.828 0,-0.193 -0.068,-0.424 -0.204,-0.696 l -5.076,-9.456 c -0.115,-0.213 -0.174,-0.426 -0.174,-0.638 v -5.134 c 0,-1.2 -0.618,-1.798 -1.856,-1.798 h -0.493 c -1.257,0 -1.885,0.598 -1.885,1.798 v 5.162 c 0,0.233 -0.058,0.436 -0.175,0.61" /><path
         id="path84"
         style="fill:#406e1a;fill-opacity:1;fill-rule:nonzero;stroke:none;stroke-width:0.1"
         d="m 202.371,125.753 h 0.899 c 0.716,0 1.364,0.062 1.944,0.188 0.58,0.127 1.078,0.392 1.493,0.798 0.416,0.407 0.735,0.997 0.958,1.77 0.222,0.773 0.333,1.807 0.333,3.104 0,1.295 -0.111,2.33 -0.333,3.103 -0.223,0.773 -0.542,1.363 -0.958,1.77 -0.415,0.406 -0.913,0.671 -1.493,0.797 -0.58,0.126 -1.228,0.189 -1.944,0.189 h -0.899 c -0.232,0 -0.348,-0.097 -0.348,-0.29 v -11.11 c 0,-0.213 0.116,-0.319 0.348,-0.319 z m -4.148,14.794 c 0.29,0.29 0.677,0.434 1.16,0.434 h 4.641 c 1.083,0 2.128,-0.139 3.133,-0.42 1.006,-0.281 1.895,-0.774 2.669,-1.479 0.773,-0.706 1.392,-1.663 1.856,-2.872 0.464,-1.209 0.696,-2.741 0.696,-4.597 0,-1.857 -0.232,-3.39 -0.696,-4.599 -0.464,-1.207 -1.083,-2.166 -1.856,-2.87 -0.774,-0.706 -1.663,-1.2 -2.669,-1.48 -1.005,-0.28 -2.05,-0.421 -3.133,-0.421 h -4.641 c -0.483,0 -0.87,0.146 -1.16,0.436 -0.29,0.29 -0.435,0.676 -0.435,1.16 v 15.548 c 0,0.483 0.145,0.87 0.435,1.16" /><path
         id="path86"
         style="fill:#406e1a;fill-opacity:1;fill-rule:nonzero;stroke:none;stroke-width:0.1"
         d="m 215.362,125.071 c 0.125,0.339 0.294,0.682 0.507,1.031 l 6.7,10.963 c 0.059,0.097 0.092,0.161 0.102,0.189 0.01,0.029 0.014,0.064 0.014,0.101 0,0.079 -0.067,0.117 -0.203,0.117 h -5.772 c -0.967,0 -1.45,0.522 -1.45,1.566 v 0.464 c 0,0.986 0.483,1.479 1.45,1.479 h 10.065 c 0.445,0 0.794,-0.126 1.044,-0.376 0.252,-0.251 0.378,-0.6 0.378,-1.044 v -0.407 c 0,-0.425 -0.068,-0.827 -0.203,-1.204 -0.136,-0.377 -0.319,-0.749 -0.552,-1.116 l -6.729,-10.675 c -0.058,-0.096 -0.092,-0.159 -0.102,-0.188 -0.009,-0.03 -0.014,-0.063 -0.014,-0.102 0,-0.077 0.068,-0.116 0.203,-0.116 h 6.324 c 0.967,0 1.45,-0.523 1.45,-1.567 v -0.463 c 0,-0.987 -0.483,-1.48 -1.45,-1.48 h -10.617 c -0.406,0 -0.73,0.126 -0.972,0.377 -0.241,0.252 -0.362,0.59 -0.362,1.016 v 0.406 c 0,0.347 0.063,0.692 0.189,1.029" /><path
         id="path88"
         style="fill:#406e1a;fill-opacity:1;fill-rule:nonzero;stroke:none;stroke-width:0.1"
         d="m 234.374,141.04 h 0.465 c 1.256,0 1.884,-0.6 1.884,-1.799 v -15.257 c 0,-1.2 -0.628,-1.798 -1.884,-1.798 h -0.465 c -1.256,0 -1.885,0.598 -1.885,1.798 v 15.257 c 0,1.199 0.629,1.799 1.885,1.799" /><path
         id="path90"
         style="fill:#406e1a;fill-opacity:1;fill-rule:nonzero;stroke:none;stroke-width:0.1"
         d="m 250.375,129.785 c 0,0.038 -0.01,0.107 -0.03,0.203 -0.018,0.097 -0.057,0.232 -0.116,0.407 l -1.681,5.656 c -0.058,0.154 -0.107,0.231 -0.146,0.231 -0.039,0 -0.087,-0.077 -0.144,-0.231 l -1.683,-5.656 c -0.059,-0.175 -0.097,-0.31 -0.116,-0.407 -0.019,-0.096 -0.03,-0.165 -0.03,-0.203 0,-0.155 0.087,-0.232 0.262,-0.232 h 3.423 c 0.174,0 0.261,0.077 0.261,0.232 z m -9.834,-6.047 c 0.04,0.144 0.078,0.294 0.116,0.448 l 4.903,15.345 c 0.155,0.483 0.397,0.865 0.725,1.146 0.328,0.28 0.802,0.421 1.422,0.421 h 1.711 c 0.618,0 1.096,-0.141 1.435,-0.421 0.338,-0.281 0.585,-0.663 0.74,-1.146 l 4.844,-15.286 c 0.116,-0.329 0.174,-0.609 0.174,-0.842 0,-0.329 -0.106,-0.614 -0.319,-0.855 -0.213,-0.242 -0.522,-0.362 -0.928,-0.362 h -1.45 c -0.503,0 -0.88,0.129 -1.132,0.391 -0.251,0.261 -0.454,0.643 -0.608,1.146 l -0.639,2.088 c -0.058,0.212 -0.203,0.319 -0.436,0.319 h -5.394 c -0.232,0 -0.377,-0.107 -0.436,-0.319 l -0.667,-2.175 c -0.154,-0.484 -0.348,-0.847 -0.58,-1.088 -0.232,-0.242 -0.58,-0.362 -1.044,-0.362 h -1.305 c -0.387,0 -0.682,0.105 -0.885,0.318 -0.202,0.213 -0.305,0.493 -0.305,0.842 0,0.116 0.02,0.246 0.058,0.392" /><path
         id="path92"
         style="fill:#406e1a;fill-opacity:1;fill-rule:nonzero;stroke:none;stroke-width:0.1"
         d="m 260.879,129.031 c -0.077,0 -0.184,-0.029 -0.319,-0.088 l -0.435,-0.29 c -0.135,-0.096 -0.256,-0.169 -0.363,-0.217 -0.106,-0.048 -0.237,-0.073 -0.391,-0.073 -0.155,0 -0.31,0.064 -0.464,0.189 -0.154,0.126 -0.291,0.276 -0.406,0.45 -0.117,0.174 -0.213,0.357 -0.29,0.551 -0.078,0.193 -0.117,0.367 -0.117,0.522 0,0.213 0.054,0.382 0.16,0.508 0.107,0.125 0.265,0.256 0.478,0.392 l 2.118,1.363 c 0.116,0.077 0.174,0.222 0.174,0.435 v 6.468 c 0,1.199 0.628,1.799 1.886,1.799 h 0.464 c 1.257,0 1.885,-0.6 1.885,-1.799 v -3.713 c 0,-0.135 0.048,-0.203 0.145,-0.203 0.077,0 0.165,0.03 0.261,0.087 l 0.987,0.667 c 0.154,0.097 0.284,0.16 0.392,0.189 0.105,0.029 0.208,0.043 0.304,0.043 0.193,0 0.371,-0.057 0.536,-0.173 0.165,-0.117 0.305,-0.262 0.42,-0.436 0.117,-0.174 0.208,-0.357 0.277,-0.55 0.067,-0.194 0.1,-0.378 0.1,-0.551 0,-0.213 -0.047,-0.383 -0.144,-0.508 -0.097,-0.126 -0.251,-0.247 -0.464,-0.363 l -2.64,-1.682 c -0.116,-0.078 -0.174,-0.203 -0.174,-0.377 v -5.482 c 0,-0.233 0.106,-0.349 0.319,-0.349 h 5.569 c 1.006,0 1.509,-0.531 1.509,-1.595 v -0.435 c 0,-1.044 -0.503,-1.567 -1.509,-1.567 h -8.528 c -0.502,0 -0.894,0.146 -1.175,0.436 -0.279,0.29 -0.42,0.676 -0.42,1.16 v 4.96 c 0,0.154 -0.049,0.232 -0.145,0.232" /><path
         id="path94"
         style="fill:#406e1a;fill-opacity:1;fill-rule:nonzero;stroke:none;stroke-width:0.1"
         d="m 284.224,140.661 c 0.29,0.29 0.697,0.435 1.218,0.435 h 0.465 c 1.083,0 1.924,-0.454 2.523,-1.364 l 6.004,-9.369 c 0.059,-0.096 0.107,-0.169 0.146,-0.217 0.038,-0.048 0.087,-0.073 0.144,-0.073 0.059,0 0.087,0.077 0.087,0.233 v 9.195 c 0,0.58 0.151,1 0.45,1.262 0.3,0.26 0.73,0.391 1.291,0.391 h 0.435 c 0.561,0 0.991,-0.131 1.291,-0.391 0.3,-0.262 0.449,-0.682 0.449,-1.262 v -15.52 c 0,-1.083 -0.541,-1.624 -1.624,-1.624 h -0.435 c -0.638,0 -1.141,0.116 -1.508,0.348 -0.367,0.233 -0.687,0.562 -0.957,0.986 l -6.15,9.573 c -0.116,0.213 -0.212,0.319 -0.29,0.319 -0.039,0 -0.058,-0.087 -0.058,-0.261 v -9.369 c 0,-0.58 -0.15,-1.001 -0.449,-1.262 -0.3,-0.261 -0.731,-0.391 -1.291,-0.391 h -0.436 c -0.561,0 -0.99,0.13 -1.29,0.391 -0.3,0.261 -0.45,0.682 -0.45,1.262 v 15.49 c 0,0.522 0.145,0.928 0.435,1.218" /><path
         id="path96"
         style="fill:#406e1a;fill-opacity:1;fill-rule:nonzero;stroke:none;stroke-width:0.1"
         d="m 312.103,129.899 c 0,0.039 -0.01,0.107 -0.028,0.203 -0.02,0.097 -0.059,0.232 -0.116,0.407 l -1.683,5.656 c -0.058,0.154 -0.106,0.231 -0.144,0.231 -0.04,0 -0.088,-0.077 -0.146,-0.231 l -1.683,-5.656 c -0.057,-0.175 -0.096,-0.31 -0.116,-0.407 -0.018,-0.096 -0.028,-0.164 -0.028,-0.203 0,-0.155 0.087,-0.232 0.261,-0.232 h 3.422 c 0.174,0 0.261,0.077 0.261,0.232 z m -9.833,-6.047 c 0.039,0.144 0.077,0.294 0.116,0.449 l 4.903,15.345 c 0.154,0.483 0.396,0.865 0.724,1.145 0.329,0.28 0.803,0.421 1.422,0.421 h 1.711 c 0.619,0 1.098,-0.141 1.436,-0.421 0.339,-0.28 0.585,-0.662 0.74,-1.145 l 4.844,-15.287 c 0.116,-0.329 0.175,-0.609 0.175,-0.841 0,-0.329 -0.107,-0.615 -0.32,-0.856 -0.213,-0.242 -0.522,-0.362 -0.929,-0.362 h -1.45 c -0.503,0 -0.88,0.13 -1.131,0.391 -0.252,0.261 -0.455,0.643 -0.609,1.146 l -0.639,2.088 c -0.057,0.213 -0.202,0.319 -0.434,0.319 h -5.396 c -0.231,0 -0.377,-0.106 -0.434,-0.319 l -0.668,-2.175 c -0.155,-0.483 -0.348,-0.847 -0.58,-1.088 -0.232,-0.242 -0.58,-0.362 -1.044,-0.362 h -1.306 c -0.387,0 -0.682,0.105 -0.885,0.318 -0.202,0.213 -0.303,0.493 -0.303,0.842 0,0.116 0.018,0.246 0.057,0.392" /><path
         id="path98"
         style="fill:#406e1a;fill-opacity:1;fill-rule:nonzero;stroke:none;stroke-width:0.1"
         d="m 323.163,141.154 h 0.493 c 1.257,0 1.885,-0.599 1.885,-1.799 v -9.629 c 0,-0.871 0.058,-1.577 0.175,-2.119 0.115,-0.541 0.294,-0.961 0.536,-1.261 0.242,-0.3 0.555,-0.503 0.942,-0.61 0.387,-0.106 0.861,-0.159 1.422,-0.159 0.541,0 1.006,0.053 1.393,0.159 0.386,0.107 0.7,0.315 0.942,0.625 0.241,0.309 0.416,0.735 0.522,1.276 0.107,0.541 0.16,1.247 0.16,2.117 v 9.601 c 0,1.2 0.628,1.799 1.885,1.799 h 0.493 c 1.257,0 1.885,-0.599 1.885,-1.799 v -10.036 c 0,-1.45 -0.193,-2.644 -0.58,-3.583 -0.387,-0.937 -0.913,-1.681 -1.581,-2.233 -0.667,-0.551 -1.44,-0.933 -2.32,-1.146 -0.88,-0.212 -1.813,-0.319 -2.799,-0.319 -1.044,0 -2.017,0.092 -2.915,0.276 -0.9,0.184 -1.678,0.537 -2.335,1.059 -0.658,0.522 -1.17,1.257 -1.538,2.204 -0.367,0.947 -0.551,2.176 -0.551,3.684 v 10.094 c 0,1.2 0.629,1.799 1.886,1.799" /><path
         id="path100"
         style="fill:#406e1a;fill-opacity:1;fill-rule:nonzero;stroke:none;stroke-width:0.1"
         d="m 342.653,141.154 h 0.464 c 1.257,0 1.886,-0.599 1.886,-1.799 v -5.423 c 0,-0.155 0.039,-0.233 0.116,-0.233 0.057,0 0.144,0.068 0.261,0.203 l 5.192,5.946 c 0.329,0.388 0.652,0.702 0.972,0.943 0.319,0.242 0.73,0.363 1.232,0.363 h 1.653 c 0.387,0 0.692,-0.097 0.914,-0.29 0.223,-0.193 0.334,-0.435 0.334,-0.725 0,-0.329 -0.155,-0.658 -0.464,-0.987 l -5.57,-6.207 c -0.077,-0.078 -0.115,-0.145 -0.115,-0.203 0,-0.077 0.028,-0.155 0.087,-0.232 l 5.859,-8.412 c 0.174,-0.271 0.261,-0.522 0.261,-0.754 0,-0.271 -0.106,-0.513 -0.319,-0.726 -0.212,-0.213 -0.561,-0.318 -1.044,-0.318 h -1.711 c -0.503,0 -0.919,0.115 -1.248,0.348 -0.328,0.232 -0.628,0.541 -0.899,0.928 l -3.8,5.656 c -0.097,0.155 -0.174,0.232 -0.232,0.232 -0.058,0 -0.145,-0.068 -0.262,-0.203 l -0.985,-1.044 c -0.155,-0.174 -0.232,-0.367 -0.232,-0.58 v -3.539 c 0,-1.2 -0.629,-1.798 -1.886,-1.798 h -0.464 c -1.257,0 -1.886,0.598 -1.886,1.798 v 15.257 c 0,1.2 0.629,1.799 1.886,1.799" /></g></g></svg>