<?xml version="1.0" encoding="UTF-8" standalone="no"?>
<svg
   xmlns:dc="http://purl.org/dc/elements/1.1/"
   xmlns:cc="http://web.resource.org/cc/"
   xmlns:rdf="http://www.w3.org/1999/02/22-rdf-syntax-ns#"
   xmlns:svg="http://www.w3.org/2000/svg"
   xmlns="http://www.w3.org/2000/svg"
   xmlns:sodipodi="http://sodipodi.sourceforge.net/DTD/sodipodi-0.dtd"
   xmlns:inkscape="http://www.inkscape.org/namespaces/inkscape"
   width="595.153"
   height="757.296"
   id="svg2"
   sodipodi:version="0.32"
   inkscape:version="0.44.1"
   sodipodi:docname="POL Głowno COA.svg"
   sodipodi:docbase="C:\Documents and Settings\Mistrz\Pulpit">
  <metadata
     id="metadata71">
    <rdf:RDF>
      <cc:Work
         rdf:about="">
        <dc:format>image/svg+xml</dc:format>
        <dc:type
           rdf:resource="http://purl.org/dc/dcmitype/StillImage" />
      </cc:Work>
    </rdf:RDF>
  </metadata>
  <sodipodi:namedview
     inkscape:window-height="480"
     inkscape:window-width="640"
     inkscape:pageshadow="2"
     inkscape:pageopacity="0.0"
     guidetolerance="10.0"
     gridtolerance="10.0"
     objecttolerance="10.0"
     borderopacity="1.0"
     bordercolor="#666666"
     pagecolor="#ffffff"
     id="base" />
  <defs
     id="defs4">
    <marker
       id="ArrowEnd"
       viewBox="0 0 10 10"
       refX="0"
       refY="5"
       markerUnits="strokeWidth"
       markerWidth="4"
       markerHeight="3"
       orient="auto">
      <path
         d="M 0 0 L 10 5 L 0 10 z"
         id="path7" />
    </marker>
    <marker
       id="ArrowStart"
       viewBox="0 0 10 10"
       refX="10"
       refY="5"
       markerUnits="strokeWidth"
       markerWidth="4"
       markerHeight="3"
       orient="auto">
      <path
         d="M 10 0 L 0 5 L 10 10 z"
         id="path10" />
    </marker>
  </defs>
  <g
     id="g2886">
    <g
       id="g12" />
    <path
       id="path18"
       d="M 0.00072349,0 L 595.153,0 L 595.153,491.472 C 590.833,569.808 536.545,627.12 457.417,650.304 C 393.193,669.096 327.241,694.728 297.433,757.296 C 281.593,717.552 231.769,677.592 155.521,652.824 C 85.4647,630.072 -0.287277,585.216 0.00072349,491.472 L 0.00072349,0 z "
       style="fill:black;fill-rule:evenodd;stroke:none" />
    <path
       id="path20"
       d="M 14.1127,14.04 L 581.041,14.04 L 581.041,484.416 C 576.865,559.44 525.169,614.232 449.785,636.408 C 370.729,659.664 324.001,688.248 297.433,722.232 C 261.361,679.968 211.537,653.472 162.289,638.856 C 94.9687,618.912 13.8967,574.128 14.1127,484.416 L 14.1127,14.04 z "
       style="fill:#c60020;fill-rule:evenodd;stroke:none" />
    <path
       id="path22"
       d="M 297.577,562.608 C 428.185,562.608 534.745,456.048 534.745,325.512 C 534.745,194.832 428.185,88.272 297.577,88.272 C 166.969,88.272 60.4087,194.832 60.4087,325.512 C 60.4087,456.048 166.969,562.608 297.577,562.608 z "
       style="fill:#fc0;fill-rule:evenodd;stroke:none" />
    <path
       id="path24"
       d="M 345.097,474.408 C 350.713,472.176 356.257,469.44 361.729,466.272 C 372.313,460.008 390.961,447.552 403.993,432.504 C 413.209,421.848 424.945,414.864 431.137,409.68 C 433.657,407.52 433.657,404.28 433.513,401.4 C 433.153,393.48 437.401,395.64 443.953,392.616 C 450.289,389.664 456.337,384.192 458.137,383.544 C 471.745,379.152 480.673,367.344 480.673,353.736 C 458.137,362.16 456.409,347.184 459.289,327.888 C 461.593,311.832 472.897,301.752 474.769,289.584 C 478.801,263.088 476.569,233.136 450.721,226.008 C 447.049,225 442.873,224.496 438.121,224.496 C 432.505,224.496 424.297,222.552 420.985,216.504 C 418.321,211.68 416.089,207.72 410.689,205.56 C 406.801,203.976 407.593,194.832 404.929,191.088 C 399.889,184.104 395.857,192.384 393.697,170.352 C 392.041,153.792 365.401,140.4 345.097,140.688 L 345.097,448.632 C 347.905,445.248 350.569,441.792 352.873,438.408 C 362.449,424.152 380.449,426.24 369.145,448.344 C 365.185,456.048 355.393,463.032 345.097,467.856 L 345.097,474.408 z M 227.593,467.856 C 247.897,477.792 270.577,483.264 293.185,483.624 C 310.249,483.912 327.961,481.248 345.097,474.408 L 345.097,467.856 C 334.513,472.752 323.353,475.344 317.377,473.976 C 326.305,468.288 336.673,458.64 345.097,448.632 L 345.097,140.688 C 345.025,140.688 344.953,140.688 344.953,140.688 C 340.921,140.76 337.609,136.368 333.289,135.072 C 326.881,133.128 319.465,133.848 313.633,132.336 C 306.865,130.68 300.961,130.536 297.001,135.216 C 292.465,140.4 286.201,135.576 280.297,131.472 C 278.353,130.104 271.225,127.728 265.825,130.464 C 260.281,133.272 254.881,135.936 250.417,132.912 C 245.809,129.816 250.129,124.992 244.009,125.568 C 238.465,126.144 232.849,127.224 227.593,128.592 L 227.593,438.408 C 238.105,450.72 250.849,463.32 258.553,472.608 C 248.689,471.384 237.601,467.712 227.593,462.24 L 227.593,467.856 z M 152.353,406.296 C 165.961,413.064 174.745,424.656 184.609,435.672 C 196.633,449.136 211.393,459.936 227.593,467.856 L 227.593,462.24 C 216.073,456.048 205.921,447.624 200.233,438.192 C 188.569,418.968 207.793,410.472 215.425,422.496 C 218.665,427.536 222.913,432.936 227.593,438.408 L 227.593,128.592 C 216.361,131.472 206.425,135.648 201.313,139.176 C 198.865,140.832 202.465,148.752 199.441,155.232 C 196.777,160.92 192.817,164.376 189.865,157.032 C 185.977,147.528 182.593,151.2 181.657,159.408 C 180.577,168.48 177.913,177.624 171.721,182.952 C 168.697,185.616 171.433,198.792 168.193,201.816 C 164.377,205.416 157.321,216.72 155.665,225.216 C 154.009,233.64 140.185,225 137.953,214.488 C 125.713,226.728 125.281,233.208 124.129,242.568 C 123.265,249.264 130.681,254.952 130.681,263.376 C 130.681,269.424 124.561,275.4 121.753,280.656 C 118.945,285.912 120.961,294.336 120.817,300.312 C 120.529,310.032 115.633,306.432 115.561,314.208 L 115.561,314.712 C 115.561,314.784 115.561,314.928 115.561,315.072 C 116.137,332.136 117.577,358.416 115.705,377.496 C 113.329,402.048 140.833,406.224 152.353,406.296 z "
       style="fill:black;fill-rule:evenodd;stroke:none" />
    <path
       id="path26"
       d="M 266.689,257.688 C 252.865,258.84 244.009,255.888 240.337,246.168 L 260.929,244.728 C 256.825,239.616 253.081,235.512 251.641,232.272 C 249.049,226.512 250.993,223.416 258.769,231.336 C 263.449,236.16 268.057,239.688 271.297,239.832 C 277.561,240.048 281.089,227.808 282.817,223.92 C 285.841,217.224 290.233,211.104 297.577,217.152 C 299.593,218.88 314.209,229.464 316.441,230.76 C 320.905,233.28 321.625,238.968 321.337,242.136 C 320.977,245.808 317.161,249.336 307.801,252.576 C 320.113,263.592 332.929,259.2 341.353,250.272 C 345.817,245.52 352.801,248.04 355.681,252.288 C 372.457,277.272 376.417,298.512 376.417,330.048 C 376.417,343.944 374.761,362.304 368.857,374.04 C 367.921,375.912 359.569,385.056 355.681,389.52 C 352.801,392.976 354.601,394.848 358.201,392.328 C 359.929,391.104 366.265,383.4 367.057,384.696 C 372.313,393.768 351.001,431.136 340.057,442.44 C 332.785,449.928 317.017,468.576 308.089,472.536 C 293.185,479.16 271.657,478.8 258.193,463.392 C 247.753,451.296 240.121,439.992 229.609,428.76 C 225.505,424.44 218.809,411.984 215.785,398.736 C 213.769,389.808 214.705,388.944 216.721,391.392 C 219.385,394.56 220.609,395.856 223.273,398.448 C 227.593,402.552 229.537,397.944 225.793,394.632 C 222.121,391.392 217.225,385.272 214.345,376.488 C 206.929,353.448 205.633,317.88 204.985,291.312 C 204.769,280.44 208.801,263.808 214.489,254.016 C 216.649,250.344 219.169,252.936 224.425,258.768 C 233.281,268.344 266.473,275.472 266.689,257.688 z "
       style="fill:#ffd5b5;fill-rule:evenodd;stroke:none" />
    <path
       id="path28"
       d="M 260.929,373.608 C 256.537,382.392 252.145,391.32 247.825,400.176"
       style="fill:none;stroke:black;stroke-width:4;stroke-miterlimit:4;stroke-dasharray:none;stroke-linecap:round" />
    <path
       id="path30"
       d="M 314.785,377.208 C 316.801,385.56 318.745,393.912 320.761,402.336"
       style="fill:none;stroke:black;stroke-width:4;stroke-miterlimit:4;stroke-dasharray:none;stroke-linecap:round" />
    <path
       id="path32"
       d="M 253.369,389.16 C 256.393,390.24 260.497,391.176 263.953,391.176 C 272.881,391.32 269.497,383.472 279.289,389.304 C 286.849,393.768 291.097,391.608 295.129,387.936 C 297.217,386.064 301.393,385.344 304.705,388.728 C 307.945,392.04 313.849,393.12 318.097,391.824"
       style="fill:none;stroke:black;stroke-width:4;stroke-miterlimit:4;stroke-dasharray:none;stroke-linecap:round" />
    <path
       id="path34"
       d="M 284.329,288.792 C 283.249,291.312 279.865,295.776 279.433,301.032 C 278.425,313.2 279.721,326.664 279.001,338.4 C 278.497,346.032 278.713,353.592 278.137,361.008 C 277.561,368.424 271.729,381.816 278.065,388.368 C 281.233,391.68 288.001,392.688 291.889,390.672 C 297.649,387.648 297.505,381.744 297.649,375.264 C 298.441,349.2 296.857,321.768 296.929,293.76"
       style="fill:none;stroke:black;stroke-width:4;stroke-linecap:round;stroke-miterlimit:4;stroke-dasharray:none" />
    <path
       id="path36"
       d="M 213.553,293.76 C 227.089,295.776 236.953,287.568 249.409,287.568 C 255.097,287.568 260.425,287.784 265.177,290.448 C 269.857,293.112 274.033,298.152 279.505,298.152"
       style="fill:none;stroke:black;stroke-width:4;stroke-miterlimit:4;stroke-dasharray:none;stroke-linecap:round" />
    <path
       id="path38"
       d="M 212.473,314.784 C 221.257,306 240.697,298.656 251.137,303.768 C 262.009,309.024 283.753,329.544 260.929,336.888 C 253.081,339.408 242.785,339.264 234.577,337.824 C 221.617,335.52 215.929,328.752 212.473,314.784 z "
       style="fill:none;stroke:black;stroke-width:4;stroke-miterlimit:4;stroke-dasharray:none;stroke-linecap:round" />
    <path
       id="path40"
       d="M 212.977,315.216 C 236.665,335.016 257.329,330.624 269.353,321.912"
       style="fill:none;stroke:black;stroke-width:4;stroke-miterlimit:4;stroke-dasharray:none;stroke-linecap:round" />
    <path
       id="path42"
       d="M 265.465,302.688 C 265.897,308.232 265.537,313.848 268.849,319.104 C 271.585,323.424 271.657,327.384 269.353,331.632 C 263.449,342.792 256.033,350.64 247.681,360.144"
       style="fill:none;stroke:black;stroke-width:4;stroke-miterlimit:4;stroke-dasharray:none;stroke-linecap:round" />
    <path
       sodipodi:nodetypes="ccccccccccc"
       id="path44"
       d="M 297.42132,304.13384 C 305.62932,297.50984 308.377,292.896 309.817,291.168 C 313.417,286.92 316.945,288.504 319.825,291.384 C 324.217,295.704 344.737,293.184 350.785,293.04 C 357.265,292.824 359.569,292.896 363.097,298.8 C 366.265,304.128 369.793,308.088 374.545,310.824 C 373.105,312.336 371.305,313.848 369.433,315.36 C 357.697,324.792 353.089,337.752 335.809,338.76 C 327.241,339.264 318.169,337.032 312.553,329.472 C 310.753,326.952 306.793,325.008 303.985,324.504 C 301.753,324.072 298.873,324.072 298.081,324.216"
       style="fill:none;stroke:black;stroke-width:4;stroke-miterlimit:4;stroke-dasharray:none;stroke-linecap:round" />
    <path
       id="path46"
       d="M 310.609,306.432 C 311.545,308.808 313.489,310.752 313.345,313.488 C 312.985,319.608 311.329,325.656 310.681,331.416 C 310.465,333.72 311.545,337.248 313.633,341.424 C 316.801,347.832 320.761,355.32 321.265,356.904"
       style="fill:none;stroke:black;stroke-width:4;stroke-miterlimit:4;stroke-dasharray:none;stroke-linecap:round" />
    <path
       id="path48"
       d="M 314.353,312.84 C 318.097,309.024 336.889,300.024 360.217,310.824 C 358.129,313.416 355.753,316.368 353.161,319.176 C 344.665,328.248 340.561,328.536 328.825,329.76 C 304.273,332.208 314.929,309.6 314.353,312.84 z "
       style="fill:none;stroke:black;stroke-width:4;stroke-miterlimit:4;stroke-dasharray:none;stroke-linecap:round;stroke-linejoin:bevel" />
    <path
       id="path50"
       d="M 253.945,413.712 C 253.369,417.384 252.433,421.992 251.857,425.664"
       style="fill:none;stroke:black;stroke-width:4;stroke-miterlimit:4;stroke-dasharray:none;stroke-linecap:round" />
    <path
       id="path52"
       d="M 253.009,419.616 C 255.529,422.208 264.457,423.432 275.761,423.072 C 278.857,423 280.729,421.344 282.961,425.232 C 284.401,427.68 287.857,428.184 289.153,425.16 C 289.729,423.936 291.529,422.784 293.257,422.568 C 298.081,421.992 308.449,423.072 315.145,422.136 C 311.473,420.12 304.849,417.744 303.553,415.224 C 301.105,410.688 297.361,407.88 292.177,412.704 C 290.737,414.072 289.081,415.44 285.769,415.512 C 283.321,415.512 281.089,414.648 279.433,413.136 C 275.545,409.464 274.609,409.176 271.081,411.84 C 264.241,416.952 257.329,418.032 252.865,419.4"
       style="fill:none;stroke:black;stroke-width:4;stroke-miterlimit:4;stroke-dasharray:none;stroke-linecap:round;stroke-linejoin:bevel" />
    <path
       id="path54"
       d="M 310.393,414.792 L 317.665,425.952"
       style="fill:none;stroke:black;stroke-width:4;stroke-miterlimit:4;stroke-dasharray:none;stroke-linecap:round" />
    <path
       id="path56"
       d="M 271.729,431.352 C 270.001,435.816 268.129,440.424 266.401,444.96"
       style="fill:none;stroke:black;stroke-width:4;stroke-miterlimit:4;stroke-dasharray:none;stroke-linecap:round" />
    <path
       id="path58"
       d="M 300.673,433.152 C 303.769,438.336 307.873,445.968 310.969,451.152"
       style="fill:none;stroke:black;stroke-width:4;stroke-miterlimit:4;stroke-dasharray:none;stroke-linecap:round" />
    <path
       id="path60"
       d="M 270.001,436.536 C 275.617,435.528 279.865,437.616 282.889,439.344 C 286.993,441.648 287.929,441.288 291.385,438.912 C 297.289,434.952 299.017,438.12 303.769,438.48"
       style="fill:none;stroke:black;stroke-width:4;stroke-miterlimit:4;stroke-dasharray:none;stroke-linecap:round" />
    <path
       id="path62"
       d="M 279.649,390.528 L 279.001,393.84"
       style="fill:none;stroke:black;stroke-width:4;stroke-miterlimit:4;stroke-dasharray:none;stroke-linecap:round" />
    <path
       id="path64"
       d="M 291.745,391.464 L 292.393,394.2"
       style="fill:none;stroke:black;stroke-width:4;stroke-miterlimit:4;stroke-dasharray:none;stroke-linecap:round" />
    <path
       id="path66"
       d="M 297.577,115.272 C 413.353,115.272 507.745,209.736 507.745,325.512 C 507.745,441.216 413.353,535.68 297.577,535.68 L 297.577,528.552 C 409.393,528.552 500.617,437.328 500.617,325.512 C 500.617,213.624 409.393,122.4 297.577,122.4 L 297.577,115.272 z M 297.577,535.68 C 181.801,535.68 87.4087,441.216 87.4087,325.512 C 87.4087,209.736 181.801,115.272 297.577,115.272 L 297.577,122.4 C 185.761,122.4 94.5367,213.624 94.5367,325.512 C 94.5367,437.328 185.761,528.552 297.577,528.552 L 297.577,535.68 z "
       style="fill:black;fill-rule:evenodd;stroke:none" />
    <path
       id="path68"
       d="M 297.577,86.904 C 428.977,86.904 536.185,194.112 536.185,325.512 C 536.185,456.84 428.977,564.048 297.577,564.048 L 297.577,556.92 C 425.089,556.92 529.057,452.952 529.057,325.512 C 529.057,198 425.089,93.96 297.577,93.96 L 297.577,86.904 z M 297.577,564.048 C 166.177,564.048 58.9687,456.84 58.9687,325.512 C 58.9687,194.112 166.177,86.904 297.577,86.904 L 297.577,93.96 C 170.065,93.96 66.0967,198 66.0967,325.512 C 66.0967,452.952 170.065,556.92 297.577,556.92 L 297.577,564.048 z "
       style="fill:black;fill-rule:evenodd;stroke:none" />
  </g>
</svg>
