<?xml version="1.0" encoding="UTF-8" standalone="no"?>
<svg
   xmlns:dc="http://purl.org/dc/elements/1.1/"
   xmlns:cc="http://creativecommons.org/ns#"
   xmlns:rdf="http://www.w3.org/1999/02/22-rdf-syntax-ns#"
   xmlns:svg="http://www.w3.org/2000/svg"
   xmlns="http://www.w3.org/2000/svg"
   height="227.78"
   width="227.78"
   version="1.1"
   viewBox="0 0 227.77999 227.77999"
   data-name="Warstwa 1"
   id="Warstwa_1">
  <metadata
     id="metadata41">
    <rdf:RDF>
      <cc:Work
         rdf:about="">
        <dc:format>image/svg+xml</dc:format>
        <dc:type
           rdf:resource="http://purl.org/dc/dcmitype/StillImage" />
        <dc:title>nocleg</dc:title>
      </cc:Work>
    </rdf:RDF>
  </metadata>
  <defs
     id="defs4">
    <style
       id="style2">.cls-1{fill:#3b53a4;stroke:#010101;}.cls-1,.cls-3{stroke-miterlimit:10;}.cls-2,.cls-3{fill:#fff;}.cls-3{stroke:#fff;stroke-width:3px;}</style>
  </defs>
  <title
     id="title6">nocleg</title>
  <circle
     style="fill:#3b53a4;stroke:#010101;stroke-miterlimit:10"
     id="circle8"
     r="113.39"
     cy="113.89"
     cx="113.89"
     class="cls-1" />
  <path
     style="fill:#ffffff"
     id="path10"
     d="m 122.62,153.44 q -4.36,-0.22 -8.75,-0.21 v 5.84 h 0.35 a 55.18,55.18 0 0 0 8.24,-0.12 c 1.26,-0.2 2.3,-1.76 3.44,-2.7 -1.09,-0.98 -2.14,-2.74 -3.28,-2.81 z"
     class="cls-2" />
  <ellipse
     style="fill:#ffffff"
     id="ellipse12"
     ry="2.8399999"
     rx="3.02"
     cy="49.689999"
     cx="168.34"
     class="cls-2" />
  <rect
     style="fill:#ffffff"
     id="rect14"
     height="55.310001"
     width="6.0300002"
     y="49.689999"
     x="165.32001"
     class="cls-2" />
  <rect
     style="fill:#ffffff"
     id="rect16"
     height="5.73"
     width="12.46"
     y="59.970001"
     x="155.53999"
     class="cls-2" />
  <ellipse
     style="fill:#ffffff"
     id="ellipse18"
     ry="3.1600001"
     rx="3.02"
     cy="177.77"
     cx="176.7"
     class="cls-2" />
  <rect
     style="fill:#ffffff"
     id="rect20"
     height="7.5300002"
     width="1.78"
     y="170.52"
     x="173.69"
     class="cls-2" />
  <path
     style="fill:#ffffff;stroke:#ffffff;stroke-width:3px;stroke-miterlimit:10"
     id="path22"
     d="m 175.83,126.18 c -4.24,-12.2 -5.41,-24.92 -4.76,-37.88 0.44,-8.82 0.08,-17.69 0.08,-26.54 a 107.49,107.49 0 0 0 -0.13,-11.07 c 0.17,-1.48 -1.07,-3.48 -2.25,-3.75 -2.26,-0.54 -3.4,1.55 -3.4,3.56 a 44.36,44.36 0 0 0 0.05,5 c 0.42,3.47 -1,4.52 -4.42,4.49 -15.46,-0.17 -30.92,-0.07 -46.38,-0.07 h -0.75 v 5.8 q 23.91,0 47.83,0 c 1.45,0 3.6,-0.36 3.62,0.46 0,1.32 -0.1,3 0,6 0.33,10.09 0.08,17.57 -0.22,26.44 -0.18,5.16 0,6.44 -3.34,6.46 -2.7,0 -3.92,-0.77 -3.81,-3.69 a 90.06,90.06 0 0 0 -0.2,-11.85 c -0.59,-6.51 -4.81,-10.52 -11.27,-10.68 -7.79,-0.19 -15.6,-0.29 -23.38,0.07 -2.52,0.12 -5,1.27 -6.93,2 a 4.87,4.87 0 0 0 -1.67,1 c -0.21,0.19 -0.41,0.33 -0.61,0.29 v 28.72 q 24.19,0 48.39,-0.06 c 2.55,0 3.92,0.6 4.52,3.29 1.64,7.35 3.55,14.65 5.32,22 0.91,3.75 0.69,4 -3.31,4 h -54.66 v 0 h -0.24 v 5.75 h 54 c 6.3,0 6.3,0 6.3,6.14 0,3.48 -0.14,7 0,10.43 0.16,2.92 -0.78,4 -3.87,4 -18.59,-0.13 -37.19,-0.07 -55.78,-0.07 v 0 h -0.66 v 5.78 h 54.57 c 5.3,0 5.14,0 5.82,5.32 a 3,3 0 0 0 0.91,1.58 2.52,2.52 0 0 0 3.66,0 2.44,2.44 0 0 0 0.9,-1.56 c -0.38,-17.22 1.93,-34.53 -3.93,-51.36 z m -26.68,-21.17 c -4.8,-0.09 -9.6,0 -14.39,0 v 0 c -4.87,0 -9.74,0 -14.61,0 -1.94,0 -2.83,-0.79 -2.79,-2.81 0.08,-3.71 -0.08,-7.43 0,-11.15 0.14,-4.1 2.15,-6.29 6.2,-6.42 7.18,-0.22 14.37,-0.34 21.56,-0.24 4.87,0.07 6.87,2.35 7,7.25 0.07,3.48 0,7 0,10.43 0.03,2.04 -0.85,2.98 -2.97,2.94 z"
     class="cls-3" />
  <path
     style="fill:#ffffff;stroke:#ffffff;stroke-width:3px;stroke-miterlimit:10"
     id="path24"
     d="M 51.93,126.18 C 56.18,113.98 57.34,101.26 56.7,88.3 56.26,79.48 56.62,70.61 56.62,61.76 a 107.49,107.49 0 0 1 0.13,-11.07 c -0.17,-1.48 1.06,-3.48 2.25,-3.75 2.25,-0.53 3.4,1.55 3.39,3.56 a 42.16,42.16 0 0 1 0,5 c -0.43,3.47 1,4.52 4.42,4.49 15.41,-0.14 30.87,-0.07 46.34,-0.07 h 0.75 v 5.8 q -23.91,0 -47.82,0 c -1.45,0 -3.6,-0.36 -3.62,0.46 0,1.32 0.09,3 0,6 -0.34,10.09 -0.09,17.57 0.22,26.44 0.18,5.16 0,6.44 3.33,6.47 2.71,0 3.93,-0.78 3.81,-3.7 a 93.65,93.65 0 0 1 0.2,-11.85 c 0.6,-6.51 4.81,-10.52 11.28,-10.68 7.79,-0.19 15.6,-0.29 23.37,0.07 2.63,0.12 5.21,1.37 7.18,2.08 a 4.46,4.46 0 0 1 1.46,0.92 0.7,0.7 0 0 0 0.59,0.27 v 28.72 q -24.2,0 -48.39,-0.06 c -2.54,0 -3.92,0.6 -4.51,3.29 -1.64,7.35 -3.55,14.65 -5.33,22 -0.91,3.75 -0.69,4 3.32,4 h 54.66 v 0 h 0.24 v 5.77 h -54 c -6.31,0 -6.31,0 -6.31,6.14 0,3.48 0.14,7 0,10.43 -0.15,2.92 0.79,4 3.87,4 18.6,-0.13 37.19,-0.07 55.79,-0.07 v 0 h 0.65 v 5.78 H 59.32 c -5.29,0 -5.14,0 -5.82,5.32 a 3,3 0 0 1 -0.9,1.58 2.53,2.53 0 0 1 -3.67,0 2.46,2.46 0 0 1 -0.89,-1.56 c 0.35,-17.22 -1.97,-34.53 3.89,-51.36 z m 26.74,-21.17 c 4.79,-0.09 9.59,0 14.39,0 v 0 c 4.87,0 9.74,0 14.6,0 2,0 2.84,-0.79 2.8,-2.81 -0.08,-3.71 0.08,-7.43 -0.05,-11.15 -0.13,-4.1 -2.14,-6.29 -6.19,-6.41 -7.19,-0.23 -14.38,-0.35 -21.56,-0.25 -4.87,0.07 -6.88,2.35 -7,7.25 -0.06,3.48 0,7 0,10.43 -0.03,2.04 0.83,2.98 3.01,2.94 z"
     class="cls-3" />
  <path
     style="fill:#ffffff"
     id="path26"
     d="m 105.15,153.44 q 4.37,-0.22 8.74,-0.21 v 5.84 h -0.35 a 55.18,55.18 0 0 1 -8.24,-0.12 c -1.25,-0.2 -2.29,-1.76 -3.43,-2.7 1.09,-0.98 2.14,-2.74 3.28,-2.81 z"
     class="cls-2" />
  <ellipse
     style="fill:#ffffff"
     id="ellipse28"
     ry="2.8399999"
     rx="3.02"
     cy="49.689999"
     cx="59.43"
     class="cls-2" />
  <rect
     style="fill:#ffffff"
     id="rect30"
     transform="scale(-1)"
     height="55.310001"
     width="6.0300002"
     y="-105"
     x="-62.449997"
     class="cls-2" />
  <rect
     style="fill:#ffffff"
     id="rect32"
     transform="scale(-1)"
     height="5.73"
     width="12.46"
     y="-65.699997"
     x="-72.229996"
     class="cls-2" />
  <ellipse
     style="fill:#ffffff"
     id="ellipse34"
     ry="3.1600001"
     rx="3.02"
     cy="177.77"
     cx="51.07"
     class="cls-2" />
  <rect
     style="fill:#ffffff"
     id="rect36"
     transform="scale(-1)"
     height="7.5300002"
     width="1.78"
     y="-178.05"
     x="-54.079998"
     class="cls-2" />
</svg>
