<?xml version="1.0" encoding="UTF-8" standalone="no"?>
<svg
   xmlns:dc="http://purl.org/dc/elements/1.1/"
   xmlns:cc="http://creativecommons.org/ns#"
   xmlns:rdf="http://www.w3.org/1999/02/22-rdf-syntax-ns#"
   xmlns:svg="http://www.w3.org/2000/svg"
   xmlns="http://www.w3.org/2000/svg"
   xmlns:sodipodi="http://sodipodi.sourceforge.net/DTD/sodipodi-0.dtd"
   xmlns:inkscape="http://www.inkscape.org/namespaces/inkscape"
   height="229.78"
   width="229.78"
   version="1.1"
   viewBox="0 0 229.77999 229.77999"
   data-name="Warstwa 1"
   id="Warstwa_1"
   sodipodi:docname="obiekty_kultury.svg"
   inkscape:version="0.92.4 (5da689c313, 2019-01-14)">
  <sodipodi:namedview
     pagecolor="#ffffff"
     bordercolor="#666666"
     borderopacity="1"
     objecttolerance="10"
     gridtolerance="10"
     guidetolerance="10"
     inkscape:pageopacity="0"
     inkscape:pageshadow="2"
     inkscape:window-width="1920"
     inkscape:window-height="986"
     id="namedview17"
     showgrid="false"
     inkscape:zoom="1.0270694"
     inkscape:cx="-96.877584"
     inkscape:cy="114.89"
     inkscape:window-x="-11"
     inkscape:window-y="-11"
     inkscape:window-maximized="1"
     inkscape:current-layer="Warstwa_1" />
  <metadata
     id="metadata31">
    <rdf:RDF>
      <cc:Work
         rdf:about="">
        <dc:format>image/svg+xml</dc:format>
        <dc:type
           rdf:resource="http://purl.org/dc/dcmitype/StillImage" />
        <dc:title>obiekty_kultury</dc:title>
      </cc:Work>
    </rdf:RDF>
  </metadata>
  <defs
     id="defs4">
    <style
       id="style2">.cls-1{fill:#d22026;stroke:#231f20;stroke-width:3px;}.cls-1,.cls-2{stroke-miterlimit:10;}.cls-2{fill:#fff;stroke:#fff;stroke-width:2px;}</style>
  </defs>
  <title
     id="title6">obiekty_kultury</title>
  <circle
     style="fill:#aa8800;stroke:#231f20;stroke-width:3px;stroke-miterlimit:10;fill-opacity:1"
     id="circle8"
     r="113.39"
     cy="114.89"
     cx="114.89"
     class="cls-1" />
  <path
     style="fill:#ffffff;stroke:#ffffff;stroke-width:2px;stroke-miterlimit:10"
     id="path10"
     d="m 137.76,188.23 a 15.44,15.44 0 0 1 -6.59,0.34 28,28 0 0 1 -20.74,-14.58 c -2.48,-4.4 -3.75,-9.48 -5.45,-14.28 -1.08,-3 0.2,-4.77 0.82,-4.9 3.3,-0.67 2.51,2.49 3.15,4.26 0.92,2.53 1.57,5.18 2.56,7.68 6.62,16.56 19.55,20.53 35.16,14.76 24.7,-9.14 42.63,-26.49 55.41,-49.16 6.57,-11.66 4.45,-15.75 -8.47,-18.78 -4.15,-1 -8.37,-1.68 -12.57,-2.37 -15.15,-2.51 -27.26,-10.54 -37.78,-21.78 -3.32,-3.55 -6.55,-7.43 -10.89,-9.63 a 3.16,3.16 0 0 1 -1.5,-3.41 2.57,2.57 0 0 1 3.08,-0.23 51.24,51.24 0 0 1 7.16,5.34 c 4.75,4.31 9.22,8.93 14,13.22 9.74,8.8 21.91,11.7 34.35,14 a 99.57,99.57 0 0 1 11.63,2.52 c 6.95,2.13 10.37,6.91 7.95,13.66 a 88.56,88.56 0 0 1 -11.26,21.8 c -11.51,15.93 -26,28.71 -44.23,36.65 -5.02,2.23 -10.4,3.45 -15.79,4.89 z"
     class="cls-2" />
  <path
     style="fill:#ffffff;stroke:#ffffff;stroke-width:2px;stroke-miterlimit:10"
     id="path12"
     d="m 52.69,133.91 c -4.26,-4.3 -8.89,-8.3 -12.72,-13 C 31.32,110.39 24.29,98.85 20.8,85.52 18.04,75.03 21.96,69.45 32.8,68.23 38.6,67.58 44.43,67.08 50.26,66.86 63.99,66.35 75.37,60.38 85.98,52.22 a 134.44,134.44 0 0 1 15.26,-10.06 c 4.12,-2.35 8.3,-1 11.18,2.43 5.16,6.1 10.73,22.08 11,30.23 -0.69,0.75 -2.83,14 -2.85,15.39 0.5,-2.72 -3.64,-26.27 -4.18,-28.19 -1.33,-4.75 -3.76,-9.16 -6.1,-13.5 -2,-3.67 -5.47,-3.92 -8.86,-2 a 69.66,69.66 0 0 0 -8.84,5.94 c -10.5,8.24 -21.33,15.9 -34.94,17.77 -8.16,1.14 -16.44,1.33 -24.66,2.12 -7.64,0.74 -10.05,4.09 -8.23,11.51 3.49,14.17 11.44,25.91 20.56,37 3.16,3.82 6.85,7.14 10.12,10.86 -0.81,0.61 -1.94,1.56 -2.75,2.19 z"
     class="cls-2" />
  <path
     style="fill:#ffffff;stroke:#ffffff;stroke-width:2px;stroke-miterlimit:10"
     id="path14"
     d="m 121.8,65.51 a 99.11,99.11 0 0 1 2.35,13.72 c 1.52,15.27 1.19,30.49 -3.35,45.35 -2.26,7.41 -5.3,14.43 -10.77,20.16 -6.94,7.29 -15.36,10.32 -25.21,8.13 A 59.8,59.8 0 0 1 52.68,133.93 c 0.81,-0.63 1.94,-1.58 2.75,-2.21 1.37,1.34 2.52,2 3.77,3.09 7,5.3 13.75,10 21.94,12.89 10.92,3.81 21.55,0.89 27.91,-8.53 a 67.14,67.14 0 0 0 7,-14 c 4.22,-11.23 4.93,-23 4.47,-34.91"
     class="cls-2" />
  <path
     style="fill:#ffffff;stroke:#ffffff;stroke-width:2px;stroke-miterlimit:10"
     id="path16"
     d="m 116.22,157.05 -1.46,-0.48 a 2,2 0 0 1 -1.21,-2.84 16.4,16.4 0 0 1 2.38,-3.21 c 9.08,-10 26.72,-9.56 34.45,3.49 a 22.37,22.37 0 0 1 2.18,17.62 4.11,4.11 0 0 1 -2.68,3.08 3.62,3.62 0 0 1 -3.2,-1.91 c -6.2,-9.95 -14.56,-15.89 -27.35,-15.35 a 8.62,8.62 0 0 1 -3.11,-0.4 z m 5.43,-3.71 c 10.39,0.07 18.68,4 25,12.31 a 1.3,1.3 0 0 0 2.32,-0.75 16.38,16.38 0 0 0 -9.55,-15.44 c -6.37,-2.95 -13.67,-2 -18.34,2.64 a 0.74,0.74 0 0 0 0.57,1.24 z"
     class="cls-2" />
  <path
     style="fill:#ffffff;stroke:#ffffff;stroke-width:2px;stroke-miterlimit:10"
     id="path18"
     d="m 159.74,133.23 a 7.22,7.22 0 0 1 0.87,-3.39 c 0.74,-1 2.89,-2.12 3.72,-1.72 6.15,2.93 12.11,6.27 18.18,9.39 2.68,1.37 2,3 0.63,4.81 a 13.22,13.22 0 0 1 -14.56,4.27 c -5.53,-1.89 -8.83,-6.46 -8.84,-13.36 z m 19.25,7.12 -14.67,-7.66 c -1,4.93 1.13,7.75 4.58,9.54 3.45,1.79 6.81,1.46 10.09,-1.88 z"
     class="cls-2" />
  <path
     style="fill:#ffffff;stroke:#ffffff;stroke-width:2px;stroke-miterlimit:10"
     id="path20"
     d="m 140.02,120.06 c -4,-2.12 -7.47,-3.78 -10.72,-5.78 -0.92,-0.57 -1.22,-2.16 -1.8,-3.27 1.18,-0.13 2.58,-0.74 3.5,-0.31 a 140.57,140.57 0 0 1 12.88,6.73 c 0.76,0.46 1.23,2.87 0.73,3.74 -3.31,5.73 -11.71,7.74 -17.26,4.14 -1.13,-0.74 -1.55,-2.57 -2.3,-3.89 1.39,0.05 3,-0.32 4.16,0.22 3.7,1.7 7.02,1.79 10.81,-1.58 z"
     class="cls-2" />
  <path
     style="fill:#ffffff;stroke:#ffffff;stroke-width:2px;stroke-miterlimit:10"
     id="path22"
     d="m 107.58,114.45 c 0,11 -6.52,18.86 -17.54,21.59 -8.68,2.19 -18.89,-2.72 -23.26,-11.17 -0.52,-1 -1,-2.73 -0.5,-3.4 0.5,-0.67 2.21,-0.69 3.4,-0.88 a 4.68,4.68 0 0 1 1.7,0.15 c 12.39,2.9 21.92,-1.76 29.82,-11.06 1,-1.23 2.18,-2.71 4.26,-2.71 1.69,1.18 1.82,3 1.91,5 0.04,0.93 0.17,1.93 0.21,2.48 z M 72.26,125.1 c 5.66,7 13.4,8.94 20.27,5.92 7.22,-3.16 11.37,-9.68 10.18,-16.85 -8.01,9.06 -17.83,12.85 -30.45,10.93 z"
     class="cls-2" />
  <path
     style="fill:#ffffff;stroke:#ffffff;stroke-width:2px;stroke-miterlimit:10"
     id="path24"
     d="m 45.87,105.02 a 12.52,12.52 0 0 1 9.89,-12.7 13.31,13.31 0 0 1 14.39,5.91 c 1.68,2.91 0.67,4.37 -2.21,5.39 -5.34,1.88 -10.63,3.94 -16,5.86 -4.9,1.75 -6.05,0.87 -6.07,-4.46 z m 20,-5.35 c -3,-3.33 -6.11,-4.47 -9.82,-3.09 -3.71,1.38 -5.86,4.11 -6,9 z"
     class="cls-2" />
  <path
     style="fill:#ffffff;stroke:#ffffff;stroke-width:2px;stroke-miterlimit:10"
     id="path26"
     d="m 87.15,89.6 a 12.52,12.52 0 0 1 9.89,-12.7 13.3,13.3 0 0 1 14.34,5.89 c 1.69,2.91 0.67,4.37 -2.2,5.39 -5.35,1.89 -10.64,3.94 -16,5.86 -4.82,1.76 -5.97,0.89 -6.03,-4.44 z m 20,-5.37 c -3,-3.33 -6.11,-4.47 -9.81,-3.09 -3.7,1.38 -5.87,4.11 -6,9 z"
     class="cls-2" />
</svg>
