<?xml version="1.0" encoding="UTF-8" standalone="no"?>
<svg
   xmlns:dc="http://purl.org/dc/elements/1.1/"
   xmlns:cc="http://creativecommons.org/ns#"
   xmlns:rdf="http://www.w3.org/1999/02/22-rdf-syntax-ns#"
   xmlns:svg="http://www.w3.org/2000/svg"
   xmlns="http://www.w3.org/2000/svg"
   height="229.78"
   width="229.78"
   version="1.1"
   viewBox="0 0 229.77999 229.77999"
   data-name="Warstwa 1"
   id="Warstwa_1">
  <metadata
     id="metadata23">
    <rdf:RDF>
      <cc:Work
         rdf:about="">
        <dc:format>image/svg+xml</dc:format>
        <dc:type
           rdf:resource="http://purl.org/dc/dcmitype/StillImage" />
        <dc:title>obiekty_sakralne</dc:title>
      </cc:Work>
    </rdf:RDF>
  </metadata>
  <defs
     id="defs4">
    <style
       id="style2">.cls-1{fill:#502a7e;stroke:#010101;stroke-width:3px;}.cls-1,.cls-2{stroke-miterlimit:10;}.cls-2,.cls-3{fill:#fff;}.cls-2{stroke:#fff;stroke-width:4px;}</style>
  </defs>
  <title
     id="title6">obiekty_sakralne</title>
  <circle
     style="fill:#502a7e;stroke:#010101;stroke-width:3px;stroke-miterlimit:10"
     id="circle8"
     r="113.39"
     cy="114.89"
     cx="114.89"
     class="cls-1" />
  <path
     style="fill:#ffffff;stroke:#ffffff;stroke-width:4px;stroke-miterlimit:10"
     id="path10"
     d="m 68.83,179.35 v -71.69 c -0.57,0.49 -1,0.81 -1.37,1.18 -3.15,3.14 -6.28,6.3 -9.44,9.43 -1.63,1.62 -3.32,1.79 -4.59,0.49 -1.27,-1.3 -1.08,-3 0.55,-4.59 Q 82.55,85.58 111.17,57.03 a 4.35,4.35 0 0 0 1.41,-3.45 c -0.06,-6.39 0,-12.78 0,-19.17 v -2.07 c -2.6,0 -5,0 -7.45,0 -2.13,0 -3.45,-1.15 -3.44,-2.89 0.01,-1.74 1.31,-2.81 3.48,-2.83 2.37,0 4.74,0 7.41,0 v -7.58 c 0,-1.59 0.58,-2.85 2.25,-3.25 1.94,-0.47 3.51,0.83 3.57,3 0.07,2.5 0,5 0,7.79 2.36,0 4.59,0 6.82,0 a 6.59,6.59 0 0 1 2.23,0.21 2.6,2.6 0 0 1 1.79,3 2.7,2.7 0 0 1 -2.79,2.54 c -2.61,0 -5.23,0 -8,0 v 2.24 c 0,6.33 0,12.66 0,19 a 4.38,4.38 0 0 0 1.41,3.45 q 28.37,28.26 56.65,56.61 c 2.12,2.12 2.46,3.73 1.1,5.12 -1.36,1.39 -3,1.1 -5.12,-1 -3.31,-3.33 -6.6,-6.67 -10.21,-10.33 v 71.93 h 2 c 7.65,0 15.29,0 22.94,0 2.27,0 3.67,1.38 3.39,3.25 -0.25,1.61 -1.39,2.46 -3.44,2.46 q -12.87,0 -25.75,0 H 45.16 c -0.69,0 -1.38,0 -2.07,0 a 2.84,2.84 0 0 1 0,-5.67 c 1.69,-0.09 3.38,0 5.07,0 z m 46.71,-118.5 c -0.43,0.39 -0.72,0.63 -1,0.89 Q 95.15,81.15 75.77,100.59 a 4.1,4.1 0 0 0 -1,2.63 q -0.07,37 0,74.07 c 0,0.66 0.07,1.31 0.11,1.93 h 15.86 v -2.35 c 0,-12.48 0,-24.95 0,-37.42 a 28.88,28.88 0 0 1 0.88,-7.24 24.69,24.69 0 0 1 48.56,6.58 c 0.07,12.73 0,25.45 0,38.17 v 2.25 h 15.89 c 0,-0.52 0.08,-0.89 0.08,-1.27 q 0,-37.5 0,-75 a 3.86,3.86 0 0 0 -1.05,-2.41 c -3.79,-3.91 -7.68,-7.73 -11.54,-11.59 z m -2.05,79.81 h -16.8 v 38.58 h 16.8 z m 4.05,0 v 38.49 h 16.69 v -38.52 z m -4.12,-4.12 v -16.58 c -8,0 -16.48,8.48 -16.59,16.55 z m 4,0 h 16.74 c -0.66,-8.66 -9.31,-17.13 -16.74,-16.44 z"
     class="cls-2" />
  <path
     style="fill:#ffffff"
     id="path12"
     d="m 105.22,151.66 a 8.35,8.35 0 0 1 2.65,0.06 c 0.65,0.23 1.54,1.08 1.51,1.59 -0.05,0.67 -0.85,1.78 -1.42,1.84 a 26.1,26.1 0 0 1 -5.86,0 2.23,2.23 0 0 1 -1.31,-1.73 2.33,2.33 0 0 1 1.43,-1.65 10.32,10.32 0 0 1 3,-0.08 z"
     class="cls-3" />
  <path
     style="fill:#ffffff"
     id="path14"
     d="m 126.58,151.63 a 7.53,7.53 0 0 1 2.65,0.07 2.89,2.89 0 0 1 1.7,1.78 c 0.08,0.51 -0.92,1.63 -1.54,1.71 a 21.62,21.62 0 0 1 -5.51,0 2.38,2.38 0 0 1 -1.53,-1.75 c 0,-0.6 0.89,-1.46 1.58,-1.72 a 7.79,7.79 0 0 1 2.65,-0.07 z"
     class="cls-3" />
  <path
     style="fill:#ffffff"
     id="path16"
     d="m 116.04,74.07 c -0.89,-0.08 -1.77,0.48 -2.95,1.67 L 92.2,96.62 c -0.42,0.42 -0.81,1 -1.32,1.16 -0.51,0.16 -1.71,0.22 -2.07,-0.17 a 3.34,3.34 0 0 1 -0.4,-2.2 c 0,-0.37 0.57,-0.72 0.91,-1.06 Q 100.13,83.52 110.95,72.7 a 6.59,6.59 0 0 1 4.89,-2.24"
     class="cls-3" />
  <path
     style="fill:#ffffff"
     id="path18"
     d="m 115.51,74.07 c 0.89,-0.08 1.77,0.48 2.95,1.67 l 20.89,20.88 c 0.42,0.42 0.81,1 1.32,1.16 0.66,0.17 1.71,0.22 2.07,-0.17 a 3.34,3.34 0 0 0 0.4,-2.2 c 0,-0.37 -0.57,-0.72 -0.91,-1.06 Q 131.42,83.52 120.6,72.7 a 6.59,6.59 0 0 0 -4.89,-2.24"
     class="cls-3" />
</svg>
