<?xml version="1.0" encoding="UTF-8" standalone="no"?>
<svg
   xmlns:dc="http://purl.org/dc/elements/1.1/"
   xmlns:cc="http://creativecommons.org/ns#"
   xmlns:rdf="http://www.w3.org/1999/02/22-rdf-syntax-ns#"
   xmlns:svg="http://www.w3.org/2000/svg"
   xmlns="http://www.w3.org/2000/svg"
   height="229.78"
   width="229.78"
   version="1.1"
   viewBox="0 0 229.77999 229.77999"
   data-name="Warstwa 1"
   id="Warstwa_1">
  <metadata
     id="metadata27">
    <rdf:RDF>
      <cc:Work
         rdf:about="">
        <dc:format>image/svg+xml</dc:format>
        <dc:type
           rdf:resource="http://purl.org/dc/dcmitype/StillImage" />
        <dc:title>PKP</dc:title>
      </cc:Work>
    </rdf:RDF>
  </metadata>
  <defs
     id="defs4">
    <style
       id="style2">.cls-1{fill:#7b3b1a;stroke:#010101;stroke-width:3px;}.cls-1,.cls-2{stroke-miterlimit:10;}.cls-2{fill:#fff;stroke:#fff;stroke-width:4px;}</style>
  </defs>
  <title
     id="title6">PKP</title>
  <circle
     style="fill:#502d16;stroke:#010101;stroke-width:3px;stroke-miterlimit:10"
     id="circle8"
     r="113.39"
     cy="114.89"
     cx="114.89"
     class="cls-1" />
  <path
     style="fill:#ffffff;stroke:#ffffff;stroke-width:4px;stroke-miterlimit:10"
     id="path10"
     d="m 178.61,101.75 c 0,17.57 0,35.14 0,52.71 0,10.23 -5.57,15.81 -15.69,15.81 H 68.31 c -10.28,0 -15.92,-5.44 -15.93,-15.6 q -0.08,-53.36 0,-106.71 c 0,-10.13 5.65,-15.59 15.92,-15.59 q 47.31,0 94.61,0 c 10.15,0 15.68,5.6 15.69,15.81 q 0.07,26.79 0.01,53.57 z M 57.67,59.4 c 0,14.76 -0.13,30 0.07,45.24 a 7.92,7.92 0 0 0 8,8.12 q 18,0.64 36.11,0.66 c 11.72,0 23.43,-0.35 35.15,-0.46 9.13,-0.09 18.29,0.34 27.4,-0.2 6.59,-0.4 8.92,-3.62 8.94,-10.26 q 0,-20.3 0,-40.59 a 16.63,16.63 0 0 0 -0.28,-2.46 c -4.65,0.45 -8.86,1.21 -13.08,1.23 q -44.49,0.15 -89,0 C 66.78,60.66 62.56,59.89 57.67,59.4 Z m 0,57.75 c 0,11.89 0,24.39 0,36.9 0,7.59 3.21,10.74 10.8,10.75 h 94.1 c 7.58,0 10.76,-3.19 10.77,-10.76 q 0,-16.83 0,-33.67 c 0,-1.35 -0.17,-2.69 -0.26,-4 -3,0.76 -5.62,1.89 -8.26,2 -7.16,0.25 -14.33,0.07 -21.5,0.05 -24,-0.07 -48,-0.11 -72,-0.28 -4.34,0.01 -8.65,-0.6 -13.65,-0.99 z m 57.86,-79.32 c -15.82,0 -31.64,-0.1 -47.45,0.11 a 13.48,13.48 0 0 0 -7.46,2.45 c -3,2.23 -3.69,5.75 -2.21,9.35 1.76,4.28 5.23,5.74 9.67,5.73 q 47.24,0 94.47,0 c 6.48,0 10.64,-3.39 10.78,-8.63 0.15,-5.43 -4.06,-9 -10.79,-9 q -23.52,-0.03 -47.03,-0.01 z"
     class="cls-2" />
  <path
     style="fill:#ffffff;stroke:#ffffff;stroke-width:4px;stroke-miterlimit:10"
     id="path12"
     d="m 115.07,198.99 c -6,0 -12.06,0.16 -18.07,-0.11 -1.44,-0.07 -2.82,-1.56 -4.22,-2.4 1.32,-0.92 2.64,-2.61 4,-2.63 q 18.72,-0.31 37.44,0 c 1.34,0 2.66,1.7 4,2.61 -1.4,0.84 -2.77,2.35 -4.2,2.41 -6.35,0.28 -12.64,0.12 -18.95,0.12 z"
     class="cls-2" />
  <path
     style="fill:#ffffff;stroke:#ffffff;stroke-width:4px;stroke-miterlimit:10"
     id="path14"
     d="m 134.53,176.87 a 2.11,2.11 0 0 1 2.4,0.05 16,16 0 0 1 2,1.58 c 6.84,6.8 13.74,13.55 20.38,20.55 a 2.28,2.28 0 0 1 0.43,0.66 c 1,2.33 -1.64,4.77 -3.74,3.34 a 3.11,3.11 0 0 1 -0.28,-0.23 c -7.17,-6.87 -14.16,-13.94 -21.09,-21.06 -0.84,-0.86 -1.66,-2.56 -1.2,-3.74 a 2.9,2.9 0 0 1 1.1,-1.15 z"
     class="cls-2" />
  <path
     style="fill:#ffffff;stroke:#ffffff;stroke-width:4px;stroke-miterlimit:10"
     id="path16"
     d="m 115.52,182.15 a 52.92,52.92 0 0 1 8.17,0.14 c 1.12,0.17 2,1.82 3,2.8 -1,0.81 -2,2.29 -3,2.34 -5.45,0.23 -10.92,0.23 -16.38,0 -1,0 -2,-1.54 -3,-2.36 1,-1 1.9,-2.6 3,-2.78 a 54.24,54.24 0 0 1 8.21,-0.14 z"
     class="cls-2" />
  <path
     style="fill:#ffffff;stroke:#ffffff;stroke-width:4px;stroke-miterlimit:10"
     id="path18"
     d="m 167.2,141.74 a 11.17,11.17 0 0 1 -11.43,11 c -5.69,0 -11.66,-5.85 -11.48,-11.3 0.16,-4.79 5.72,-10.94 9.95,-11 7.6,-0.11 12.98,4.59 12.96,11.3 z m -11.12,-6.2 a 6.5,6.5 0 0 0 -6.35,6.22 6.24,6.24 0 0 0 6,6.13 6.55,6.55 0 0 0 6.4,-6.25 6.37,6.37 0 0 0 -6.05,-6.1 z"
     class="cls-2" />
  <path
     style="fill:#ffffff;stroke:#ffffff;stroke-width:4px;stroke-miterlimit:10"
     id="path20"
     d="m 75.43,130.8 c 6.25,0.07 10.71,4.72 10.62,11.08 a 10.84,10.84 0 0 1 -11.08,10.83 c -6.59,-0.24 -11.28,-5 -11.13,-11.28 0.15,-6.44 4.83,-10.71 11.59,-10.63 z m 0,4.72 a 6.36,6.36 0 0 0 -6.48,6.1 6.54,6.54 0 0 0 6,6.26 6.21,6.21 0 0 0 6.36,-6.19 6,6 0 0 0 -5.88,-6.17 z"
     class="cls-2" />
  <path
     style="fill:#ffffff;stroke:#ffffff;stroke-width:4px;stroke-miterlimit:10"
     id="path22"
     d="m 96.48,176.87 a 2.11,2.11 0 0 0 -2.4,0.05 15.18,15.18 0 0 0 -2,1.58 c -6.85,6.8 -13.75,13.55 -20.39,20.55 a 2.28,2.28 0 0 0 -0.43,0.66 c -1,2.33 1.64,4.77 3.74,3.34 a 3.11,3.11 0 0 0 0.28,-0.23 c 7.17,-6.87 14.17,-13.94 21.09,-21.06 0.84,-0.86 1.66,-2.56 1.2,-3.74 a 2.83,2.83 0 0 0 -1.09,-1.15 z"
     class="cls-2" />
</svg>
