<?xml version="1.0" encoding="UTF-8" standalone="no"?>
<svg
   xmlns:dc="http://purl.org/dc/elements/1.1/"
   xmlns:cc="http://creativecommons.org/ns#"
   xmlns:rdf="http://www.w3.org/1999/02/22-rdf-syntax-ns#"
   xmlns:svg="http://www.w3.org/2000/svg"
   xmlns="http://www.w3.org/2000/svg"
   height="229.78"
   width="229.78"
   version="1.1"
   viewBox="0 0 229.77999 229.77999"
   data-name="Warstwa 1"
   id="Warstwa_1">
  <metadata
     id="metadata17">
    <rdf:RDF>
      <cc:Work
         rdf:about="">
        <dc:format>image/svg+xml</dc:format>
        <dc:type
           rdf:resource="http://purl.org/dc/dcmitype/StillImage" />
        <dc:title>pomniki_przyrody</dc:title>
      </cc:Work>
    </rdf:RDF>
  </metadata>
  <defs
     id="defs4">
    <style
       id="style2">.cls-1{fill:#52a045;stroke:#010101;stroke-width:3px;}.cls-1,.cls-2{stroke-miterlimit:10;}.cls-2{fill:none;stroke:#fff;stroke-width:5px;}</style>
  </defs>
  <title
     id="title6">pomniki_przyrody</title>
  <circle
     style="fill:#89a02c;stroke:#010101;stroke-width:3px;stroke-miterlimit:10"
     id="circle8"
     r="113.39"
     cy="114.89"
     cx="114.89"
     class="cls-1" />
  <path
     style="fill:#89a02c;stroke:#ffffff;stroke-width:5px;stroke-miterlimit:10"
     id="path10"
     d="m 67.33,44.42 a 35,35 0 0 1 34.62,29.6 c 1.08,6.91 0.16,14.15 0.53,21.21 0.17,3.28 1.26,6.5 2.07,10.4 2.94,-5.14 5.39,-9.31 7.71,-13.56 a 4.14,4.14 0 0 0 0.24,-2.74 c -4.94,-18 2.5,-28.69 14.22,-35.41 12.39,-7.1 25.94,-10.49 39.78,-12.6 3.75,-0.57 7.55,-0.78 11.31,-1.27 4,-0.52 4.62,0.22 4.05,4.46 a 99.7,99.7 0 0 1 -15.33,41.81 c -7.57,11.56 -18.12,17 -31.12,17.46 -5.59,0.18 -11.19,0 -16.78,0 l -0.64,-1.23 c 6.58,-8.09 12.88,-16.48 19.82,-24.19 6.94,-7.71 14.46,-14.65 21.34,-22.58 -1,0.66 -2,1.27 -3,2 a 204,204 0 0 0 -36.42,33.75 49,49 0 0 0 -11.37,29.34 14,14 0 0 1 -2,6.08 c -0.54,0.9 -2.48,1.42 -3.58,1.14 -0.78,-0.19 -1.59,-2 -1.7,-3.1 -0.18,-1.79 0.42,-3.65 0.34,-5.47 q -0.34,-7.47 -1,-14.92 c -0.21,-2.37 -1.48,-3.06 -3.85,-2.73 A 32.27,32.27 0 0 1 77.46,98.41 C 69.28,94.32 66.33,86.49 66.11,77.92 c -0.3,-11.09 0.7,-22.23 1.22,-33.5 z"
     class="cls-2" />
  <path
     style="fill:#89a02c;stroke:#ffffff;stroke-width:5px;stroke-miterlimit:10"
     id="path12"
     d="m 37.04,128.82 c 8,0 15.83,-0.08 23.65,0.05 2.57,0 2.76,0.59 3.62,5.86 3.26,0 6.56,0.2 9.83,0 12.75,-0.9 24.94,0.55 36.31,7 8.19,4.66 17.53,4.24 26.54,5.08 1.59,0.15 3.21,0 4.79,0.11 a 6.94,6.94 0 0 1 6.71,7 c 0,3.91 -2.42,6.66 -6.63,6.85 -11.05,0.52 -22.11,0.81 -33.16,1.35 -1.34,0.07 -2.64,1.07 -4,1.64 0.75,1.46 1.16,3.42 2.35,4.25 a 9.62,9.62 0 0 0 5.51,1.65 c 10.06,-0.32 20.13,-0.71 30.17,-1.49 3.94,-0.31 7.67,-1.8 9,-6.37 0.25,-0.81 1.54,-1.5 2.49,-1.89 9.32,-3.79 18.64,-7.58 28,-11.2 a 15.5,15.5 0 0 1 6.08,-1 4.52,4.52 0 0 1 3.43,2.1 5.79,5.79 0 0 1 -0.47,4.38 8.3,8.3 0 0 1 -3.36,2.72 c -16.45,9.07 -32.95,18.06 -49.4,27.13 -8.75,4.83 -17.87,4.73 -27.15,2.14 -13.94,-3.88 -27.85,-7.87 -41.77,-11.81 -1.38,-0.4 -2.78,-0.75 -3.73,-1 -1.2,2.1 -1.86,4.88 -3.21,5.27 -2.84,0.83 -6.06,0.6 -9.09,0.36 -0.87,-0.06 -1.79,-1.54 -2.41,-2.55 A 97.34,97.34 0 0 1 37.57,135.19 c -0.09,-1.87 -0.27,-3.74 -0.53,-6.37 z"
     class="cls-2" />
</svg>
