<svg id="Warstwa_1" data-name="Warstwa 1" xmlns="http://www.w3.org/2000/svg" viewBox="0 0 227.77 227.77"><defs><style>.cls-1{fill:#8f3339;stroke:#010101;stroke-miterlimit:10;}</style></defs><title>przystanek_bus3</title><circle class="cls-1" cx="113.89" cy="113.89" r="113.39"/><path d="M67.91,96.28c3.75,2.34,4.88,5.83,4.71,10-.11,2.77,0,5.55,0,8.32-.11,5.6-4,9.54-9.28,9.5s-9.07-4.07-9.08-9.69c0-3.36.11-6.71.09-10.07a8.83,8.83,0,0,1,4.32-7.75A3.39,3.39,0,0,0,60.07,95c1.43-6,5.78-8.29,11.27-9.28.66-.12,1.32-.22,2-.35a6.49,6.49,0,0,0,.84-.34c0-4.42-.07-9,0-13.59a10.08,10.08,0,0,1,7.92-10,13.1,13.1,0,0,1,3-.28q57.35,0,114.69,0c6.53,0,10.71,4.21,10.79,10.71.05,4.28,0,8.57.07,12.85a2,2,0,0,0,.23.52c1.76.38,3.59.65,5.34,1.19,4.19,1.29,7.17,3.86,8.44,8.23a4.33,4.33,0,0,0,1.65,2,9.53,9.53,0,0,1,4.19,7.91c0,3.36.07,6.72,0,10.08-.1,5.6-4,9.56-9.26,9.54s-9.09-4.07-9.12-9.66c0-2.35.12-4.71,0-7.06-.25-4.52.49-8.58,4.89-11.18v-.79l-6.42-2.75V203.41c0,6.9-1.4,8.42-8.19,8.89a2.75,2.75,0,0,0-.67.19c-.09.2-.23.35-.23.49.41,6.59-3.78,9.87-9.82,9.39-3.25-.25-6.55,0-9.82-.05-5.06,0-8-2.88-8.12-7.9,0-1.52-.32-2.27-2.09-2.26-19.33.08-38.65.08-58,.11-.73,0-1.47.08-2.12.12-.16.28-.32.42-.31.56.39,6.39-3.6,9.93-10.1,9.42-3-.24-6,0-9.07-.05-5.71,0-8.48-2.65-8.75-8.34,0-.48-.1-1-.15-1.37a2.23,2.23,0,0,0-.58-.27c-7.37-.72-8.43-1.9-8.43-9.43V92.78l-6.48,2.54Zm129,111.49h5.31c3.76,0,3.84-.08,3.84-3.8V72.88c0-5.33-2-7.31-7.27-7.31H86.61c-6.2,0-8,1.74-8,7.91q0,57.48,0,115c0,5.46,0,10.93,0,16.39,0,2.14.78,3.09,3,3,2-.11,4,0,6.23,0,0,2.3,0,4.3,0,6.29.06,2.63,1.08,3.72,3.63,3.75,3.86.05,7.73.05,11.59,0,2.42,0,3.5-1.16,3.56-3.59,0-2.07,0-4.15,0-6.29h71.52c0,2.23,0,4.31,0,6.39,0,2.42,1.33,3.5,3.64,3.51,3.87,0,7.73.05,11.6,0,2.42,0,3.47-1.15,3.53-3.61C197,212.2,196.92,210.19,196.92,207.77ZM58.72,109.4h.06c0,1.93-.12,3.86,0,5.78a4.55,4.55,0,0,0,4.61,4.38A4.51,4.51,0,0,0,68,115.17c.14-3.68.15-7.37,0-11a4.78,4.78,0,0,0-5-4.56,5.12,5.12,0,0,0-4.25,5.07Zm157.93.22c0,1.76-.09,3.53,0,5.28a4.65,4.65,0,1,0,9.29,0c.13-3.51.12-7,0-10.56a4.59,4.59,0,0,0-4.62-4.68,4.67,4.67,0,0,0-4.65,4.65C216.56,106.09,216.65,107.86,216.65,109.62Z" transform="translate(-28.5 -27.36)"/><path d="M144.51,92.92h48.72c5.17,0,7.59,2.37,7.59,7.51q0,26.44,0,52.9c0,4.65-2.36,7.27-6.78,7.29-16.13,0-32.25,0-48.37,0a10.5,10.5,0,0,1-1.17-.16Zm4.43,63.2h43.77c3.3,0,3.61-.31,3.61-3.59q0-25.69,0-51.4c0-3.4-.3-3.7-3.77-3.7q-20.42,0-40.82,0h-2.79Z" transform="translate(-28.5 -27.36)"/><path d="M140.36,93.09v67.39c-.8.06-1.52.16-2.24.16q-23,0-46.1,0c-5,0-7.46-2.39-7.47-7.38q0-26.57,0-53.15C84.56,95.64,87,93,91.24,93c16,0,31.91,0,47.86,0A11.85,11.85,0,0,1,140.36,93.09ZM135.79,156V97.57c-.88,0-1.61-.14-2.35-.14q-20.4,0-40.81,0c-3.21,0-3.56.37-3.56,3.69q0,25.83,0,51.65c0,2.95.38,3.32,3.36,3.32l40.81,0C134.07,156.12,134.9,156,135.79,156Z" transform="translate(-28.5 -27.36)"/><path d="M142.14,86.68q-14.62,0-29.24,0c-5.21,0-8.34-2.92-8.34-7.64s3.07-7.7,8.3-7.71q29.36,0,58.72,0c5.59,0,8.68,3,8.6,7.94a7.26,7.26,0,0,1-7.55,7.41C162.47,86.72,152.3,86.68,142.14,86.68Zm.06-4.49h29a9.61,9.61,0,0,0,2-.08,2.92,2.92,0,0,0,2.51-3.25,2.72,2.72,0,0,0-2.56-2.9,23.24,23.24,0,0,0-3-.11H115.48c-1.34,0-2.84-.27-4,.23s-2.27,1.78-2.26,2.7c0,1.11,1.14,2.35,2.08,3.21.48.43,1.61.19,2.44.19Z" transform="translate(-28.5 -27.36)"/><path d="M96.88,177c1.26,0,2.52-.06,3.77,0a10,10,0,0,1,9.35,9.23c.37,4.8-2.9,9.67-7.69,10.32a41.9,41.9,0,0,1-11.73-.09c-4.63-.7-7.65-5.69-7.18-10.67A10,10,0,0,1,92.61,177c1.42-.1,2.85,0,4.27,0Zm-.16,4.51c-1.26,0-2.52-.09-3.76,0a5.42,5.42,0,0,0-5.09,5.25,5.25,5.25,0,0,0,4.72,5.56,46.5,46.5,0,0,0,8.26-.08,5.23,5.23,0,0,0,4.65-5.37,5.52,5.52,0,0,0-5-5.36C99.24,181.44,98,181.54,96.72,181.54Z" transform="translate(-28.5 -27.36)"/><path d="M187.45,197.13a41.13,41.13,0,0,1-5-.39,10,10,0,0,1,1.5-19.7c2.43-.11,4.86-.08,7.29,0a9.9,9.9,0,0,1,9.83,9.22,9.8,9.8,0,0,1-8.37,10.54A48.19,48.19,0,0,1,187.45,197.13Zm.5-15.57v0a35.91,35.91,0,0,0-4.28,0,5.39,5.39,0,0,0-4.67,5.15c-.12,2.53,1.49,5.12,3.95,5.4a43,43,0,0,0,9.28.07c2.84-.31,4.47-2.82,4.3-5.63a5.36,5.36,0,0,0-4.81-5A33.84,33.84,0,0,0,188,181.56Z" transform="translate(-28.5 -27.36)"/><path d="M142.14,195.78q-12.22,0-24.43,0c-1.54,0-3.58.41-3.53-2,0-2.18,1.93-1.9,3.42-1.91,4,0,8.06,0,12.09,0h36.77c.58,0,1.3-.19,1.73.08a13.4,13.4,0,0,1,2,1.87,15.43,15.43,0,0,1-2.12,1.94c-.43.26-1.15.05-1.74.05Z" transform="translate(-28.5 -27.36)"/><path d="M142.17,183.82q12.35,0,24.68,0c1.51,0,3.34-.21,3.28,2,0,2.06-1.77,1.87-3.2,1.87H117.31c-1.42,0-3.13.17-3.15-1.93s1.59-2,3.08-2h24.93Z" transform="translate(-28.5 -27.36)"/><path d="M142.12,175.8h24.43a4.9,4.9,0,0,1,2.22.18,2.6,2.6,0,0,1,1.3,1.8,2.67,2.67,0,0,1-1.39,1.75,5.21,5.21,0,0,1-2.22.17l-49.1,0c-.42,0-1,.16-1.24,0a20,20,0,0,1-2-1.81c.69-.68,1.32-1.85,2.08-1.94a59.08,59.08,0,0,1,6.79-.1Z" transform="translate(-28.5 -27.36)"/></svg>