<?xml version="1.0" encoding="UTF-8" standalone="no"?>
<svg
   xmlns:dc="http://purl.org/dc/elements/1.1/"
   xmlns:cc="http://creativecommons.org/ns#"
   xmlns:rdf="http://www.w3.org/1999/02/22-rdf-syntax-ns#"
   xmlns:svg="http://www.w3.org/2000/svg"
   xmlns="http://www.w3.org/2000/svg"
   xmlns:sodipodi="http://sodipodi.sourceforge.net/DTD/sodipodi-0.dtd"
   xmlns:inkscape="http://www.inkscape.org/namespaces/inkscape"
   height="229.78"
   width="229.78"
   version="1.1"
   viewBox="0 0 229.77999 229.77999"
   data-name="Warstwa 1"
   id="Warstwa_1"
   sodipodi:docname="sport_rekreacja.svg"
   inkscape:version="0.92.4 (5da689c313, 2019-01-14)">
  <sodipodi:namedview
     pagecolor="#ffffff"
     bordercolor="#666666"
     borderopacity="1"
     objecttolerance="10"
     gridtolerance="10"
     guidetolerance="10"
     inkscape:pageopacity="0"
     inkscape:pageshadow="2"
     inkscape:window-width="1920"
     inkscape:window-height="986"
     id="namedview14"
     showgrid="false"
     inkscape:zoom="1.0270694"
     inkscape:cx="114.89"
     inkscape:cy="114.89"
     inkscape:window-x="-11"
     inkscape:window-y="-11"
     inkscape:window-maximized="1"
     inkscape:current-layer="Warstwa_1" />
  <metadata
     id="metadata25">
    <rdf:RDF>
      <cc:Work
         rdf:about="">
        <dc:format>image/svg+xml</dc:format>
        <dc:type
           rdf:resource="http://purl.org/dc/dcmitype/StillImage" />
        <dc:title>sport_rekreacja</dc:title>
      </cc:Work>
    </rdf:RDF>
  </metadata>
  <defs
     id="defs4">
    <style
       id="style2">.cls-1{fill:#6bcce0;stroke:#231f20;}.cls-1,.cls-2,.cls-3{stroke-miterlimit:10;}.cls-1,.cls-3{stroke-width:3px;}.cls-2,.cls-3{fill:#fff;stroke:#fff;}.cls-2{stroke-width:4px;}</style>
  </defs>
  <title
     id="title6">sport_rekreacja</title>
  <circle
     style="fill:#00aad4;stroke:#231f20;stroke-width:3px;stroke-miterlimit:10;fill-opacity:1"
     id="circle8"
     r="113.39"
     cy="114.89"
     cx="114.89"
     class="cls-1" />
  <path
     style="fill:#ffffff;stroke:#ffffff;stroke-width:4px;stroke-miterlimit:10"
     id="path10"
     d="m 107.53,133.06 c 11.39,4 22.32,7.94 33.27,11.8 9.14,3.22 18.31,6.36 27.43,9.67 a 1.66,1.66 0 0 1 0.33,0.16 1.52,1.52 0 0 1 -0.94,2.78 1.87,1.87 0 0 1 -0.34,-0.08 c -20.25,-7 -40.45,-14.19 -60.7,-21.23 -2.94,-1 -3.49,-2.19 -1.75,-4.93 a 62.5,62.5 0 0 0 5.49,-10.1 5.81,5.81 0 0 1 5.55,-4.11 c 7.89,-0.67 15.75,-1.58 23.63,-2.32 2.59,-0.25 4.75,-0.92 5.34,-3.83 a 4.11,4.11 0 0 0 -4.66,-4.9 c -10.27,0.93 -20.53,1.93 -30.76,3.25 -1.52,0.19 -3.25,2 -4.11,3.48 -8,13.8 -15.72,27.72 -23.66,41.54 l -0.06,0.11 a 1.55,1.55 0 0 1 -2.69,-1.52 v 0 c 7.89,-14.21 15.81,-28.41 24,-42.42 a 9.93,9.93 0 0 1 6.26,-4.22 c 10.2,-1.45 20.47,-2.39 30.73,-3.41 a 7.46,7.46 0 0 1 1.44,14.85 q -11.02,1.17 -22.12,2.17 c -3.28,0.28 -5.88,1 -7.15,4.64 -1.02,2.89 -2.85,5.49 -4.53,8.62 z"
     class="cls-2" />
  <path
     style="fill:#ffffff;stroke:#ffffff;stroke-width:4px;stroke-miterlimit:10"
     id="path12"
     d="m 115.97,162.91 a 3,3 0 0 1 3.17,1.82 c 2.62,6.54 6.42,8.7 14,8.49 6.16,-0.18 10,-2.71 11.93,-8.12 a 3.21,3.21 0 0 1 2.72,-2.18 c 1.67,-0.1 2.9,0.61 3.37,3.38 0.25,1.45 1.64,2.94 2.88,3.95 4.95,4 13.8,4.22 18.83,0.27 1.57,-1.24 2.42,-3.39 3.66,-5.08 0.08,-0.12 0.17,-0.24 0.26,-0.35 a 1.55,1.55 0 0 1 2.77,0.78 1.12,1.12 0 0 1 -0.06,0.45 c -0.81,2.07 -1.77,4.38 -3.38,5.78 -8.76,7.61 -24,5 -28.15,-4.61 -3.26,6.52 -8.92,8.91 -15.56,9 -6.64,0.09 -12.48,-2.21 -16,-8.9 -3.53,6.58 -9.21,9 -15.9,8.91 -6.69,-0.09 -12.18,-2.4 -15.57,-8.6 -6.58,10.49 -19.22,10.07 -26,5.9 -3.08,-1.89 -5.49,-4.36 -5.69,-8.2 a 1.56,1.56 0 0 1 0.13,-0.66 1.49,1.49 0 0 1 2.75,0 v 0 c 1.94,5.65 5.81,8.24 12.7,8.31 7.24,0.07 11,-2.46 13.28,-8.51 a 3.39,3.39 0 0 1 2.52,-1.66 4.56,4.56 0 0 1 2.88,1.21 c 1.29,1.28 2.64,6.55 6,7.39 3.81,0.95 4.88,1.46 8.79,1 4.11,-0.45 10.36,-3.18 11.18,-7.7 1.1,-1.89 1.41,-1.92 2.49,-2.07 z"
     class="cls-2" />
  <path
     style="fill:#ffffff;stroke:#ffffff;stroke-width:4px;stroke-miterlimit:10"
     id="path14"
     d="m 116.29,188.15 c -4.77,10.25 -23.57,12.65 -31.43,0.49 -7.43,8.77 -18.51,10.78 -26.92,4.86 -2.88,-2 -4.89,-4.63 -4.74,-8.34 a 2.07,2.07 0 0 1 1.34,-1.64 c 0.5,-0.09 1.26,0.58 1.51,1.1 3.52,7.52 7.66,10 15.68,8.79 4.95,-0.75 9.51,-2.61 10.64,-8.39 a 2.66,2.66 0 0 1 2.23,-1.62 c 1.05,0.05 2.45,0.84 2.57,1.56 1,5.5 5.35,7.47 10,8.3 5.39,1 10.57,0.26 14.56,-4.05 a 6.46,6.46 0 0 0 1.46,-3.19 c 0.34,-2 1.2,-2.84 3.31,-2.81 2.11,0.03 2.47,1.15 2.88,2.85 1,4.26 4.4,6.12 8.28,7 5.36,1.19 10.58,0.85 14.81,-3.14 1.21,-1.14 1.66,-3.07 2.61,-4.54 a 2.59,2.59 0 0 1 0.32,-0.42 1.58,1.58 0 0 1 2.69,0.6 3.39,3.39 0 0 1 -0.32,1.15 c -1.2,2.4 -2,4.58 -4,6.16 -8.62,6.93 -20.57,4.8 -27.48,-4.72 z"
     class="cls-2" />
  <path
     style="fill:#ffffff;stroke:#ffffff;stroke-width:4px;stroke-miterlimit:10"
     id="path16"
     d="m 50.26,134.18 a 14.16,14.16 0 0 1 14.09,-14.23 14.17,14.17 0 0 1 0,28.34 13.89,13.89 0 0 1 -14.09,-14.11 z M 64.2,145.09 A 10.91,10.91 0 1 0 53.27,134.22 10.68,10.68 0 0 0 64.2,145.09 Z"
     class="cls-2" />
  <path
     style="fill:#ffffff;stroke:#ffffff;stroke-width:3px;stroke-miterlimit:10"
     id="path18"
     d="m 114.89,25.89 h -1 c -17.43,0.87 -31.57,16.2 -30.73,33.33 0.86,17.81 14.63,31.3 31.72,31.63 z m -19.45,9.47 c 5.22,-4.59 12.22,-7.45 18.69,-7.38 v 44.09 l -7.16,-0.75 C 107.32,62.71 102.88,56.07 99.46,49.07 97.75,45.56 96.2,41.98 94.56,38.44 93.9,37.11 94.37,36.3 95.44,35.36 Z m -10.2,26.31 a 30.25,30.25 0 0 1 7.31,-23.4 c 4.13,9.36 8.2,18.45 12.11,27.61 0.57,1.35 0.34,3 0.52,4.93 -1.29,-0.23 -2.16,-0.34 -3,-0.54 a 49.92,49.92 0 0 1 -15.69,-6.7 3,3 0 0 1 -1.25,-1.9 z M 95.83,81.8 A 30.2,30.2 0 0 1 86.06,66.23 l 18.55,7.13 c -0.74,3.67 -2.54,6.88 -6.21,8.65 A 2.93,2.93 0 0 1 95.83,81.8 Z m 2.91,2.23 c 4.58,-2.29 6.77,-6 7.83,-10.77 l 7.62,0.66 v 15 C 108.6,88.87 103.75,86.95 98.74,84.01 Z"
     class="cls-3" />
  <path
     style="fill:#ffffff;stroke:#ffffff;stroke-width:3px;stroke-miterlimit:10"
     id="path20"
     d="m 114.89,25.89 h 1 c 17.43,0.87 31.57,16.2 30.74,33.33 -0.87,17.81 -14.64,31.3 -31.72,31.63 z m 19.44,9.47 c -5.22,-4.59 -12.22,-7.45 -18.69,-7.38 v 44.09 l 7.21,-0.75 c -0.35,-8.61 4.09,-15.25 7.51,-22.25 1.71,-3.51 3.26,-7.09 4.9,-10.63 0.61,-1.33 0.14,-2.14 -0.93,-3.08 z m 10.2,26.31 a 30.28,30.28 0 0 0 -7.3,-23.4 c -4.14,9.36 -8.21,18.45 -12.12,27.61 -0.57,1.35 -0.34,3 -0.52,4.93 1.29,-0.23 2.16,-0.34 3,-0.54 a 49.92,49.92 0 0 0 15.69,-6.7 3,3 0 0 0 1.25,-1.9 z M 133.97,81.8 a 30.2,30.2 0 0 0 9.77,-15.57 l -18.55,7.13 c 0.75,3.67 2.54,6.88 6.21,8.65 a 2.93,2.93 0 0 0 2.57,-0.21 z m -2.91,2.23 c -4.58,-2.29 -6.77,-6 -7.83,-10.77 l -7.62,0.66 v 15 c 5.56,-0.05 10.41,-1.97 15.42,-4.91 z"
     class="cls-3" />
</svg>
