<?xml version="1.0" encoding="UTF-8" standalone="no"?>
<svg
   xmlns:dc="http://purl.org/dc/elements/1.1/"
   xmlns:cc="http://creativecommons.org/ns#"
   xmlns:rdf="http://www.w3.org/1999/02/22-rdf-syntax-ns#"
   xmlns:svg="http://www.w3.org/2000/svg"
   xmlns="http://www.w3.org/2000/svg"
   height="229.78"
   width="229.78"
   version="1.1"
   viewBox="0 0 229.77999 229.77999"
   data-name="Warstwa 1"
   id="Warstwa_1">
  <metadata
     id="metadata17">
    <rdf:RDF>
      <cc:Work
         rdf:about="">
        <dc:format>image/svg+xml</dc:format>
        <dc:type
           rdf:resource="http://purl.org/dc/dcmitype/StillImage" />
        <dc:title>zabytki</dc:title>
      </cc:Work>
    </rdf:RDF>
  </metadata>
  <defs
     id="defs4">
    <style
       id="style2">.cls-1{fill:#fbb040;stroke:#231f20;}.cls-1,.cls-2{stroke-miterlimit:10;stroke-width:3px;}.cls-2{fill:#fff;stroke:#fff;}</style>
  </defs>
  <title
     id="title6">zabytki</title>
  <circle
     style="fill:#fbb040;stroke:#231f20;stroke-width:3px;stroke-miterlimit:10"
     id="circle8"
     r="113.39"
     cy="114.89"
     cx="114.89"
     class="cls-1" />
  <path
     style="fill:#ffffff;stroke:#ffffff;stroke-width:3px;stroke-miterlimit:10"
     id="path10"
     d="M 183.96,183.15 H 44.74 a 8.51,8.51 0 0 1 -4.35,-4.63 v -11.53 c 1.3,-3.31 3.69,-4.67 7.23,-4.38 2.47,0.19 5,0 7.44,0 A 5.51,5.51 0 0 0 55.15,162 q 0,-30.43 0,-60.88 c 0,-0.84 -0.38,-1.06 -1.07,-1.35 -2.14,-0.9 -3.91,-2.31 -4.43,-4.67 -0.44,-2 -0.57,-4.12 -0.84,-6.23 -1.09,-0.33 -2.33,-0.63 -3.51,-1.09 -2.6,-1 -4,-3.12 -4.93,-5.64 v -9.52 a 9.8,9.8 0 0 1 5.4,-5.29 c 4,-1.89 8,-3.81 12,-5.72 q 9.72,-4.63 19.44,-9.28 c 5.88,-2.83 11.73,-5.7 17.61,-8.53 2.38,-1.15 4.82,-2.18 7.19,-3.33 3.68,-1.79 7.33,-3.65 11,-5.48 h 2.89 a 2.18,2.18 0 0 0 0.43,0.32 l 13.82,6.64 16.47,8 c 5.33,2.57 10.66,5.11 16,7.69 6.85,3.32 13.67,6.7 20.55,10 2.46,1.18 4.49,2.67 5.44,5.34 v 9.55 a 25,25 0 0 1 -2.07,3.6 c -1.64,2 -4.09,2.56 -6.62,2.87 0,1.19 0,2.3 0,3.4 -0.13,3.36 -1.59,6 -4.71,7.34 a 1.83,1.83 0 0 0 -1.38,2 q 0,29.67 0,59.33 v 1.48 a 4.37,4.37 0 0 0 0.46,0.13 c 2.65,0 5.31,0 8,0 a 6.09,6.09 0 0 1 6.06,6.06 c 0,2.95 0,5.89 0,8.83 a 6.1,6.1 0 0 1 -0.44,1.91 c -0.76,1.84 -2.38,2.74 -3.95,3.67 z m -25,-101 c 1,0 2,0 3,0 5.92,0.09 11.83,0.2 17.74,0.28 2.08,0 2.81,-0.75 2.82,-2.86 a 21.61,21.61 0 0 1 0,-3.32 c 0.26,-1.66 -0.62,-2.43 -1.92,-3 -3.38,-1.58 -6.77,-3.14 -10.14,-4.75 -5.38,-2.57 -10.74,-5.17 -16.11,-7.76 q -12.2,-5.93 -24.51,-11.86 c -4.68,-2.27 -9.34,-4.59 -14,-6.87 a 2.23,2.23 0 0 0 -2.22,-0.22 c -4.41,2.18 -8.86,4.27 -13.3,6.39 l -18.43,8.8 -20.48,9.8 -12.7,6.05 c -1.48,0.7 -2.55,1.59 -2.27,3.48 a 21.08,21.08 0 0 1 0,3.18 c 0,1.68 0.5,2.46 2.13,2.65 1.63,0.19 3.29,0 4.93,0 12,0.09 24.08,0.21 36.12,0.27 3.11,0 6.23,-0.27 9.34,-0.26 12,0.06 24,0.2 36,0.26 2.87,0 5.74,-0.24 8.62,-0.26 5.12,0 10.23,0 15.35,0 z M 46.47,168.72 v 6.48 c 0,1.91 0,1.92 1.89,1.92 h 133.87 v -6.41 c 0,-2 0,-2 -2,-2 H 46.47 Z m 14.86,-68.24 v 61.76 h 17.49 v -61.76 z m 88.87,0 v 61.82 h 17.48 v -61.83 z m -44.29,0 v 61.76 h 17.24 v -61.76 z m -6.47,62.1 v -61.15 c 0,-0.19 0.07,-0.42 0,-0.57 -0.2,-0.36 -0.4,-0.89 -0.73,-1 a 7.5,7.5 0 0 1 -5,-7.73 c 0,-1.09 0,-2.17 0,-3.22 h -2.45 c -0.15,1.65 -0.27,3.21 -0.45,4.76 a 7.19,7.19 0 0 1 -4.42,6 c -1.07,0.48 -1.39,0.9 -1.38,2 q 0,29.64 0,59.3 v 1.59 z m 30.11,0 h 14.39 a 3.42,3.42 0 0 0 0.07,-0.52 q 0,-30.45 0,-60.89 c 0,-0.86 -0.41,-1 -1.1,-1.34 a 7.35,7.35 0 0 1 -4.7,-6.1 c -0.2,-1.59 -0.31,-3.2 -0.45,-4.79 h -2.45 c 0,1.3 0,2.54 0,3.79 -0.06,3.17 -1.43,5.59 -4.4,6.82 a 2,2 0 0 0 -1.41,2.2 q 0.06,29.64 0,59.29 z M 129.21,88.99 H 99.73 v 2.77 c 0,1.78 0.55,2.32 2.28,2.32 7.52,0 15,0 22.56,0 4.72,-0.02 4.83,0.5 4.64,-5.13 z m -73.76,0 c 0,1.16 0,2.21 0,3.26 0,1.32 0.57,1.91 1.89,1.89 2.46,0 4.92,0 7.38,0 6,0 12,0 17.93,0 1.12,0 1.92,-0.35 2,-1.52 0.08,-1.17 0,-2.38 0,-3.63 z m 118.09,0 h -29.23 c 0,1.2 0,2.31 0,3.41 a 1.55,1.55 0 0 0 1.71,1.69 q 12.94,0 25.89,0 a 1.44,1.44 0 0 0 1.62,-1.55 c 0.04,-1.2 0.01,-2.39 0.01,-3.6 z"
     class="cls-2" />
  <path
     style="fill:#ffffff;stroke:#ffffff;stroke-width:3px;stroke-miterlimit:10"
     id="path12"
     d="m 40.39,178.56 a 8.51,8.51 0 0 0 4.35,4.59 h -4.35 z"
     class="cls-2" />
</svg>
